<svg width="20" height="21" viewBox="0 0 20 21" fill="none" xmlns="http://www.w3.org/2000/svg">
<path d="M19.1083 9.26588L17.5276 7.99474C17.4047 7.89567 17.3087 7.76722 17.2486 7.62126C17.1885 7.4753 17.1661 7.31653 17.1836 7.15964L17.4029 5.14284C17.4325 4.87504 17.4015 4.60401 17.3122 4.34979C17.223 4.09556 17.0778 3.86464 16.8873 3.67408C16.6968 3.48352 16.466 3.3382 16.2118 3.24885C15.9576 3.1595 15.6866 3.12841 15.4188 3.15787L13.3994 3.3746C13.2425 3.39198 13.0838 3.36958 12.9378 3.30946C12.7919 3.24933 12.6634 3.15343 12.5643 3.03058L11.2931 1.45068C11.119 1.24946 10.9036 1.08807 10.6616 0.977444C10.4195 0.866824 10.1565 0.80957 9.89041 0.80957C9.6243 0.80957 9.3613 0.866824 9.11927 0.977444C8.87723 1.08807 8.66183 1.24946 8.48769 1.45068L7.21654 3.03058C7.11779 3.15386 6.98939 3.25008 6.84334 3.31024C6.69729 3.37041 6.53837 3.39255 6.38144 3.3746L4.36465 3.15787C4.09684 3.12829 3.82581 3.15927 3.57159 3.24851C3.31737 3.33775 3.08644 3.48297 2.89589 3.67345C2.70533 3.86392 2.56 4.09478 2.47065 4.34897C2.3813 4.60315 2.35021 4.87417 2.37967 5.14198L2.59898 7.15878C2.61685 7.31571 2.59467 7.4746 2.53451 7.62063C2.47435 7.76667 2.37818 7.89508 2.25496 7.99388L0.672486 9.26588C0.462585 9.43448 0.293197 9.64804 0.176809 9.89081C0.060421 10.1336 0 10.3994 0 10.6686C0 10.9378 0.060421 11.2036 0.176809 11.4464C0.293197 11.6892 0.462585 11.9027 0.672486 12.0713L2.25324 13.3425C2.3764 13.4413 2.47253 13.5698 2.53268 13.7158C2.59283 13.8618 2.61505 14.0207 2.59726 14.1776L2.37795 16.1944C2.34837 16.4622 2.37935 16.7332 2.46859 16.9874C2.55783 17.2417 2.70305 17.4726 2.89353 17.6631C3.084 17.8537 3.31486 17.999 3.56905 18.0884C3.82324 18.1777 4.09425 18.2088 4.36207 18.1794L6.37972 17.96C6.53662 17.9426 6.69538 17.9649 6.84134 18.0251C6.98731 18.0852 7.11576 18.1812 7.21482 18.3041L8.48769 19.8874C8.65629 20.0973 8.86984 20.2667 9.11262 20.3831C9.35539 20.4995 9.62118 20.5599 9.89041 20.5599C10.1596 20.5599 10.4254 20.4995 10.6682 20.3831C10.911 20.2667 11.1245 20.0973 11.2931 19.8874L12.5643 18.3066C12.6634 18.1838 12.7919 18.0879 12.9378 18.0278C13.0838 17.9676 13.2425 17.9452 13.3994 17.9626L15.4162 18.1819C15.684 18.2115 15.955 18.1805 16.2092 18.0913C16.4635 18.0021 16.6944 17.8568 16.8849 17.6664C17.0755 17.4759 17.2208 17.245 17.3102 16.9908C17.3995 16.7367 17.4306 16.4656 17.4012 16.1978L17.1818 14.1802C17.1639 14.0232 17.186 13.8643 17.2462 13.7183C17.3064 13.5722 17.4026 13.4438 17.5259 13.3451L19.1066 12.0739C19.3165 11.9053 19.4859 11.6918 19.6023 11.449C19.7187 11.2062 19.7791 10.9404 19.7791 10.6712C19.7791 10.402 19.7187 10.1362 19.6023 9.89339C19.4859 9.65062 19.3165 9.43706 19.1066 9.26846L19.1083 9.26588ZM10.2344 13.3064C10.1023 13.4784 9.93521 13.6206 9.74415 13.7234C9.55309 13.8262 9.34241 13.8873 9.12601 13.9028C8.9096 13.9182 8.69238 13.8876 8.48866 13.813C8.28494 13.7383 8.09936 13.6214 7.94414 13.4698L5.8422 11.373C5.76005 11.2937 5.69453 11.1987 5.64946 11.0938C5.60439 10.9889 5.58066 10.876 5.57967 10.7618C5.57868 10.6476 5.60044 10.5344 5.64368 10.4287C5.68692 10.323 5.75079 10.227 5.83154 10.1462C5.91229 10.0655 6.00831 10.0016 6.11401 9.95837C6.21971 9.91513 6.33296 9.89337 6.44715 9.89436C6.56135 9.89535 6.6742 9.91908 6.77913 9.96415C6.88406 10.0092 6.97896 10.0747 7.0583 10.1569L8.99425 12.0928L12.3562 7.61116C12.493 7.42869 12.6968 7.30805 12.9226 7.27579C13.0344 7.25982 13.1482 7.26602 13.2576 7.29405C13.367 7.32208 13.4699 7.37139 13.5602 7.43915C13.6506 7.50692 13.7267 7.59182 13.7842 7.689C13.8418 7.78619 13.8796 7.89375 13.8956 8.00556C13.9116 8.11737 13.9054 8.23123 13.8773 8.34063C13.8493 8.45004 13.8 8.55286 13.7322 8.64321L10.2344 13.3064Z" fill="#B8C2C4"/>
</svg>
