<svg width="35" height="34" viewBox="0 0 35 34" fill="none" xmlns="http://www.w3.org/2000/svg">
<path d="M32.8948 14.5575L30.1736 12.3692C29.962 12.1987 29.7968 11.9775 29.6933 11.7263C29.5898 11.475 29.5513 11.2017 29.5814 10.9316L29.9589 7.45969C30.0098 6.99867 29.9565 6.5321 29.8029 6.09446C29.6492 5.65681 29.3992 5.25928 29.0713 4.93124C28.7434 4.60319 28.346 4.35302 27.9084 4.1992C27.4709 4.04538 27.0043 3.99186 26.5433 4.04257L23.0669 4.41567C22.7968 4.4456 22.5236 4.40703 22.2723 4.30353C22.0211 4.20003 21.7999 4.03493 21.6293 3.82345L19.441 1.10367C19.1413 0.757272 18.7704 0.479426 18.3538 0.288994C17.9371 0.0985614 17.4844 0 17.0263 0C16.5682 0 16.1154 0.0985614 15.6987 0.288994C15.2821 0.479426 14.9113 0.757272 14.6115 1.10367L12.4232 3.82345C12.2532 4.03567 12.0322 4.20131 11.7808 4.30488C11.5293 4.40846 11.2558 4.44657 10.9856 4.41567L7.5137 4.04257C7.05268 3.99166 6.58611 4.04498 6.14846 4.19861C5.71082 4.35224 5.31329 4.60224 4.98524 4.93014C4.6572 5.25804 4.40702 5.65547 4.25321 6.09304C4.09939 6.53062 4.04586 6.99717 4.09658 7.45821L4.47412 10.9301C4.50488 11.2003 4.4667 11.4738 4.36314 11.7252C4.25958 11.9766 4.09401 12.1976 3.8819 12.3677L1.15768 14.5575C0.796336 14.8477 0.504736 15.2154 0.304375 15.6333C0.104014 16.0512 0 16.5088 0 16.9723C0 17.4357 0.104014 17.8933 0.304375 18.3112C0.504736 18.7292 0.796336 19.0968 1.15768 19.387L3.87894 21.5753C4.09095 21.7455 4.25643 21.9666 4.35998 22.2179C4.46353 22.4693 4.50178 22.7428 4.47116 23.0129L4.09362 26.4848C4.0427 26.9458 4.09603 27.4124 4.24966 27.8501C4.40328 28.2877 4.65328 28.6852 4.98119 29.0133C5.30909 29.3413 5.70651 29.5915 6.14409 29.7453C6.58167 29.8991 7.04821 29.9527 7.50926 29.9019L10.9826 29.5244C11.2527 29.4943 11.526 29.5328 11.7773 29.6363C12.0286 29.7399 12.2497 29.905 12.4203 30.1166L14.6115 32.8423C14.9017 33.2037 15.2694 33.4953 15.6873 33.6956C16.1052 33.896 16.5628 34 17.0263 34C17.4897 34 17.9473 33.896 18.3652 33.6956C18.7832 33.4953 19.1508 33.2037 19.441 32.8423L21.6293 30.1211C21.7999 29.9096 22.0211 29.7445 22.2723 29.641C22.5236 29.5375 22.7968 29.4989 23.0669 29.5288L26.5388 29.9064C26.9998 29.9573 27.4664 29.904 27.9041 29.7503C28.3417 29.5967 28.7392 29.3467 29.0673 29.0188C29.3953 28.6909 29.6455 28.2935 29.7993 27.8559C29.9531 27.4183 30.0067 26.9518 29.9559 26.4907L29.5784 23.0174C29.5475 22.7472 29.5856 22.4736 29.6892 22.2222C29.7928 21.9708 29.9584 21.7497 30.1706 21.5797L32.8919 19.3915C33.2532 19.1012 33.5448 18.7336 33.7452 18.3157C33.9456 17.8977 34.0496 17.4402 34.0496 16.9767C34.0496 16.5132 33.9456 16.0557 33.7452 15.6377C33.5448 15.2198 33.2532 14.8522 32.8919 14.5619L32.8948 14.5575ZM17.6185 21.5131C17.391 21.8094 17.1034 22.054 16.7745 22.231C16.4456 22.408 16.0829 22.5132 15.7103 22.5398C15.3378 22.5664 14.9639 22.5137 14.6132 22.3852C14.2625 22.2567 13.943 22.0554 13.6758 21.7944L10.0573 18.1848C9.91589 18.0483 9.80309 17.8849 9.7255 17.7043C9.6479 17.5236 9.60706 17.3293 9.60535 17.1328C9.60364 16.9362 9.64111 16.7412 9.71555 16.5593C9.78999 16.3773 9.89993 16.212 10.0389 16.073C10.178 15.934 10.3433 15.824 10.5252 15.7496C10.7072 15.6751 10.9021 15.6377 11.0987 15.6394C11.2953 15.6411 11.4896 15.6819 11.6702 15.7595C11.8508 15.8371 12.0142 15.9499 12.1508 16.0913L15.4835 19.4241L21.271 11.7089C21.5066 11.3948 21.8574 11.1871 22.2461 11.1315C22.4386 11.104 22.6346 11.1147 22.8229 11.163C23.0113 11.2112 23.1882 11.2961 23.3438 11.4128C23.4993 11.5294 23.6304 11.6756 23.7294 11.8429C23.8285 12.0102 23.8936 12.1954 23.9211 12.3878C23.9486 12.5803 23.9379 12.7763 23.8897 12.9647C23.8414 13.153 23.7566 13.33 23.6399 13.4856L17.6185 21.5131Z" fill="#00D586"/>
</svg>
