<svg width="472" height="419" viewBox="0 0 472 419" fill="none" xmlns="http://www.w3.org/2000/svg">
<mask id="mask0" mask-type="alpha" maskUnits="userSpaceOnUse" x="0" y="0" width="472" height="419">
<rect width="471.465" height="418.153" rx="30" fill="#00D586"/>
</mask>
<g mask="url(#mask0)">
<g filter="url(#filter0_d)">
<rect x="47.9431" y="39.1691" width="303.273" height="343.092" rx="10.4398" fill="white"/>
<rect x="48.4138" y="39.6398" width="302.331" height="342.151" rx="9.96907" stroke="#DAE2E3" stroke-width="0.941383"/>
</g>
<path fill-rule="evenodd" clip-rule="evenodd" d="M314.623 244.224C313.288 244.224 312.206 245.306 312.206 246.641V257.551C312.206 258.886 313.288 259.968 314.623 259.968H320.324C321.659 259.968 322.741 258.886 322.741 257.551V246.641C322.741 245.306 321.659 244.224 320.324 244.224H314.623ZM317.473 258.13C318.145 258.13 318.689 257.586 318.689 256.915C318.689 256.244 318.145 255.699 317.473 255.699C316.802 255.699 316.258 256.244 316.258 256.915C316.258 257.586 316.802 258.13 317.473 258.13Z" fill="#00D586"/>
<path d="M299.841 319.081H288.921C288.526 319.081 288.148 319.238 287.868 319.517C287.589 319.796 287.432 320.175 287.432 320.57V329.008C287.432 329.403 287.589 329.782 287.868 330.061C288.148 330.34 288.526 330.497 288.921 330.497H299.841C300.236 330.497 300.615 330.34 300.894 330.061C301.173 329.782 301.33 329.403 301.33 329.008V320.57C301.33 320.175 301.173 319.796 300.894 319.517C300.615 319.238 300.236 319.081 299.841 319.081V319.081ZM299.728 323.194L295.771 325.571C295.352 325.823 294.873 325.955 294.385 325.955C293.897 325.955 293.418 325.823 292.999 325.571L289.038 323.189C288.953 323.139 288.879 323.073 288.82 322.994C288.761 322.915 288.718 322.826 288.694 322.731C288.669 322.635 288.664 322.536 288.679 322.439C288.693 322.341 288.726 322.248 288.777 322.163C288.828 322.079 288.894 322.006 288.974 321.947C289.053 321.889 289.143 321.847 289.238 321.823C289.334 321.8 289.433 321.796 289.53 321.811C289.628 321.826 289.721 321.861 289.805 321.912L293.762 324.293C293.949 324.406 294.163 324.465 294.381 324.465C294.6 324.465 294.814 324.406 295.001 324.293L298.962 321.916C299.045 321.865 299.139 321.83 299.236 321.815C299.333 321.8 299.432 321.804 299.528 321.827C299.623 321.851 299.713 321.893 299.793 321.951C299.872 322.009 299.939 322.083 299.989 322.167C300.04 322.252 300.073 322.345 300.088 322.443C300.102 322.54 300.097 322.639 300.072 322.735C300.048 322.83 300.005 322.919 299.946 322.998C299.887 323.077 299.813 323.143 299.728 323.193V323.194Z" fill="#00D586"/>
<path fill-rule="evenodd" clip-rule="evenodd" d="M314.623 316.539C313.288 316.539 312.206 317.621 312.206 318.956V329.866C312.206 331.201 313.288 332.284 314.623 332.284H320.324C321.659 332.284 322.741 331.201 322.741 329.866V318.956C322.741 317.621 321.659 316.539 320.324 316.539H314.623ZM317.473 330.446C318.145 330.446 318.689 329.902 318.689 329.23C318.689 328.559 318.145 328.015 317.473 328.015C316.802 328.015 316.258 328.559 316.258 329.23C316.258 329.902 316.802 330.446 317.473 330.446Z" fill="#00D586"/>
<path d="M299.841 246.388H288.921C288.526 246.388 288.148 246.545 287.868 246.824C287.589 247.104 287.432 247.482 287.432 247.877V256.315C287.432 256.71 287.589 257.089 287.868 257.368C288.148 257.648 288.526 257.804 288.921 257.804H299.841C300.236 257.804 300.615 257.648 300.894 257.368C301.173 257.089 301.33 256.71 301.33 256.315V247.877C301.33 247.482 301.173 247.104 300.894 246.824C300.615 246.545 300.236 246.388 299.841 246.388V246.388ZM299.728 250.501L295.771 252.879C295.352 253.13 294.873 253.263 294.385 253.263C293.897 253.263 293.418 253.13 292.999 252.879L289.038 250.496C288.953 250.446 288.879 250.38 288.82 250.301C288.761 250.223 288.718 250.133 288.694 250.038C288.669 249.943 288.664 249.843 288.679 249.746C288.693 249.649 288.726 249.555 288.777 249.471C288.828 249.386 288.894 249.313 288.974 249.255C289.053 249.196 289.143 249.154 289.238 249.131C289.334 249.107 289.433 249.103 289.53 249.118C289.628 249.134 289.721 249.168 289.805 249.219L293.762 251.6C293.949 251.713 294.163 251.773 294.381 251.773C294.6 251.773 294.814 251.713 295.001 251.6L298.962 249.223C299.045 249.172 299.139 249.138 299.236 249.122C299.333 249.107 299.432 249.111 299.528 249.135C299.623 249.158 299.713 249.2 299.793 249.258C299.872 249.317 299.939 249.39 299.989 249.475C300.04 249.559 300.073 249.653 300.088 249.75C300.102 249.847 300.097 249.947 300.072 250.042C300.048 250.137 300.005 250.227 299.946 250.305C299.887 250.384 299.813 250.45 299.728 250.5V250.501Z" fill="#00D586"/>
<path fill-rule="evenodd" clip-rule="evenodd" d="M314.623 173.764C313.288 173.764 312.206 174.846 312.206 176.181V187.091C312.206 188.426 313.288 189.508 314.623 189.508H320.324C321.659 189.508 322.741 188.426 322.741 187.091V176.181C322.741 174.846 321.659 173.764 320.324 173.764H314.623ZM317.473 187.67C318.145 187.67 318.689 187.126 318.689 186.455C318.689 185.784 318.145 185.239 317.473 185.239C316.802 185.239 316.258 185.784 316.258 186.455C316.258 187.126 316.802 187.67 317.473 187.67Z" fill="#00D586"/>
<path d="M299.841 175.928H288.921C288.526 175.928 288.148 176.085 287.868 176.364C287.589 176.643 287.432 177.022 287.432 177.417V185.855C287.432 186.25 287.589 186.629 287.868 186.908C288.148 187.187 288.526 187.344 288.921 187.344H299.841C300.236 187.344 300.615 187.187 300.894 186.908C301.173 186.629 301.33 186.25 301.33 185.855V177.417C301.33 177.022 301.173 176.643 300.894 176.364C300.615 176.085 300.236 175.928 299.841 175.928V175.928ZM299.728 180.041L295.771 182.418C295.352 182.67 294.873 182.803 294.385 182.803C293.897 182.803 293.418 182.67 292.999 182.418L289.038 180.036C288.953 179.986 288.879 179.92 288.82 179.841C288.761 179.763 288.718 179.673 288.694 179.578C288.669 179.482 288.664 179.383 288.679 179.286C288.693 179.188 288.726 179.095 288.777 179.011C288.828 178.926 288.894 178.853 288.974 178.794C289.053 178.736 289.143 178.694 289.238 178.67C289.334 178.647 289.433 178.643 289.53 178.658C289.628 178.673 289.721 178.708 289.805 178.759L293.762 181.14C293.949 181.253 294.163 181.312 294.381 181.312C294.6 181.312 294.814 181.253 295.001 181.14L298.962 178.763C299.045 178.712 299.139 178.677 299.236 178.662C299.333 178.647 299.432 178.651 299.528 178.674C299.623 178.698 299.713 178.74 299.793 178.798C299.872 178.857 299.939 178.93 299.989 179.014C300.04 179.099 300.073 179.192 300.088 179.29C300.102 179.387 300.097 179.486 300.072 179.582C300.048 179.677 300.005 179.767 299.946 179.845C299.887 179.924 299.813 179.99 299.728 180.04V180.041Z" fill="#00D586"/>
<path d="M290.908 117.373V101.029H293.595V117.373H290.908Z" fill="white"/>
<path d="M298.213 112.985C298.59 114.431 299.509 115.215 300.827 115.215C301.698 115.215 302.5 114.897 303.044 114.309C303.162 114.211 303.327 113.941 303.586 113.549L305.848 114.529C305.189 115.705 304.977 115.95 304.317 116.513C303.318 117.313 302.092 117.744 300.831 117.738C297.792 117.738 295.459 115.215 295.459 111.932C295.459 108.698 297.792 106.15 300.737 106.15C303.023 106.15 304.955 107.693 305.638 110.045C305.833 110.746 305.927 111.472 305.918 112.201C305.918 112.373 305.918 112.569 305.894 112.985H298.213ZM303.232 110.903C302.757 109.359 301.959 108.625 300.734 108.625C299.462 108.625 298.566 109.457 298.213 110.903H303.232Z" fill="white"/>
<path d="M315.414 117.373V116.687C314.447 117.447 313.693 117.74 312.61 117.74C309.546 117.74 307.119 115.168 307.119 111.935C307.119 108.723 309.546 106.153 312.61 106.153C313.693 106.153 314.447 106.447 315.414 107.206V106.517H318.1V117.373H315.414ZM309.829 111.938C309.829 113.873 310.984 115.22 312.657 115.22C314.329 115.22 315.461 113.873 315.461 111.938C315.461 109.978 314.33 108.679 312.61 108.679C310.987 108.673 309.829 110.021 309.829 111.932V111.938Z" fill="white"/>
<path d="M330.918 111.809C330.918 116.146 328.255 117.739 325.453 117.739C321.917 117.738 319.937 115.067 319.937 111.834C319.937 108.527 322.155 106.152 325.286 106.152C327.194 106.152 328.232 107.205 328.232 107.205V101.029H330.918L330.918 111.809ZM322.648 111.932C322.648 113.867 323.757 115.215 325.475 115.215C327.266 115.215 328.209 113.769 328.209 111.838C328.209 109.927 327.124 108.677 325.522 108.677C323.802 108.673 322.648 109.997 322.648 111.932V111.932Z" fill="white"/>
<path d="M336.412 102.818C336.409 103.283 336.228 103.727 335.91 104.053C335.592 104.379 335.162 104.561 334.715 104.557C334.269 104.554 333.841 104.367 333.528 104.036C333.214 103.705 333.039 103.258 333.043 102.794C333.043 101.863 333.797 101.104 334.763 101.104C335.199 101.109 335.615 101.292 335.923 101.612C336.231 101.932 336.407 102.365 336.412 102.818V102.818ZM336.055 117.373H333.369V106.517H336.055V117.373Z" fill="white"/>
<path d="M348.701 114.615C347.363 115.169 345.879 115.21 344.516 114.729C343.152 114.249 341.998 113.279 341.259 111.994C340.521 110.708 340.248 109.191 340.488 107.715C340.728 106.239 341.466 104.9 342.57 103.939C343.674 102.978 345.071 102.456 346.511 102.469C347.951 102.482 349.339 103.028 350.427 104.009C351.515 104.989 352.231 106.341 352.447 107.821C352.663 109.301 352.364 110.813 351.605 112.085L353.387 113.937C354.603 112.168 355.15 109.994 354.923 107.832C354.695 105.67 353.71 103.671 352.155 102.216C350.6 100.761 348.584 99.9532 346.492 99.946C344.4 99.9388 342.379 100.733 340.815 102.177C339.25 103.621 338.252 105.613 338.011 107.774C337.771 109.934 338.303 112.112 339.509 113.889C340.714 115.667 342.506 116.921 344.544 117.412C346.582 117.903 348.723 117.596 350.557 116.55L348.701 114.615Z" fill="white"/>
<path d="M353.451 113.824C352.705 114.944 351.721 115.871 350.576 116.533L353.614 119.691L356.332 116.82L353.451 113.824Z" fill="white"/>
<circle cx="258.438" cy="165.86" r="19.837" fill="#FFF3D6"/>
<mask id="mask1" mask-type="alpha" maskUnits="userSpaceOnUse" x="238" y="146" width="41" height="40">
<circle cx="258.437" cy="165.86" r="19.837" fill="#FFF3D6"/>
</mask>
<g mask="url(#mask1)">
<rect x="225.998" y="144.844" width="55.5732" height="83.3179" fill="#00D586"/>
</g>
<rect opacity="0.8" x="287.432" y="151.203" width="103.348" height="6.90677" rx="3.45339" fill="#576F76"/>
<rect x="287.432" y="162.406" width="69.3405" height="6.90677" rx="3.45339" fill="#DAE2E3"/>
<circle cx="258.437" cy="238.831" r="19.837" fill="#FFF3D6"/>
<circle cx="258.438" cy="238.973" r="19.837" fill="#FFF3D6"/>
<mask id="mask2" mask-type="alpha" maskUnits="userSpaceOnUse" x="238" y="219" width="41" height="40">
<circle cx="258.437" cy="238.973" r="19.837" fill="#FFF3D6"/>
</mask>
<g mask="url(#mask2)">
<rect x="225.998" y="217.954" width="55.5732" height="83.3179" fill="#00D586"/>
</g>
<rect opacity="0.8" x="287.432" y="220.893" width="66.5121" height="6.90677" rx="3.45339" fill="#576F76"/>
<rect x="287.432" y="232.097" width="113.183" height="6.90677" rx="3.45339" fill="#DAE2E3"/>
<circle cx="258.438" cy="312.978" r="19.837" fill="#FFF3D6"/>
<mask id="mask3" mask-type="alpha" maskUnits="userSpaceOnUse" x="238" y="293" width="41" height="40">
<circle cx="258.437" cy="312.978" r="19.837" fill="#FFF3D6"/>
</mask>
<g mask="url(#mask3)">
<rect x="225.998" y="291.962" width="55.5732" height="83.3179" fill="#00D586"/>
</g>
<rect opacity="0.8" x="287.432" y="294.454" width="92.7567" height="6.90677" rx="3.45339" fill="#576F76"/>
<rect x="287.432" y="305.658" width="82.1696" height="6.90677" rx="3.45339" fill="#DAE2E3"/>
<line opacity="0.9" x1="239.162" y1="206.25" x2="408.541" y2="206.249" stroke="#DAE2E3" stroke-width="1.12255" stroke-linecap="round" stroke-linejoin="bevel"/>
<line opacity="0.9" x1="239.162" y1="279.755" x2="408.541" y2="279.755" stroke="#DAE2E3" stroke-width="1.12255" stroke-linecap="round" stroke-linejoin="bevel"/>
<rect opacity="0.8" x="67.4648" y="103.394" width="51.3463" height="6.90677" rx="3.45339" fill="#495E65"/>
<rect opacity="0.8" x="67.4648" y="135.744" width="35.4037" height="6.90677" rx="3.45339" fill="#495E65"/>
<rect opacity="0.8" x="67.4648" y="168.145" width="66" height="6.90677" rx="3.45339" fill="#495E65"/>
<rect opacity="0.8" x="67.4648" y="265.018" width="71.3273" height="6.90677" rx="3.45339" fill="#495E65"/>
<rect opacity="0.8" x="67.4648" y="200.883" width="25.1652" height="6.90677" rx="3.45339" fill="#495E65"/>
<rect opacity="0.8" x="67.4648" y="297.756" width="84.0531" height="6.90677" rx="3.45339" fill="#495E65"/>
<rect opacity="0.8" x="67.4648" y="233.593" width="103.075" height="6.90677" rx="3.45339" fill="#495E65"/>
<rect opacity="0.8" x="67.4648" y="330.467" width="108.87" height="6.90677" rx="3.45339" fill="#495E65"/>
<rect opacity="0.8" x="67.4648" y="362.929" width="51.3463" height="6.90677" rx="3.45339" fill="#495E65"/>
<rect x="137.465" y="103.394" width="84.2487" height="6.90677" rx="3.45339" fill="#CFD9DB"/>
<rect x="114.94" y="135.744" width="49.0669" height="6.90677" rx="3.45339" fill="#CFD9DB"/>
<rect x="174.323" y="135.744" width="68.0812" height="6.90677" rx="3.45339" fill="#CFD9DB"/>
<rect x="146.241" y="168.145" width="87.9732" height="6.90677" rx="3.45339" fill="#CFD9DB"/>
<rect x="151.484" y="265.018" width="50.6399" height="6.90677" rx="3.45339" fill="#CFD9DB"/>
<rect x="105.287" y="200.883" width="34.148" height="6.90677" rx="3.45339" fill="#CFD9DB"/>
<rect x="152.091" y="200.883" width="34.148" height="6.90677" rx="3.45339" fill="#CFD9DB"/>
<rect x="198.895" y="200.883" width="34.148" height="6.90677" rx="3.45339" fill="#CFD9DB"/>
<rect x="161.518" y="297.756" width="47.124" height="6.90677" rx="3.45339" fill="#CFD9DB"/>
<rect x="218.642" y="297.756" width="47.124" height="6.90677" rx="3.45339" fill="#CFD9DB"/>
<rect x="181.92" y="233.593" width="39.793" height="6.90677" rx="3.45339" fill="#CFD9DB"/>
<rect x="199.059" y="330.467" width="84.2487" height="6.90677" rx="3.45339" fill="#CFD9DB"/>
<rect x="129.602" y="362.929" width="65.9542" height="6.90677" rx="3.45339" fill="#CFD9DB"/>
<rect x="206.347" y="362.929" width="111.961" height="6.90677" rx="3.45339" fill="#CFD9DB"/>
<line opacity="0.9" x1="67.4416" y1="123.027" x2="331.717" y2="123.027" stroke="#DAE2E3" stroke-width="1.12255" stroke-linecap="round" stroke-linejoin="bevel"/>
<line opacity="0.9" x1="67.4416" y1="155.376" x2="331.717" y2="155.376" stroke="#DAE2E3" stroke-width="1.12255" stroke-linecap="round" stroke-linejoin="bevel"/>
<line opacity="0.9" x1="67.4416" y1="187.777" x2="331.717" y2="187.777" stroke="#DAE2E3" stroke-width="1.12255" stroke-linecap="round" stroke-linejoin="bevel"/>
<line opacity="0.9" x1="67.4416" y1="284.65" x2="331.717" y2="284.65" stroke="#DAE2E3" stroke-width="1.12255" stroke-linecap="round" stroke-linejoin="bevel"/>
<line opacity="0.9" x1="67.4416" y1="220.515" x2="331.717" y2="220.515" stroke="#DAE2E3" stroke-width="1.12255" stroke-linecap="round" stroke-linejoin="bevel"/>
<line opacity="0.9" x1="67.4416" y1="317.388" x2="331.717" y2="317.388" stroke="#DAE2E3" stroke-width="1.12255" stroke-linecap="round" stroke-linejoin="bevel"/>
<line opacity="0.9" x1="67.4416" y1="253.225" x2="331.717" y2="253.225" stroke="#DAE2E3" stroke-width="1.12255" stroke-linecap="round" stroke-linejoin="bevel"/>
<line opacity="0.9" x1="67.4416" y1="350.099" x2="331.717" y2="350.099" stroke="#DAE2E3" stroke-width="1.12255" stroke-linecap="round" stroke-linejoin="bevel"/>
<path d="M47.9431 48.1441C47.9431 43.1872 51.9614 39.1689 56.9183 39.1689H149.613L173.215 65.4032L149.613 91.6374H47.9431V48.1441Z" fill="#526166"/>
<path d="M148.3 39.1689H249.97L273.572 65.4032L249.97 91.6374H148.3L172.555 65.4032L148.3 39.1689Z" fill="#7B8A8E"/>
<path d="M249.633 39.1689H342.328C347.285 39.1689 351.303 43.1873 351.303 48.1441V65.4032V91.6374H249.633L273.634 65.4032L249.633 39.1689Z" fill="#B8C2C4"/>
<g filter="url(#filter1_d)">
<rect x="228.211" y="70.3387" width="195.311" height="283.965" rx="8.97514" fill="white"/>
<rect x="228.585" y="70.7129" width="194.563" height="283.216" rx="8.60096" stroke="#DAE2E3" stroke-width="0.748367"/>
</g>
<path d="M228.241 79.3135C228.241 74.3567 232.26 70.3384 237.217 70.3384H414.546C419.503 70.3384 423.522 74.3567 423.522 79.3135V116.887H228.241V79.3135Z" fill="#00D586"/>
<path d="M293.121 101.749V85.4059H295.808V101.749H293.121Z" fill="white"/>
<path d="M300.426 97.3618C300.803 98.8071 301.722 99.5911 303.04 99.5911C303.911 99.5911 304.712 99.2732 305.257 98.6852C305.375 98.5872 305.54 98.3171 305.799 97.9251L308.061 98.9051C307.401 100.081 307.19 100.326 306.529 100.89C305.531 101.69 304.305 102.121 303.044 102.114C300.004 102.114 297.672 99.5911 297.672 96.3085C297.672 93.0746 300.004 90.5266 302.95 90.5266C305.236 90.5266 307.168 92.0699 307.851 94.4219C308.046 95.1223 308.14 95.8488 308.131 96.5778C308.131 96.7491 308.131 96.9451 308.107 97.3618H300.426ZM305.445 95.2791C304.97 93.7359 304.172 93.0013 302.947 93.0013C301.675 93.0013 300.779 93.8339 300.426 95.2791H305.445Z" fill="white"/>
<path d="M317.627 101.75V101.064C316.66 101.824 315.906 102.117 314.823 102.117C311.759 102.117 309.332 99.5449 309.332 96.311C309.332 93.0993 311.759 90.5291 314.823 90.5291C315.906 90.5291 316.66 90.823 317.627 91.5823V90.8939H320.313V101.75H317.627ZM312.042 96.3143C312.042 98.2496 313.197 99.5968 314.87 99.5968C316.542 99.5968 317.674 98.2496 317.674 96.3143C317.674 94.3543 316.543 93.0556 314.823 93.0556C313.2 93.0498 312.042 94.3971 312.042 96.3085V96.3143Z" fill="white"/>
<path d="M333.131 96.1857C333.131 100.522 330.468 102.115 327.666 102.115C324.13 102.114 322.15 99.4436 322.15 96.2104C322.15 92.9032 324.368 90.5281 327.499 90.5281C329.407 90.5281 330.445 91.5814 330.445 91.5814V85.405H333.13L333.131 96.1857ZM324.861 96.3084C324.861 98.2437 325.969 99.591 327.688 99.591C329.479 99.591 330.422 98.1457 330.422 96.2145C330.422 94.3032 329.337 93.0539 327.735 93.0539C326.015 93.0498 324.861 94.3732 324.861 96.3084V96.3084Z" fill="white"/>
<path d="M338.625 87.1947C338.622 87.6592 338.441 88.1035 338.123 88.4296C337.805 88.7558 337.375 88.9372 336.928 88.9339C336.481 88.9307 336.054 88.743 335.74 88.4122C335.427 88.0814 335.252 87.6345 335.255 87.17C335.255 86.2394 336.009 85.4801 336.976 85.4801C337.411 85.4857 337.828 85.6681 338.136 85.9884C338.444 86.3088 338.619 86.7417 338.625 87.1947V87.1947ZM338.268 101.75H335.582V90.8939H338.268V101.75Z" fill="white"/>
<path d="M350.914 98.9915C349.576 99.5457 348.092 99.5862 346.729 99.1057C345.365 98.6253 344.21 97.6554 343.472 96.37C342.734 95.0846 342.461 93.5678 342.701 92.0917C342.941 90.6156 343.679 89.2768 344.783 88.3154C345.887 87.354 347.284 86.833 348.724 86.8457C350.163 86.8585 351.552 87.4042 352.64 88.385C353.727 89.3658 354.444 90.7175 354.66 92.1977C354.876 93.6778 354.577 95.1895 353.818 96.4617L355.599 98.3138C356.816 96.5443 357.363 94.3709 357.136 92.2088C356.908 90.0466 355.923 88.0473 354.368 86.5925C352.813 85.1378 350.797 84.3297 348.705 84.3224C346.613 84.3152 344.592 85.1094 343.028 86.5534C341.463 87.9974 340.465 89.9899 340.224 92.1504C339.983 94.3109 340.516 96.488 341.721 98.2659C342.926 100.044 344.719 101.298 346.757 101.788C348.795 102.279 350.935 101.972 352.769 100.926L350.914 98.9915Z" fill="white"/>
<path d="M355.664 98.2009C354.918 99.3208 353.934 100.248 352.789 100.909L355.827 104.068L358.545 101.196L355.664 98.2009Z" fill="white"/>
<path fill-rule="evenodd" clip-rule="evenodd" d="M316.835 158.141C315.501 158.141 314.418 159.223 314.418 160.558V171.468C314.418 172.803 315.501 173.885 316.835 173.885H322.536C323.871 173.885 324.953 172.803 324.953 171.468V160.558C324.953 159.223 323.871 158.141 322.536 158.141H316.835ZM319.686 172.047C320.357 172.047 320.901 171.503 320.901 170.831C320.901 170.16 320.357 169.616 319.686 169.616C319.015 169.616 318.47 170.16 318.47 170.831C318.47 171.503 319.015 172.047 319.686 172.047Z" fill="#00D586"/>
<path d="M302.054 160.305H291.134C290.739 160.305 290.36 160.462 290.081 160.741C289.802 161.02 289.645 161.399 289.645 161.794V170.232C289.645 170.627 289.802 171.006 290.081 171.285C290.36 171.564 290.739 171.721 291.134 171.721H302.054C302.449 171.721 302.827 171.564 303.107 171.285C303.386 171.006 303.543 170.627 303.543 170.232V161.794C303.543 161.399 303.386 161.02 303.107 160.741C302.827 160.462 302.449 160.305 302.054 160.305V160.305ZM301.941 164.418L297.984 166.795C297.565 167.046 297.086 167.179 296.598 167.179C296.11 167.179 295.63 167.046 295.212 166.795L291.251 164.413C291.166 164.363 291.092 164.297 291.033 164.218C290.974 164.139 290.931 164.05 290.906 163.954C290.882 163.859 290.877 163.76 290.891 163.663C290.905 163.565 290.939 163.472 290.99 163.387C291.04 163.303 291.107 163.229 291.186 163.171C291.265 163.113 291.355 163.071 291.451 163.047C291.547 163.024 291.646 163.02 291.743 163.035C291.84 163.05 291.934 163.084 292.017 163.136L295.974 165.516C296.161 165.629 296.375 165.689 296.594 165.689C296.812 165.689 297.026 165.629 297.213 165.516L301.174 163.14C301.258 163.088 301.351 163.054 301.448 163.039C301.546 163.024 301.645 163.028 301.741 163.051C301.836 163.075 301.926 163.117 302.005 163.175C302.085 163.233 302.151 163.307 302.202 163.391C302.253 163.476 302.286 163.569 302.3 163.666C302.315 163.764 302.309 163.863 302.285 163.958C302.261 164.054 302.218 164.143 302.159 164.222C302.1 164.301 302.025 164.367 301.941 164.417V164.418Z" fill="#00D586"/>
<circle cx="260.65" cy="150.236" r="19.837" fill="#FFF3D6"/>
<mask id="mask4" mask-type="alpha" maskUnits="userSpaceOnUse" x="240" y="130" width="41" height="41">
<circle cx="260.65" cy="150.236" r="19.837" fill="#FFF3D6"/>
</mask>
<g mask="url(#mask4)">
<rect x="228.211" y="129.22" width="55.5732" height="83.3179" fill="#00D586"/>
<path d="M246.327 170.945C246.327 167.095 247.856 163.403 250.579 160.681C253.301 157.959 256.993 156.429 260.843 156.429C264.693 156.429 268.385 157.959 271.107 160.681C273.83 163.403 275.359 167.095 275.359 170.945H246.327Z" fill="#0CAA7B"/>
<path d="M260.843 154.429C265.742 154.429 269.714 150.458 269.714 145.558C269.714 140.659 265.742 136.688 260.843 136.688C255.944 136.688 251.972 140.659 251.972 145.558C251.972 150.458 255.944 154.429 260.843 154.429Z" fill="#0CAA7B"/>
</g>
<rect opacity="0.8" x="289.645" y="135.579" width="103.348" height="6.90677" rx="3.45339" fill="#576F76"/>
<rect x="289.645" y="146.783" width="69.3405" height="6.90677" rx="3.45339" fill="#DAE2E3"/>
<path fill-rule="evenodd" clip-rule="evenodd" d="M316.835 239.115C315.501 239.115 314.418 240.197 314.418 241.532V252.442C314.418 253.777 315.501 254.859 316.835 254.859H322.536C323.871 254.859 324.953 253.777 324.953 252.442V241.532C324.953 240.197 323.871 239.115 322.536 239.115H316.835ZM319.686 253.021C320.357 253.021 320.901 252.477 320.901 251.805C320.901 251.134 320.357 250.59 319.686 250.59C319.015 250.59 318.47 251.134 318.47 251.805C318.47 252.477 319.015 253.021 319.686 253.021Z" fill="#00D586"/>
<path d="M302.054 241.279H291.134C290.739 241.279 290.36 241.436 290.081 241.715C289.802 241.994 289.645 242.373 289.645 242.768V251.206C289.645 251.601 289.802 251.98 290.081 252.259C290.36 252.538 290.739 252.695 291.134 252.695H302.054C302.449 252.695 302.827 252.538 303.107 252.259C303.386 251.98 303.543 251.601 303.543 251.206V242.768C303.543 242.373 303.386 241.994 303.107 241.715C302.827 241.436 302.449 241.279 302.054 241.279V241.279ZM301.941 245.392L297.984 247.769C297.565 248.021 297.086 248.154 296.598 248.154C296.11 248.154 295.63 248.021 295.212 247.769L291.251 245.387C291.166 245.337 291.092 245.271 291.033 245.192C290.974 245.114 290.931 245.024 290.906 244.929C290.882 244.833 290.877 244.734 290.891 244.637C290.905 244.54 290.939 244.446 290.99 244.362C291.04 244.277 291.107 244.204 291.186 244.145C291.265 244.087 291.355 244.045 291.451 244.022C291.547 243.998 291.646 243.994 291.743 244.009C291.84 244.024 291.934 244.059 292.017 244.11L295.974 246.491C296.161 246.604 296.375 246.664 296.594 246.664C296.812 246.664 297.026 246.604 297.213 246.491L301.174 244.114C301.258 244.063 301.351 244.028 301.448 244.013C301.546 243.998 301.645 244.002 301.741 244.026C301.836 244.049 301.926 244.091 302.005 244.149C302.085 244.208 302.151 244.281 302.202 244.366C302.253 244.45 302.286 244.543 302.3 244.641C302.315 244.738 302.309 244.837 302.285 244.933C302.261 245.028 302.218 245.118 302.159 245.196C302.1 245.275 302.025 245.341 301.941 245.391V245.392Z" fill="#00D586"/>
<circle cx="260.65" cy="233.722" r="19.837" fill="#FFF3D6"/>
<circle cx="260.65" cy="233.864" r="19.837" fill="#FFF3D6"/>
<mask id="mask5" mask-type="alpha" maskUnits="userSpaceOnUse" x="240" y="214" width="41" height="40">
<circle cx="260.65" cy="233.864" r="19.837" fill="#FFF3D6"/>
</mask>
<g mask="url(#mask5)">
<rect x="228.21" y="212.845" width="55.5732" height="83.3179" fill="#00D586"/>
<path d="M246.327 255.375C246.327 251.525 247.856 247.833 250.579 245.11C253.301 242.388 256.993 240.859 260.843 240.859C264.693 240.859 268.385 242.388 271.107 245.11C273.83 247.833 275.359 251.525 275.359 255.375H246.327Z" fill="#0CAA7B"/>
<path d="M260.843 238.859C265.742 238.859 269.714 234.887 269.714 229.988C269.714 225.089 265.742 221.117 260.843 221.117C255.944 221.117 251.972 225.089 251.972 229.988C251.972 234.887 255.944 238.859 260.843 238.859Z" fill="#0CAA7B"/>
</g>
<rect opacity="0.8" x="289.645" y="215.784" width="66.5121" height="6.90677" rx="3.45339" fill="#576F76"/>
<rect x="289.645" y="226.988" width="113.183" height="6.90677" rx="3.45339" fill="#DAE2E3"/>
<path d="M302.054 320.799H291.134C290.739 320.799 290.36 320.955 290.081 321.235C289.802 321.514 289.645 321.893 289.645 322.288V330.726C289.645 331.121 289.802 331.499 290.081 331.779C290.36 332.058 290.739 332.215 291.134 332.215H302.054C302.449 332.215 302.827 332.058 303.107 331.779C303.386 331.499 303.543 331.121 303.543 330.726V322.288C303.543 321.893 303.386 321.514 303.107 321.235C302.827 320.955 302.449 320.799 302.054 320.799V320.799ZM301.941 324.911L297.984 327.289C297.565 327.54 297.086 327.673 296.598 327.673C296.11 327.673 295.63 327.54 295.212 327.289L291.251 324.906C291.166 324.857 291.092 324.791 291.033 324.712C290.974 324.633 290.931 324.544 290.906 324.448C290.882 324.353 290.877 324.254 290.891 324.156C290.905 324.059 290.939 323.965 290.99 323.881C291.04 323.797 291.107 323.723 291.186 323.665C291.265 323.607 291.355 323.564 291.451 323.541C291.547 323.518 291.646 323.514 291.743 323.529C291.84 323.544 291.934 323.578 292.017 323.63L295.974 326.01C296.161 326.123 296.375 326.183 296.594 326.183C296.812 326.183 297.026 326.123 297.213 326.01L301.174 323.634C301.258 323.582 301.351 323.548 301.448 323.533C301.546 323.518 301.645 323.522 301.741 323.545C301.836 323.568 301.926 323.611 302.005 323.669C302.085 323.727 302.151 323.801 302.202 323.885C302.253 323.969 302.286 324.063 302.3 324.16C302.315 324.258 302.309 324.357 302.285 324.452C302.261 324.548 302.218 324.637 302.159 324.716C302.1 324.794 302.025 324.861 301.941 324.91V324.911Z" fill="#00D586"/>
<path fill-rule="evenodd" clip-rule="evenodd" d="M316.835 318.257C315.501 318.257 314.418 319.339 314.418 320.674V331.584C314.418 332.919 315.501 334.001 316.835 334.001H322.536C323.871 334.001 324.953 332.919 324.953 331.584V320.674C324.953 319.339 323.871 318.257 322.536 318.257H316.835ZM319.686 332.163C320.357 332.163 320.901 331.619 320.901 330.948C320.901 330.277 320.357 329.732 319.686 329.732C319.015 329.732 318.47 330.277 318.47 330.948C318.47 331.619 319.015 332.163 319.686 332.163Z" fill="#00D586"/>
<circle cx="260.65" cy="314.696" r="19.837" fill="#FFF3D6"/>
<mask id="mask6" mask-type="alpha" maskUnits="userSpaceOnUse" x="240" y="294" width="41" height="41">
<circle cx="260.65" cy="314.696" r="19.837" fill="#FFF3D6"/>
</mask>
<g mask="url(#mask6)">
<rect x="228.211" y="293.679" width="55.5732" height="83.3179" fill="#00D586"/>
<path d="M246.327 335.267C246.327 331.417 247.856 327.725 250.579 325.003C253.301 322.281 256.993 320.751 260.843 320.751C264.693 320.751 268.385 322.281 271.107 325.003C273.83 327.725 275.359 331.417 275.359 335.267H246.327Z" fill="#0CAA7B"/>
<path d="M260.843 318.751C265.742 318.751 269.714 314.78 269.714 309.88C269.714 304.981 265.742 301.01 260.843 301.01C255.944 301.01 251.972 304.981 251.972 309.88C251.972 314.78 255.944 318.751 260.843 318.751Z" fill="#0CAA7B"/>
</g>
<rect opacity="0.8" x="289.645" y="296.172" width="92.7567" height="6.90677" rx="3.45339" fill="#576F76"/>
<rect x="289.645" y="307.375" width="56.3896" height="6.90677" rx="3.45339" fill="#DAE2E3"/>
<line opacity="0.9" x1="241.375" y1="193.323" x2="410.754" y2="193.323" stroke="#DAE2E3" stroke-width="1.12255" stroke-linecap="round" stroke-linejoin="bevel"/>
<line opacity="0.9" x1="241.375" y1="274.297" x2="410.754" y2="274.297" stroke="#DAE2E3" stroke-width="1.12255" stroke-linecap="round" stroke-linejoin="bevel"/>
</g>
<defs>
<filter id="filter0_d" x="-2.89154" y="10.9276" width="404.942" height="444.762" filterUnits="userSpaceOnUse" color-interpolation-filters="sRGB">
<feFlood flood-opacity="0" result="BackgroundImageFix"/>
<feColorMatrix in="SourceAlpha" type="matrix" values="0 0 0 0 0 0 0 0 0 0 0 0 0 0 0 0 0 0 127 0"/>
<feOffset dy="22.5932"/>
<feGaussianBlur stdDeviation="25.4173"/>
<feColorMatrix type="matrix" values="0 0 0 0 0.0235294 0 0 0 0 0.235294 0 0 0 0 0.301961 0 0 0 0.04 0"/>
<feBlend mode="normal" in2="BackgroundImageFix" result="effect1_dropShadow"/>
<feBlend mode="normal" in="SourceGraphic" in2="effect1_dropShadow" result="shape"/>
</filter>
<filter id="filter1_d" x="187.799" y="47.8877" width="276.135" height="364.788" filterUnits="userSpaceOnUse" color-interpolation-filters="sRGB">
<feFlood flood-opacity="0" result="BackgroundImageFix"/>
<feColorMatrix in="SourceAlpha" type="matrix" values="0 0 0 0 0 0 0 0 0 0 0 0 0 0 0 0 0 0 127 0"/>
<feOffset dy="17.9608"/>
<feGaussianBlur stdDeviation="20.2059"/>
<feColorMatrix type="matrix" values="0 0 0 0 0.0235294 0 0 0 0 0.235294 0 0 0 0 0.301961 0 0 0 0.09 0"/>
<feBlend mode="normal" in2="BackgroundImageFix" result="effect1_dropShadow"/>
<feBlend mode="normal" in="SourceGraphic" in2="effect1_dropShadow" result="shape"/>
</filter>
</defs>
</svg>
