<svg id="Layer_1" data-name="Layer 1" xmlns="http://www.w3.org/2000/svg" viewBox="0 0 125 43"><defs><style>.cls-1{fill:#85959a;}</style></defs><g id="_0095d4ff" data-name=" 0095d4ff"><path class="cls-1" d="M76.93,1.23h36.22a11.82,11.82,0,0,1,11.17,12v12a11.83,11.83,0,0,1-10.31,11c-3,.23-6,.06-9.06.1-.74,0-1.6-.18-2.22.35-2.61,1.86-5.2,3.74-7.82,5.59h0c-2.55-1.79-5.07-3.61-7.59-5.44a2,2,0,0,0-1.09-.49c-3.11,0-6.23.06-9.34,0a11.77,11.77,0,0,1-10.26-7.17c-1.41-3.22-.83-6.8-1-10.2.11-3-.32-6.13.45-9.1A11.87,11.87,0,0,1,76.9,1.23m-.61,10.11a7.57,7.57,0,0,0-2.59,5.94v10.4h3.11c0-3.8-.06-7.6,0-11.4a3.68,3.68,0,0,1,4-3.26l.26,0A3.74,3.74,0,0,1,84.28,17V27.65a26.89,26.89,0,0,0,3.11,0v-11a3.72,3.72,0,0,1,7.44,0V27.73h3.08V17.36a7.88,7.88,0,0,0-1.68-5.09,6.81,6.81,0,0,0-9.62-.46,6.52,6.52,0,0,0-.8.86,6.91,6.91,0,0,0-9.55-1.28m28.22-.83a9,9,0,0,0-5.69,8.76,8.92,8.92,0,0,0,6.76,8.57,8.56,8.56,0,0,0,7.27-1.61,10.23,10.23,0,0,0,3.43-6.21,26.74,26.74,0,0,0-3.22-.41,6.67,6.67,0,0,1-2,4.13,5.31,5.31,0,0,1-6.9,0,6.5,6.5,0,0,1-.38-9.18,5.9,5.9,0,0,1,.57-.55,5.23,5.23,0,0,1,7.09.62c-2.79,1.59-5.61,3.16-8.42,4.72.42.79.86,1.58,1.32,2.36,3.8-2.1,7.61-4.17,11.36-6.35a12.55,12.55,0,0,0-2.17-3,8.52,8.52,0,0,0-8.91-1.9Z"/></g><path class="cls-1" d="M45.22,2.69h3.11V28.1H45.22Z"/><path class="cls-1" d="M50.42,2.69h3.14V17c1.36,0,3,.12,4-1C59,14.45,59.84,12.47,61,10.75a32.24,32.24,0,0,1,3.68-.09c-1.63,2.35-2.69,5.23-5,7a4.61,4.61,0,0,1,3.79,3.27c.56,2.33.18,4.77.29,7.14H60.63c-.05-1.87.12-3.76-.11-5.62a2.69,2.69,0,0,0-2.27-2.32c-1.56-.18-3.14-.05-4.7-.08v8H50.42Z"/><path class="cls-1" d="M31.84,10.79a9.13,9.13,0,0,1,7.68,1,8.51,8.51,0,0,1,3.85,6.84c.14,3.17.05,6.33.07,9.5H40.29V19.29A6.31,6.31,0,0,0,38.69,15a5.52,5.52,0,0,0-7.76-.08c-2.68,2.72-2.17,8,1.28,9.9a6.57,6.57,0,0,0,7.08-.94v3.39a9.48,9.48,0,0,1-6.56,1,8.63,8.63,0,0,1-5.92-5A10.31,10.31,0,0,1,26.34,17,8.48,8.48,0,0,1,31.84,10.79Z"/><path class="cls-1" d="M.94,10.69H4V21a4.7,4.7,0,0,0,.84,3,3.78,3.78,0,0,0,5.32.53,4,4,0,0,0,.37-.35,4.22,4.22,0,0,0,1-2.89V10.7h3.07V21a4.78,4.78,0,0,0,.88,3.13,3.78,3.78,0,0,0,5.32.41c.12-.11.23-.22.34-.34a4.63,4.63,0,0,0,1-3.22V10.69h3.09V20.85a8,8,0,0,1-2.18,5.84,6.87,6.87,0,0,1-9.7-.54l-.3-.36A6.92,6.92,0,0,1,3.72,27.2,7.44,7.44,0,0,1,.93,21.7v-11Z"/></svg>