<svg id="Layer_1" data-name="Layer 1" xmlns="http://www.w3.org/2000/svg" viewBox="0 0 135.67 43"><defs><style>.cls-1{fill:#85959a;}</style></defs><path class="cls-1" d="M83,13.13l-3.26,2.45-.12-.19a8.31,8.31,0,0,0-7-3.63c-5.12,0-8.87,3.73-8.87,9.15s3.75,9.15,8.87,9.15a8.23,8.23,0,0,0,7-3.61l.14-.2L83,28.7l-.12.17A12.14,12.14,0,0,1,72.62,34c-7.69,0-13.11-5.53-13.11-13s5.42-13,13.11-13C77.07,7.86,81,9.86,83,13.13Z"/><path class="cls-1" d="M88.5,33.49H84.74V7.62H88.5Z"/><path class="cls-1" d="M110.42,33.49h-3.74V31.43a6.5,6.5,0,0,1-5.38,2.51c-4.79,0-8.57-3.79-8.57-9s3.78-9.06,8.57-9.06a6.51,6.51,0,0,1,5.38,2.53V16.28h3.74ZM96.58,24.88c0,3,2,5.52,5.17,5.52s5.16-2.37,5.16-5.52-2.07-5.51-5.16-5.51S96.58,21.86,96.58,24.88Z"/><path class="cls-1" d="M126.21,16.31l-.9,3.72a6.66,6.66,0,0,0-2.84-.63c-2.38,0-4.08,1.69-4.08,4.62v9.47h-3.73V16.28h3.7v1.94a5.68,5.68,0,0,1,5-2.39A7.5,7.5,0,0,1,126.21,16.31Z"/><path class="cls-1" d="M132.87,10.33a2.63,2.63,0,1,1-2.64-2.66A2.62,2.62,0,0,1,132.87,10.33Zm-.75,23.16h-3.75V16.28h3.75Z"/><path class="cls-1" d="M46.42,8.81l-14,3.8a38.91,38.91,0,0,1,.86,8.3,39.66,39.66,0,0,1-.86,8.31l14,3.8a53.48,53.48,0,0,0,1.36-12.1A53.57,53.57,0,0,0,46.42,8.81Z"/><path class="cls-1" d="M11.08,4.9l-9.21,16L16.44,10A16.67,16.67,0,0,0,11.08,4.9Z"/><path class="cls-1" d="M11.08,36.93l-9.21-16L16.44,31.84A16.59,16.59,0,0,1,11.08,36.93Z"/><path class="cls-1" d="M27.86,1.41l-26,19.5,30.59-8.3A33,33,0,0,0,27.86,1.41Z"/><path class="cls-1" d="M27.86,40.41l-26-19.5,30.59,8.31A32.91,32.91,0,0,1,27.86,40.41Z"/></svg>