<svg width="143" height="43" viewBox="0 0 143 43" fill="none" xmlns="http://www.w3.org/2000/svg">
<path d="M21.6118 40.773C17.7995 40.7749 14.0723 39.6462 10.9015 37.5297C7.73073 35.4132 5.25875 32.4041 3.79817 28.8827C2.3376 25.3613 1.95403 21.4859 2.69598 17.7466C3.43792 14.0072 5.27206 10.5718 7.96644 7.87485C10.6608 5.17788 14.0945 3.34046 17.8331 2.59494C21.5718 1.84941 25.4475 2.22927 28.9703 3.68647C32.4931 5.14368 35.5046 7.61278 37.6241 10.7815C39.7436 13.9503 40.8758 17.6764 40.8777 21.4887C40.8801 24.0203 40.3836 26.5275 39.4164 28.8671C38.4493 31.2067 37.0306 33.3327 35.2413 35.1237C33.4521 36.9146 31.3274 38.3354 28.9888 39.3047C26.6501 40.2741 24.1434 40.773 21.6118 40.773V40.773ZM21.6118 0.34137C17.4573 0.354131 13.3997 1.59728 9.95103 3.91391C6.50239 6.23055 3.81729 9.51684 2.23459 13.3581C0.651883 17.1993 0.242519 21.4233 1.05816 25.4969C1.87379 29.5706 3.87788 33.3113 6.81748 36.2471C9.75709 39.1828 13.5005 41.182 17.5752 41.9923C21.6499 42.8026 25.8733 42.3877 29.7125 40.7999C33.5516 39.2122 36.8344 36.5228 39.1465 33.0711C41.4586 29.6194 42.6964 25.5602 42.7037 21.4057C42.6842 15.8205 40.4512 10.4709 36.494 6.52929C32.5369 2.58773 27.1785 0.375778 21.5933 0.378254L21.6118 0.34137Z" fill="#85959A"/>
<path d="M16.2442 30.8587C14.6089 30.0517 13.2358 28.7977 12.2842 27.2421C11.3325 25.6865 10.8413 23.8931 10.8674 22.0696C10.8563 20.0995 11.4379 18.1715 12.5367 16.5361L19.4536 26.9391H23.6591L30.5945 16.5822C31.6788 18.2239 32.2562 20.1483 32.2545 22.1158C32.2598 23.8135 31.8209 25.483 30.9812 26.9585C30.1415 28.4341 28.9303 29.6642 27.468 30.5267L28.7961 35.6545C31.3132 34.3657 33.4383 32.425 34.9495 30.0347C36.4607 27.6445 37.3026 24.8925 37.3874 22.0659C37.4722 19.2393 36.7968 16.4418 35.4316 13.9653C34.0664 11.4888 32.0615 9.42413 29.6261 7.9868L21.5933 20.4834L13.6342 7.95914C11.1433 9.41234 9.09762 11.5196 7.719 14.0526C6.34038 16.5856 5.68138 19.4476 5.81345 22.3285C5.94552 25.2093 6.86362 27.999 8.46821 30.3952C10.0728 32.7914 12.3027 34.7027 14.9161 35.9219L16.2719 30.8587H16.2442Z" fill="#85959A"/>
<path d="M58.6494 23.6098L53.4664 12.5428H50.7642V30.3146H53.4664V18.436L57.6534 27.1052H59.6731L63.7311 18.436V30.3146H66.4425V12.5428H63.7311L58.6494 23.6098Z" fill="#85959A"/>
<path d="M76.5596 25.3713C76.604 25.7349 76.5688 26.1038 76.4565 26.4525C76.3442 26.8011 76.1575 27.1212 75.9092 27.3905C75.661 27.6598 75.3571 27.8719 75.0188 28.0122C74.6804 28.1524 74.3156 28.2174 73.9496 28.2027C72.5201 28.2027 71.4042 27.345 71.4042 25.3713V17.6521H68.8587V25.7495C68.8104 26.4038 68.8994 27.061 69.1202 27.6789C69.341 28.2967 69.6886 28.8615 70.1407 29.337C70.9935 30.1057 72.1103 30.5154 73.2579 30.4806C73.8889 30.4897 74.5149 30.3672 75.0961 30.1211C75.6772 29.875 76.2007 29.5106 76.6334 29.0511V30.3331H79.1142V17.7166H76.5688V25.4082L76.5596 25.3713Z" fill="#85959A"/>
<path d="M84.0852 26.681V12.5428H81.549V26.8193C81.5071 27.2864 81.5678 27.7571 81.7269 28.1983C81.886 28.6395 82.1395 29.0406 82.4698 29.3735C82.8001 29.7065 83.1992 29.9632 83.6392 30.1258C84.0791 30.2883 84.5492 30.3528 85.0167 30.3146H86.5845V28.1566H85.4686C84.4449 28.1566 84.0852 27.6493 84.0852 26.681V26.681Z" fill="#85959A"/>
<path d="M89.8862 22.9458C89.8622 22.359 89.9759 21.7747 90.2183 21.2397C90.4291 20.7516 90.7821 20.3384 91.2312 20.0538C91.6803 19.7692 92.2046 19.6265 92.736 19.6442C93.264 19.6257 93.7851 19.7685 94.2299 20.0535C94.6747 20.3386 95.0222 20.7523 95.2261 21.2397C95.4652 21.7766 95.5878 22.3581 95.5858 22.9458H89.8862ZM92.7083 17.5138C89.4805 17.5138 87.3408 19.884 87.3408 23.9695C87.3408 28.7929 89.8586 30.4253 93.0404 30.4253C93.9263 30.4778 94.8125 30.3282 95.6321 29.9879C96.4517 29.6476 97.1833 29.1254 97.7715 28.4609L96.1299 26.9392C95.7525 27.3751 95.2803 27.7188 94.7497 27.9442C94.219 28.1696 93.6438 28.2706 93.068 28.2396C91.0022 28.2396 89.8401 26.8931 89.8401 24.7074H98.0574V23.6191C98.0574 20.0315 96.1115 17.5138 92.7083 17.5138V17.5138Z" fill="#85959A"/>
<path d="M110.646 21.5993C109.696 20.8297 108.536 20.3638 107.317 20.2621L105.306 19.9577C104.579 19.8707 103.888 19.5905 103.305 19.1461C103.08 18.9345 102.904 18.6762 102.79 18.3895C102.675 18.1028 102.624 17.7944 102.641 17.4861C102.641 15.9182 103.785 14.7193 105.869 14.7193C106.572 14.6769 107.276 14.7741 107.94 15.0052C108.605 15.2363 109.218 15.5968 109.742 16.0658L111.458 14.3873C110.721 13.6932 109.85 13.1562 108.899 12.809C107.947 12.4618 106.935 12.3116 105.924 12.3676C102.235 12.3676 99.985 14.4795 99.985 17.5875C99.9515 18.215 100.051 18.8425 100.276 19.4289C100.502 20.0154 100.849 20.5475 101.295 20.9907C102.247 21.8004 103.425 22.2964 104.67 22.4109L106.754 22.7245C107.473 22.7352 108.163 23.0036 108.7 23.4807C108.946 23.7185 109.137 24.0063 109.261 24.3246C109.385 24.6429 109.439 24.9842 109.42 25.3252C109.42 27.0314 108.064 28.0367 105.731 28.0367C104.898 28.0915 104.063 27.9695 103.281 27.6786C102.499 27.3877 101.788 26.9346 101.193 26.349L99.3486 28.1012C101.036 29.8166 102.964 30.453 105.648 30.453C109.337 30.453 112.039 28.507 112.039 25.233C112.063 24.5576 111.944 23.8847 111.689 23.2584C111.435 22.6322 111.051 22.0668 110.563 21.5993H110.646Z" fill="#85959A"/>
<path d="M120.699 27.4648C120.205 27.9443 119.542 28.2095 118.854 28.2026C118.513 28.2091 118.174 28.1471 117.857 28.0204C117.541 27.8937 117.252 27.7048 117.01 27.4648C116.226 26.6994 116.134 25.3713 116.134 23.9971C116.134 22.623 116.226 21.3134 117.01 20.5295C117.52 20.0629 118.186 19.8041 118.877 19.8041C119.569 19.8041 120.235 20.0629 120.745 20.5295C121.501 21.2857 121.621 22.6138 121.621 23.9971C121.621 25.3805 121.501 26.6809 120.745 27.4648H120.699ZM118.854 17.5137C118.157 17.4898 117.462 17.6101 116.813 17.8672C116.163 18.1243 115.574 18.5126 115.082 19.0078C113.893 20.262 113.579 21.8575 113.579 23.9695C113.579 26.0814 113.893 27.7231 115.082 28.9589C115.571 29.4587 116.159 29.85 116.809 30.1074C117.459 30.3648 118.156 30.4826 118.854 30.4529C119.556 30.4779 120.256 30.3582 120.91 30.1012C121.563 29.8441 122.157 29.4553 122.654 28.9589C123.844 27.7046 124.157 26.1091 124.157 23.9695C124.157 21.8298 123.844 20.2805 122.654 19.0078C122.153 18.5166 121.559 18.1312 120.906 17.8746C120.253 17.6179 119.556 17.4952 118.854 17.5137V17.5137Z" fill="#85959A"/>
<path d="M126.684 15.9459V17.8919H125.227V19.8378H126.675V30.3146H129.211V19.8378H131.729V17.8919H129.211V16.0474C129.182 15.8537 129.197 15.6559 129.257 15.4691C129.316 15.2823 129.417 15.1116 129.552 14.97C129.687 14.8284 129.853 14.7197 130.037 14.6523C130.221 14.5848 130.418 14.5605 130.613 14.581H131.729V12.4044H130.143C129.675 12.3826 129.208 12.4598 128.773 12.631C128.337 12.8023 127.943 13.0637 127.615 13.3981C127.288 13.7325 127.035 14.1324 126.873 14.5715C126.711 15.0106 126.643 15.479 126.675 15.9459H126.684Z" fill="#85959A"/>
<path d="M137.327 14.0276H134.782V17.8734H133.334V19.8378H134.782V26.8008C134.748 27.2669 134.814 27.7349 134.976 28.1733C135.138 28.6118 135.391 29.0106 135.72 29.3433C136.048 29.6759 136.443 29.9346 136.88 30.1021C137.316 30.2696 137.783 30.3421 138.249 30.3146H139.771V28.1565H138.729C138.534 28.1755 138.337 28.1497 138.153 28.0811C137.969 28.0125 137.803 27.903 137.668 27.7607C137.533 27.6185 137.432 27.4473 137.373 27.2602C137.314 27.0731 137.298 26.875 137.327 26.6809V19.8378H139.771V17.8918H137.327V14.0276Z" fill="#85959A"/>
<path d="M142.695 17.0065C142.655 17.1489 142.571 17.275 142.455 17.3662C142.351 17.4677 142.229 17.549 142.095 17.6059C141.956 17.6769 141.799 17.7088 141.643 17.6982C141.49 17.7046 141.338 17.6729 141.201 17.6059C141.069 17.5458 140.947 17.4648 140.841 17.3662C140.739 17.2622 140.658 17.1402 140.601 17.0065C140.546 16.8555 140.515 16.6968 140.509 16.5361C140.501 16.3801 140.533 16.2246 140.601 16.0842C140.645 15.944 140.728 15.8192 140.841 15.7245C140.945 15.6258 141.067 15.5475 141.201 15.494C141.337 15.4238 141.489 15.3889 141.643 15.3925C141.8 15.3874 141.956 15.4223 142.095 15.494C142.225 15.5544 142.346 15.6319 142.455 15.7245C142.558 15.8269 142.64 15.9493 142.695 16.0842C142.747 16.2295 142.778 16.3818 142.787 16.5361C142.775 16.696 142.744 16.8539 142.695 17.0065V17.0065ZM142.907 16.0104C142.839 15.8454 142.731 15.6998 142.593 15.5862C142.473 15.4632 142.328 15.3659 142.169 15.3003C142.002 15.2316 141.823 15.2002 141.643 15.2081C141.468 15.2147 141.294 15.2457 141.127 15.3003C140.963 15.3723 140.81 15.4687 140.675 15.5862C140.554 15.7146 140.448 15.857 140.361 16.0104C140.297 16.1781 140.266 16.3566 140.269 16.5361C140.275 16.7208 140.306 16.9039 140.361 17.0803C140.429 17.248 140.537 17.3968 140.675 17.5137C140.803 17.638 140.958 17.7325 141.127 17.7904C141.29 17.8612 141.466 17.8958 141.643 17.8918C141.823 17.8875 142.001 17.8532 142.169 17.7904C142.328 17.728 142.472 17.6338 142.593 17.5137C142.717 17.3844 142.823 17.2385 142.907 17.0803C142.975 16.9073 143.007 16.722 142.999 16.5361C143.007 16.3563 142.975 16.1769 142.907 16.0104Z" fill="#85959A"/>
<path d="M141.625 16.4624H141.367V15.9644H141.699C141.734 15.9517 141.773 15.9517 141.809 15.9644C141.853 15.9656 141.896 15.9819 141.929 16.0105C141.984 16.0105 142.003 16.0105 142.003 16.0843C142.003 16.158 142.003 16.1488 142.003 16.1949C142.004 16.2478 141.987 16.2994 141.957 16.3425C141.957 16.3425 141.901 16.4163 141.855 16.4163C141.816 16.425 141.775 16.425 141.735 16.4163L141.625 16.4624ZM142.169 16.5362C142.21 16.4955 142.242 16.4464 142.263 16.3923C142.283 16.3383 142.292 16.2804 142.289 16.2226C142.295 16.1601 142.286 16.097 142.262 16.0391C142.238 15.9811 142.199 15.9301 142.15 15.8906C142.02 15.8124 141.869 15.7739 141.717 15.7799H141.099V17.3662H141.339V16.6745H141.597L142.031 17.3662H142.289L141.837 16.656C141.958 16.6527 142.074 16.6107 142.169 16.5362V16.5362Z" fill="#85959A"/>
</svg>
