<svg width="680" height="674" viewBox="0 0 680 674" fill="none" xmlns="http://www.w3.org/2000/svg">
<g clip-path="url(#clip0)">
<path d="M210.469 496.95C230.614 513.845 254.018 527.084 279.594 535.482" stroke="#F5F7FA" stroke-width="2"/>
<path d="M446.484 151.152C416.463 134.751 381.901 125.464 345.165 125.464C318.602 125.464 293.124 130.305 269.72 139.197" stroke="#F5F7FA" stroke-width="2"/>
<path d="M397.108 89.501C380.221 85.8454 362.644 83.9684 344.671 83.9684C274.361 83.9684 210.667 113.114 165.045 160.044" stroke="#F5F7FA" stroke-width="2"/>
<path d="M281.57 227.228C244.342 249.161 219.358 289.57 219.358 335.907C219.358 361.496 226.962 385.208 240.095 405.066M450.729 404.079C463.566 384.318 471.071 360.805 471.071 335.413C471.17 265.858 414.586 209.443 344.868 209.443C341.116 209.443 337.462 209.641 333.906 209.938" stroke="#EDF1F5" stroke-width="3"/>
<path d="M370.052 255.781C362.052 253.311 353.56 251.928 344.771 251.928C298.457 251.928 260.833 289.57 260.833 335.907C260.833 382.244 298.457 419.886 344.771 419.886C391.085 419.886 428.709 382.244 428.709 335.907C428.709 318.123 423.179 301.624 413.798 288.088" stroke="#EDF1F5" stroke-width="3"/>
<path d="M439.571 196.6C412.612 178.52 380.123 167.948 345.067 167.948C310.208 167.948 277.719 178.42 250.859 196.402" stroke="#EDF1F5" stroke-width="2"/>
<path d="M212.445 233.155C190.127 261.61 176.895 297.375 176.895 336.302C176.895 354.481 179.758 371.968 185.19 388.27M250.957 474.226C277.817 492.307 310.405 502.878 345.362 502.878C380.32 502.878 412.711 492.307 439.571 474.325M280.582 435.694C299.049 447.55 321.366 454.466 345.363 454.466C369.359 454.466 391.578 447.551 409.946 435.794" stroke="#EDF1F5" stroke-width="3"/>
<path d="M506.327 384.318C511.067 368.906 513.535 352.505 513.535 335.512C513.535 296.091 499.908 259.831 476.997 231.18" stroke="#EDF1F5" stroke-width="3"/>
<path d="M142.036 283.544C137.69 300.339 135.419 317.926 135.419 336.006C135.419 387.579 153.984 434.707 184.794 471.262M414.883 534.494C496.55 505.645 555.109 427.79 555.109 336.203C555.109 265.562 520.25 203.12 466.925 164.984M248.983 149.176C205.039 171.999 170.18 209.839 151.219 255.88" stroke="#F5F7FA" stroke-width="3"/>
<path d="M145.788 180.792C112.609 223.374 92.8588 276.923 92.8588 335.116C92.8588 474.128 205.631 586.858 344.771 586.858C418.241 586.858 484.305 555.439 530.323 505.348" stroke="#F5F7FA" stroke-width="3"/>
<path d="M548.987 483.118C578.909 441.721 596.487 390.74 596.487 335.808C596.487 225.745 525.979 132.182 427.623 97.7999" stroke="#F5F7FA" stroke-width="3"/>
<path d="M344.277 631.317C506.524 631.317 638.059 499.716 638.059 337.389C638.059 175.061 506.524 43.4601 344.277 43.4601C182.03 43.4601 50.4939 175.061 50.4939 337.389C50.4939 499.716 182.03 631.317 344.277 631.317V631.317Z" stroke="#FAFAFA" stroke-width="3"/>
<path d="M343.783 672.813C529.236 672.813 679.534 522.44 679.534 336.895C679.534 151.35 529.236 0.976501 343.783 0.976501C158.33 0.976501 8.03125 151.35 8.03125 336.895C8.03125 522.44 158.33 672.813 343.783 672.813Z" stroke="#FAFAFA" stroke-width="3"/>
<mask id="path-14-outside-1" maskUnits="userSpaceOnUse" x="133.406" y="75.1393" width="424" height="440" fill="black">
<rect fill="white" x="133.406" y="75.1393" width="424" height="440"/>
<path d="M249.18 201.638C249.647 201.64 250.111 201.549 250.543 201.371C250.975 201.193 251.367 200.931 251.698 200.601C252.028 200.27 252.29 199.877 252.468 199.445C252.646 199.013 252.737 198.549 252.735 198.082C252.737 197.614 252.646 197.151 252.468 196.718C252.29 196.286 252.028 195.893 251.698 195.562C251.367 195.232 250.975 194.97 250.543 194.792C250.111 194.614 249.647 194.523 249.18 194.525C248.713 194.523 248.25 194.614 247.817 194.792C247.385 194.97 246.993 195.232 246.662 195.562C246.332 195.893 246.07 196.286 245.892 196.718C245.714 197.151 245.623 197.614 245.625 198.082C245.623 198.549 245.714 199.013 245.892 199.445C246.07 199.877 246.332 200.27 246.662 200.601C246.993 200.931 247.385 201.193 247.817 201.371C248.25 201.549 248.713 201.64 249.18 201.638ZM438.879 202.923C439.347 202.925 439.81 202.834 440.242 202.656C440.674 202.478 441.067 202.216 441.397 201.885C441.728 201.555 441.99 201.162 442.168 200.729C442.346 200.297 442.436 199.833 442.435 199.366C442.437 198.898 442.346 198.435 442.168 198.002C441.99 197.57 441.728 197.177 441.398 196.846C441.067 196.516 440.674 196.254 440.242 196.076C439.81 195.898 439.347 195.807 438.879 195.809C438.412 195.807 437.949 195.898 437.516 196.076C437.084 196.254 436.692 196.516 436.361 196.847C436.031 197.177 435.769 197.57 435.591 198.002C435.413 198.435 435.322 198.898 435.324 199.366C435.226 201.243 436.904 202.923 438.879 202.923ZM250.365 478.969C250.832 478.971 251.295 478.88 251.727 478.702C252.16 478.524 252.552 478.262 252.883 477.931C253.213 477.601 253.475 477.208 253.653 476.775C253.831 476.343 253.921 475.879 253.919 475.412C253.921 474.944 253.831 474.481 253.653 474.048C253.475 473.616 253.213 473.223 252.882 472.893C252.552 472.562 252.159 472.3 251.727 472.122C251.295 471.944 250.832 471.853 250.365 471.855C249.897 471.853 249.434 471.944 249.002 472.122C248.57 472.3 248.177 472.562 247.847 472.893C247.516 473.223 247.254 473.616 247.076 474.048C246.898 474.481 246.808 474.944 246.81 475.412C246.81 477.388 248.389 478.969 250.365 478.969ZM210.767 501.791C212.742 501.791 214.322 500.21 214.322 498.235C214.324 497.767 214.233 497.304 214.055 496.871C213.877 496.439 213.615 496.046 213.285 495.715C212.954 495.385 212.562 495.123 212.129 494.945C211.697 494.766 211.234 494.676 210.767 494.677C210.299 494.676 209.836 494.766 209.404 494.944C208.972 495.122 208.579 495.384 208.248 495.715C207.918 496.046 207.656 496.439 207.478 496.871C207.3 497.304 207.21 497.767 207.212 498.235C207.21 498.702 207.3 499.166 207.478 499.598C207.656 500.03 207.918 500.423 208.249 500.754C208.579 501.085 208.972 501.347 209.404 501.525C209.836 501.703 210.299 501.793 210.767 501.791ZM446.087 156.092C446.554 156.094 447.018 156.003 447.45 155.825C447.882 155.647 448.275 155.385 448.605 155.054C448.935 154.724 449.197 154.331 449.375 153.899C449.553 153.466 449.644 153.003 449.642 152.535C449.642 150.559 448.062 148.978 446.087 148.978C445.62 148.976 445.156 149.067 444.724 149.245C444.292 149.423 443.899 149.685 443.569 150.016C443.238 150.346 442.976 150.739 442.798 151.172C442.62 151.604 442.53 152.068 442.532 152.535C442.433 154.412 444.013 156.092 446.087 156.092ZM466.431 168.046C466.898 168.048 467.361 167.958 467.794 167.78C468.226 167.602 468.618 167.34 468.949 167.009C469.279 166.678 469.541 166.285 469.719 165.853C469.897 165.421 469.988 164.957 469.986 164.49C469.988 164.022 469.897 163.559 469.719 163.126C469.541 162.694 469.279 162.301 468.949 161.971C468.618 161.64 468.226 161.378 467.794 161.2C467.361 161.022 466.898 160.931 466.431 160.933C465.964 160.931 465.5 161.022 465.068 161.2C464.636 161.378 464.243 161.64 463.913 161.971C463.582 162.301 463.321 162.694 463.143 163.126C462.965 163.559 462.874 164.022 462.876 164.49C462.874 164.957 462.965 165.421 463.143 165.853C463.321 166.285 463.582 166.678 463.913 167.009C464.243 167.34 464.636 167.602 465.068 167.78C465.5 167.958 465.964 168.048 466.431 168.046ZM245.625 152.436C247.6 152.436 249.18 150.856 249.18 148.88C249.182 148.412 249.091 147.949 248.913 147.516C248.735 147.084 248.473 146.691 248.143 146.36C247.812 146.029 247.42 145.767 246.987 145.589C246.555 145.411 246.092 145.321 245.625 145.322C245.157 145.32 244.694 145.411 244.262 145.589C243.829 145.767 243.437 146.029 243.106 146.36C242.776 146.691 242.514 147.084 242.336 147.516C242.158 147.949 242.068 148.412 242.07 148.88C241.971 150.856 243.649 152.436 245.625 152.436ZM279.2 230.488C281.175 230.488 282.755 228.907 282.755 226.931C282.757 226.463 282.667 226 282.489 225.568C282.311 225.135 282.049 224.742 281.718 224.412C281.388 224.081 280.995 223.819 280.563 223.641C280.13 223.463 279.667 223.373 279.2 223.375C278.732 223.373 278.269 223.463 277.837 223.641C277.405 223.819 277.012 224.081 276.682 224.412C276.351 224.743 276.089 225.135 275.912 225.568C275.734 226 275.643 226.464 275.645 226.931C275.643 227.399 275.734 227.862 275.912 228.294C276.089 228.727 276.351 229.12 276.682 229.45C277.012 229.781 277.405 230.043 277.837 230.221C278.269 230.399 278.732 230.49 279.2 230.488ZM176.006 338.574C176.473 338.576 176.936 338.486 177.368 338.308C177.8 338.13 178.193 337.868 178.523 337.537C178.854 337.206 179.116 336.814 179.294 336.381C179.472 335.949 179.562 335.486 179.56 335.018C179.56 333.042 177.981 331.461 176.006 331.461C175.538 331.459 175.075 331.549 174.643 331.727C174.21 331.906 173.818 332.168 173.487 332.498C173.157 332.829 172.895 333.222 172.717 333.654C172.539 334.087 172.449 334.55 172.451 335.018C172.449 335.486 172.539 335.949 172.717 336.381C172.895 336.814 173.157 337.206 173.488 337.537C173.818 337.868 174.211 338.13 174.643 338.308C175.075 338.486 175.538 338.576 176.006 338.574ZM139.962 290.558C140.429 290.559 140.892 290.469 141.324 290.291C141.756 290.113 142.149 289.851 142.48 289.52C142.81 289.19 143.072 288.797 143.25 288.364C143.428 287.932 143.518 287.469 143.516 287.001C143.518 286.533 143.428 286.07 143.25 285.638C143.072 285.205 142.81 284.812 142.48 284.482C142.149 284.151 141.756 283.889 141.324 283.711C140.892 283.533 140.429 283.442 139.962 283.444C139.494 283.442 139.031 283.533 138.599 283.711C138.167 283.889 137.774 284.151 137.443 284.482C137.113 284.812 136.851 285.205 136.673 285.637C136.495 286.07 136.404 286.533 136.406 287.001C136.406 288.878 137.987 290.558 139.962 290.558ZM150.725 258.152C151.193 258.154 151.656 258.063 152.088 257.885C152.52 257.707 152.913 257.445 153.243 257.115C153.574 256.784 153.836 256.391 154.013 255.958C154.191 255.526 154.282 255.063 154.28 254.595C154.282 254.127 154.191 253.664 154.013 253.232C153.835 252.799 153.574 252.406 153.243 252.076C152.913 251.745 152.52 251.483 152.088 251.305C151.656 251.127 151.192 251.036 150.725 251.038C150.258 251.036 149.795 251.127 149.362 251.305C148.93 251.483 148.538 251.745 148.207 252.076C147.877 252.406 147.615 252.799 147.437 253.232C147.259 253.664 147.168 254.127 147.17 254.595C147.17 256.473 148.75 258.152 150.725 258.152ZM144.801 186.127C145.268 186.129 145.731 186.038 146.163 185.86C146.596 185.682 146.988 185.42 147.319 185.089C147.649 184.759 147.911 184.366 148.089 183.933C148.267 183.501 148.357 183.037 148.355 182.57C148.357 182.102 148.267 181.639 148.089 181.206C147.911 180.774 147.649 180.381 147.319 180.051C146.988 179.72 146.595 179.458 146.163 179.28C145.731 179.102 145.268 179.011 144.801 179.013C144.333 179.011 143.87 179.102 143.438 179.28C143.006 179.458 142.613 179.72 142.283 180.051C141.952 180.381 141.69 180.774 141.512 181.206C141.335 181.639 141.244 182.102 141.246 182.57C141.246 184.546 142.727 186.127 144.801 186.127ZM368.076 260.523C368.543 260.525 369.006 260.434 369.438 260.256C369.87 260.078 370.263 259.816 370.594 259.486C370.924 259.155 371.186 258.762 371.364 258.33C371.542 257.897 371.632 257.434 371.63 256.966C371.63 254.99 370.051 253.409 368.076 253.409C367.608 253.407 367.145 253.498 366.713 253.676C366.281 253.854 365.888 254.116 365.557 254.447C365.227 254.777 364.965 255.17 364.787 255.603C364.609 256.035 364.519 256.499 364.521 256.966C364.521 258.942 366.002 260.523 368.076 260.523ZM413.599 294.115C414.067 294.117 414.53 294.026 414.962 293.848C415.394 293.67 415.787 293.408 416.118 293.077C416.448 292.746 416.71 292.354 416.888 291.921C417.066 291.489 417.156 291.025 417.154 290.558C417.156 290.09 417.066 289.627 416.888 289.194C416.71 288.762 416.448 288.369 416.117 288.038C415.787 287.708 415.394 287.446 414.962 287.268C414.53 287.09 414.067 286.999 413.599 287.001C413.132 286.999 412.669 287.09 412.237 287.268C411.804 287.446 411.412 287.707 411.081 288.038C410.75 288.369 410.489 288.762 410.311 289.194C410.133 289.626 410.042 290.09 410.044 290.558C410.042 291.025 410.133 291.489 410.311 291.921C410.489 292.353 410.751 292.746 411.081 293.077C411.412 293.408 411.804 293.67 412.237 293.848C412.669 294.026 413.132 294.117 413.599 294.115ZM470.085 339.76C472.06 339.76 473.641 338.18 473.641 336.204C473.643 335.736 473.552 335.273 473.374 334.84C473.196 334.408 472.934 334.015 472.604 333.684C472.273 333.353 471.88 333.092 471.448 332.913C471.016 332.735 470.553 332.645 470.085 332.646C469.618 332.644 469.155 332.735 468.723 332.913C468.29 333.091 467.898 333.353 467.567 333.684C467.237 334.015 466.975 334.408 466.797 334.84C466.619 335.273 466.529 335.736 466.531 336.204C466.432 338.081 468.11 339.76 470.085 339.76ZM530.026 511.374C530.494 511.376 530.957 511.286 531.389 511.108C531.821 510.93 532.214 510.668 532.544 510.337C532.875 510.006 533.137 509.613 533.315 509.181C533.493 508.749 533.583 508.285 533.581 507.818C533.583 507.35 533.493 506.887 533.315 506.454C533.137 506.022 532.875 505.629 532.544 505.299C532.214 504.968 531.821 504.706 531.389 504.528C530.957 504.35 530.494 504.259 530.026 504.261C529.559 504.259 529.096 504.35 528.664 504.528C528.231 504.706 527.839 504.968 527.508 505.298C527.177 505.629 526.916 506.022 526.738 506.454C526.56 506.887 526.469 507.35 526.471 507.818C526.469 508.285 526.56 508.749 526.738 509.181C526.916 509.614 527.177 510.007 527.508 510.337C527.839 510.668 528.231 510.93 528.664 511.108C529.096 511.286 529.559 511.376 530.026 511.374ZM550.469 487.366C550.936 487.368 551.399 487.277 551.831 487.099C552.263 486.921 552.656 486.66 552.986 486.329C553.317 485.998 553.579 485.605 553.757 485.173C553.935 484.741 554.025 484.277 554.023 483.81C554.025 483.342 553.935 482.879 553.757 482.446C553.579 482.014 553.317 481.621 552.986 481.29C552.656 480.96 552.263 480.698 551.831 480.52C551.399 480.342 550.936 480.251 550.469 480.253C550.001 480.251 549.538 480.342 549.106 480.52C548.674 480.698 548.281 480.96 547.951 481.29C547.62 481.621 547.358 482.014 547.18 482.446C547.002 482.879 546.912 483.342 546.914 483.81C546.912 484.277 547.002 484.741 547.18 485.173C547.358 485.605 547.62 485.998 547.951 486.329C548.281 486.66 548.674 486.921 549.106 487.099C549.538 487.277 550.001 487.368 550.469 487.366ZM185.584 393.804C186.052 393.806 186.515 393.715 186.947 393.537C187.38 393.359 187.772 393.097 188.103 392.766C188.433 392.435 188.695 392.042 188.873 391.61C189.051 391.177 189.141 390.714 189.139 390.246C189.141 389.779 189.051 389.315 188.873 388.883C188.695 388.451 188.433 388.058 188.102 387.727C187.772 387.397 187.379 387.135 186.947 386.957C186.515 386.779 186.052 386.688 185.584 386.69C185.117 386.688 184.654 386.779 184.222 386.957C183.79 387.135 183.397 387.397 183.067 387.727C182.736 388.058 182.474 388.451 182.296 388.883C182.118 389.315 182.028 389.779 182.03 390.246C182.03 392.222 183.609 393.804 185.584 393.804ZM449.662 409.109C451.637 409.109 453.218 407.528 453.218 405.552C453.219 405.085 453.129 404.621 452.951 404.189C452.773 403.757 452.511 403.364 452.18 403.033C451.85 402.702 451.457 402.44 451.025 402.262C450.593 402.084 450.13 401.993 449.662 401.995C449.195 401.993 448.732 402.084 448.299 402.262C447.867 402.44 447.474 402.702 447.144 403.033C446.813 403.363 446.552 403.756 446.374 404.189C446.196 404.621 446.105 405.085 446.107 405.552C446.008 407.528 447.687 409.109 449.662 409.109ZM410.621 438.404C411.089 438.406 411.552 438.315 411.984 438.137C412.416 437.959 412.809 437.697 413.139 437.367C413.47 437.036 413.731 436.643 413.909 436.211C414.087 435.779 414.178 435.315 414.176 434.848C414.176 432.872 412.596 431.29 410.621 431.29C410.154 431.288 409.691 431.379 409.258 431.557C408.826 431.735 408.433 431.997 408.103 432.328C407.772 432.659 407.511 433.052 407.333 433.484C407.155 433.917 407.064 434.38 407.066 434.848C406.967 436.824 408.646 438.404 410.621 438.404ZM280.484 439.218C280.951 439.22 281.414 439.129 281.847 438.951C282.279 438.773 282.672 438.511 283.002 438.181C283.333 437.85 283.594 437.457 283.772 437.024C283.95 436.592 284.041 436.129 284.039 435.661C284.041 435.193 283.95 434.73 283.772 434.298C283.594 433.865 283.332 433.472 283.002 433.142C282.671 432.811 282.279 432.549 281.847 432.371C281.414 432.193 280.951 432.102 280.484 432.104C280.017 432.102 279.553 432.193 279.121 432.371C278.689 432.549 278.296 432.811 277.966 433.142C277.635 433.472 277.374 433.865 277.196 434.298C277.018 434.73 276.927 435.193 276.929 435.661C276.83 437.637 278.509 439.218 280.484 439.218ZM504.845 388.962C505.312 388.964 505.776 388.873 506.208 388.695C506.64 388.517 507.033 388.255 507.363 387.924C507.694 387.594 507.956 387.201 508.134 386.768C508.312 386.336 508.402 385.873 508.401 385.405C508.402 384.937 508.312 384.474 508.134 384.042C507.956 383.609 507.694 383.216 507.363 382.886C507.033 382.555 506.64 382.293 506.208 382.115C505.776 381.937 505.312 381.846 504.845 381.848C504.378 381.846 503.915 381.937 503.482 382.115C503.05 382.293 502.658 382.555 502.327 382.886C501.997 383.216 501.735 383.609 501.557 384.042C501.379 384.474 501.288 384.937 501.29 385.405C501.29 387.381 502.87 388.962 504.845 388.962ZM489.243 85.2525C489.71 85.2545 490.173 85.1638 490.605 84.9858C491.037 84.8077 491.43 84.5458 491.761 84.2152C492.091 83.8845 492.353 83.4917 492.531 83.0593C492.709 82.6269 492.799 82.1636 492.797 81.696C492.799 81.2284 492.709 80.765 492.531 80.3326C492.353 79.9002 492.091 79.5074 491.761 79.1768C491.43 78.8461 491.037 78.5842 490.605 78.4062C490.173 78.2281 489.71 78.1374 489.243 78.1394C488.775 78.1373 488.312 78.2279 487.88 78.406C487.448 78.584 487.055 78.8458 486.724 79.1765C486.394 79.5072 486.132 79.9 485.954 80.3325C485.776 80.7649 485.685 81.2283 485.687 81.696C485.685 82.1636 485.776 82.627 485.954 83.0594C486.132 83.4919 486.394 83.8848 486.724 84.2154C487.055 84.5461 487.448 84.8079 487.88 84.986C488.312 85.164 488.775 85.2546 489.243 85.2525Z"/>
</mask>
<path d="M249.18 201.638C249.647 201.64 250.111 201.549 250.543 201.371C250.975 201.193 251.367 200.931 251.698 200.601C252.028 200.27 252.29 199.877 252.468 199.445C252.646 199.013 252.737 198.549 252.735 198.082C252.737 197.614 252.646 197.151 252.468 196.718C252.29 196.286 252.028 195.893 251.698 195.562C251.367 195.232 250.975 194.97 250.543 194.792C250.111 194.614 249.647 194.523 249.18 194.525C248.713 194.523 248.25 194.614 247.817 194.792C247.385 194.97 246.993 195.232 246.662 195.562C246.332 195.893 246.07 196.286 245.892 196.718C245.714 197.151 245.623 197.614 245.625 198.082C245.623 198.549 245.714 199.013 245.892 199.445C246.07 199.877 246.332 200.27 246.662 200.601C246.993 200.931 247.385 201.193 247.817 201.371C248.25 201.549 248.713 201.64 249.18 201.638ZM438.879 202.923C439.347 202.925 439.81 202.834 440.242 202.656C440.674 202.478 441.067 202.216 441.397 201.885C441.728 201.555 441.99 201.162 442.168 200.729C442.346 200.297 442.436 199.833 442.435 199.366C442.437 198.898 442.346 198.435 442.168 198.002C441.99 197.57 441.728 197.177 441.398 196.846C441.067 196.516 440.674 196.254 440.242 196.076C439.81 195.898 439.347 195.807 438.879 195.809C438.412 195.807 437.949 195.898 437.516 196.076C437.084 196.254 436.692 196.516 436.361 196.847C436.031 197.177 435.769 197.57 435.591 198.002C435.413 198.435 435.322 198.898 435.324 199.366C435.226 201.243 436.904 202.923 438.879 202.923ZM250.365 478.969C250.832 478.971 251.295 478.88 251.727 478.702C252.16 478.524 252.552 478.262 252.883 477.931C253.213 477.601 253.475 477.208 253.653 476.775C253.831 476.343 253.921 475.879 253.919 475.412C253.921 474.944 253.831 474.481 253.653 474.048C253.475 473.616 253.213 473.223 252.882 472.893C252.552 472.562 252.159 472.3 251.727 472.122C251.295 471.944 250.832 471.853 250.365 471.855C249.897 471.853 249.434 471.944 249.002 472.122C248.57 472.3 248.177 472.562 247.847 472.893C247.516 473.223 247.254 473.616 247.076 474.048C246.898 474.481 246.808 474.944 246.81 475.412C246.81 477.388 248.389 478.969 250.365 478.969ZM210.767 501.791C212.742 501.791 214.322 500.21 214.322 498.235C214.324 497.767 214.233 497.304 214.055 496.871C213.877 496.439 213.615 496.046 213.285 495.715C212.954 495.385 212.562 495.123 212.129 494.945C211.697 494.766 211.234 494.676 210.767 494.677C210.299 494.676 209.836 494.766 209.404 494.944C208.972 495.122 208.579 495.384 208.248 495.715C207.918 496.046 207.656 496.439 207.478 496.871C207.3 497.304 207.21 497.767 207.212 498.235C207.21 498.702 207.3 499.166 207.478 499.598C207.656 500.03 207.918 500.423 208.249 500.754C208.579 501.085 208.972 501.347 209.404 501.525C209.836 501.703 210.299 501.793 210.767 501.791ZM446.087 156.092C446.554 156.094 447.018 156.003 447.45 155.825C447.882 155.647 448.275 155.385 448.605 155.054C448.935 154.724 449.197 154.331 449.375 153.899C449.553 153.466 449.644 153.003 449.642 152.535C449.642 150.559 448.062 148.978 446.087 148.978C445.62 148.976 445.156 149.067 444.724 149.245C444.292 149.423 443.899 149.685 443.569 150.016C443.238 150.346 442.976 150.739 442.798 151.172C442.62 151.604 442.53 152.068 442.532 152.535C442.433 154.412 444.013 156.092 446.087 156.092ZM466.431 168.046C466.898 168.048 467.361 167.958 467.794 167.78C468.226 167.602 468.618 167.34 468.949 167.009C469.279 166.678 469.541 166.285 469.719 165.853C469.897 165.421 469.988 164.957 469.986 164.49C469.988 164.022 469.897 163.559 469.719 163.126C469.541 162.694 469.279 162.301 468.949 161.971C468.618 161.64 468.226 161.378 467.794 161.2C467.361 161.022 466.898 160.931 466.431 160.933C465.964 160.931 465.5 161.022 465.068 161.2C464.636 161.378 464.243 161.64 463.913 161.971C463.582 162.301 463.321 162.694 463.143 163.126C462.965 163.559 462.874 164.022 462.876 164.49C462.874 164.957 462.965 165.421 463.143 165.853C463.321 166.285 463.582 166.678 463.913 167.009C464.243 167.34 464.636 167.602 465.068 167.78C465.5 167.958 465.964 168.048 466.431 168.046ZM245.625 152.436C247.6 152.436 249.18 150.856 249.18 148.88C249.182 148.412 249.091 147.949 248.913 147.516C248.735 147.084 248.473 146.691 248.143 146.36C247.812 146.029 247.42 145.767 246.987 145.589C246.555 145.411 246.092 145.321 245.625 145.322C245.157 145.32 244.694 145.411 244.262 145.589C243.829 145.767 243.437 146.029 243.106 146.36C242.776 146.691 242.514 147.084 242.336 147.516C242.158 147.949 242.068 148.412 242.07 148.88C241.971 150.856 243.649 152.436 245.625 152.436ZM279.2 230.488C281.175 230.488 282.755 228.907 282.755 226.931C282.757 226.463 282.667 226 282.489 225.568C282.311 225.135 282.049 224.742 281.718 224.412C281.388 224.081 280.995 223.819 280.563 223.641C280.13 223.463 279.667 223.373 279.2 223.375C278.732 223.373 278.269 223.463 277.837 223.641C277.405 223.819 277.012 224.081 276.682 224.412C276.351 224.743 276.089 225.135 275.912 225.568C275.734 226 275.643 226.464 275.645 226.931C275.643 227.399 275.734 227.862 275.912 228.294C276.089 228.727 276.351 229.12 276.682 229.45C277.012 229.781 277.405 230.043 277.837 230.221C278.269 230.399 278.732 230.49 279.2 230.488ZM176.006 338.574C176.473 338.576 176.936 338.486 177.368 338.308C177.8 338.13 178.193 337.868 178.523 337.537C178.854 337.206 179.116 336.814 179.294 336.381C179.472 335.949 179.562 335.486 179.56 335.018C179.56 333.042 177.981 331.461 176.006 331.461C175.538 331.459 175.075 331.549 174.643 331.727C174.21 331.906 173.818 332.168 173.487 332.498C173.157 332.829 172.895 333.222 172.717 333.654C172.539 334.087 172.449 334.55 172.451 335.018C172.449 335.486 172.539 335.949 172.717 336.381C172.895 336.814 173.157 337.206 173.488 337.537C173.818 337.868 174.211 338.13 174.643 338.308C175.075 338.486 175.538 338.576 176.006 338.574ZM139.962 290.558C140.429 290.559 140.892 290.469 141.324 290.291C141.756 290.113 142.149 289.851 142.48 289.52C142.81 289.19 143.072 288.797 143.25 288.364C143.428 287.932 143.518 287.469 143.516 287.001C143.518 286.533 143.428 286.07 143.25 285.638C143.072 285.205 142.81 284.812 142.48 284.482C142.149 284.151 141.756 283.889 141.324 283.711C140.892 283.533 140.429 283.442 139.962 283.444C139.494 283.442 139.031 283.533 138.599 283.711C138.167 283.889 137.774 284.151 137.443 284.482C137.113 284.812 136.851 285.205 136.673 285.637C136.495 286.07 136.404 286.533 136.406 287.001C136.406 288.878 137.987 290.558 139.962 290.558ZM150.725 258.152C151.193 258.154 151.656 258.063 152.088 257.885C152.52 257.707 152.913 257.445 153.243 257.115C153.574 256.784 153.836 256.391 154.013 255.958C154.191 255.526 154.282 255.063 154.28 254.595C154.282 254.127 154.191 253.664 154.013 253.232C153.835 252.799 153.574 252.406 153.243 252.076C152.913 251.745 152.52 251.483 152.088 251.305C151.656 251.127 151.192 251.036 150.725 251.038C150.258 251.036 149.795 251.127 149.362 251.305C148.93 251.483 148.538 251.745 148.207 252.076C147.877 252.406 147.615 252.799 147.437 253.232C147.259 253.664 147.168 254.127 147.17 254.595C147.17 256.473 148.75 258.152 150.725 258.152ZM144.801 186.127C145.268 186.129 145.731 186.038 146.163 185.86C146.596 185.682 146.988 185.42 147.319 185.089C147.649 184.759 147.911 184.366 148.089 183.933C148.267 183.501 148.357 183.037 148.355 182.57C148.357 182.102 148.267 181.639 148.089 181.206C147.911 180.774 147.649 180.381 147.319 180.051C146.988 179.72 146.595 179.458 146.163 179.28C145.731 179.102 145.268 179.011 144.801 179.013C144.333 179.011 143.87 179.102 143.438 179.28C143.006 179.458 142.613 179.72 142.283 180.051C141.952 180.381 141.69 180.774 141.512 181.206C141.335 181.639 141.244 182.102 141.246 182.57C141.246 184.546 142.727 186.127 144.801 186.127ZM368.076 260.523C368.543 260.525 369.006 260.434 369.438 260.256C369.87 260.078 370.263 259.816 370.594 259.486C370.924 259.155 371.186 258.762 371.364 258.33C371.542 257.897 371.632 257.434 371.63 256.966C371.63 254.99 370.051 253.409 368.076 253.409C367.608 253.407 367.145 253.498 366.713 253.676C366.281 253.854 365.888 254.116 365.557 254.447C365.227 254.777 364.965 255.17 364.787 255.603C364.609 256.035 364.519 256.499 364.521 256.966C364.521 258.942 366.002 260.523 368.076 260.523ZM413.599 294.115C414.067 294.117 414.53 294.026 414.962 293.848C415.394 293.67 415.787 293.408 416.118 293.077C416.448 292.746 416.71 292.354 416.888 291.921C417.066 291.489 417.156 291.025 417.154 290.558C417.156 290.09 417.066 289.627 416.888 289.194C416.71 288.762 416.448 288.369 416.117 288.038C415.787 287.708 415.394 287.446 414.962 287.268C414.53 287.09 414.067 286.999 413.599 287.001C413.132 286.999 412.669 287.09 412.237 287.268C411.804 287.446 411.412 287.707 411.081 288.038C410.75 288.369 410.489 288.762 410.311 289.194C410.133 289.626 410.042 290.09 410.044 290.558C410.042 291.025 410.133 291.489 410.311 291.921C410.489 292.353 410.751 292.746 411.081 293.077C411.412 293.408 411.804 293.67 412.237 293.848C412.669 294.026 413.132 294.117 413.599 294.115ZM470.085 339.76C472.06 339.76 473.641 338.18 473.641 336.204C473.643 335.736 473.552 335.273 473.374 334.84C473.196 334.408 472.934 334.015 472.604 333.684C472.273 333.353 471.88 333.092 471.448 332.913C471.016 332.735 470.553 332.645 470.085 332.646C469.618 332.644 469.155 332.735 468.723 332.913C468.29 333.091 467.898 333.353 467.567 333.684C467.237 334.015 466.975 334.408 466.797 334.84C466.619 335.273 466.529 335.736 466.531 336.204C466.432 338.081 468.11 339.76 470.085 339.76ZM530.026 511.374C530.494 511.376 530.957 511.286 531.389 511.108C531.821 510.93 532.214 510.668 532.544 510.337C532.875 510.006 533.137 509.613 533.315 509.181C533.493 508.749 533.583 508.285 533.581 507.818C533.583 507.35 533.493 506.887 533.315 506.454C533.137 506.022 532.875 505.629 532.544 505.299C532.214 504.968 531.821 504.706 531.389 504.528C530.957 504.35 530.494 504.259 530.026 504.261C529.559 504.259 529.096 504.35 528.664 504.528C528.231 504.706 527.839 504.968 527.508 505.298C527.177 505.629 526.916 506.022 526.738 506.454C526.56 506.887 526.469 507.35 526.471 507.818C526.469 508.285 526.56 508.749 526.738 509.181C526.916 509.614 527.177 510.007 527.508 510.337C527.839 510.668 528.231 510.93 528.664 511.108C529.096 511.286 529.559 511.376 530.026 511.374ZM550.469 487.366C550.936 487.368 551.399 487.277 551.831 487.099C552.263 486.921 552.656 486.66 552.986 486.329C553.317 485.998 553.579 485.605 553.757 485.173C553.935 484.741 554.025 484.277 554.023 483.81C554.025 483.342 553.935 482.879 553.757 482.446C553.579 482.014 553.317 481.621 552.986 481.29C552.656 480.96 552.263 480.698 551.831 480.52C551.399 480.342 550.936 480.251 550.469 480.253C550.001 480.251 549.538 480.342 549.106 480.52C548.674 480.698 548.281 480.96 547.951 481.29C547.62 481.621 547.358 482.014 547.18 482.446C547.002 482.879 546.912 483.342 546.914 483.81C546.912 484.277 547.002 484.741 547.18 485.173C547.358 485.605 547.62 485.998 547.951 486.329C548.281 486.66 548.674 486.921 549.106 487.099C549.538 487.277 550.001 487.368 550.469 487.366ZM185.584 393.804C186.052 393.806 186.515 393.715 186.947 393.537C187.38 393.359 187.772 393.097 188.103 392.766C188.433 392.435 188.695 392.042 188.873 391.61C189.051 391.177 189.141 390.714 189.139 390.246C189.141 389.779 189.051 389.315 188.873 388.883C188.695 388.451 188.433 388.058 188.102 387.727C187.772 387.397 187.379 387.135 186.947 386.957C186.515 386.779 186.052 386.688 185.584 386.69C185.117 386.688 184.654 386.779 184.222 386.957C183.79 387.135 183.397 387.397 183.067 387.727C182.736 388.058 182.474 388.451 182.296 388.883C182.118 389.315 182.028 389.779 182.03 390.246C182.03 392.222 183.609 393.804 185.584 393.804ZM449.662 409.109C451.637 409.109 453.218 407.528 453.218 405.552C453.219 405.085 453.129 404.621 452.951 404.189C452.773 403.757 452.511 403.364 452.18 403.033C451.85 402.702 451.457 402.44 451.025 402.262C450.593 402.084 450.13 401.993 449.662 401.995C449.195 401.993 448.732 402.084 448.299 402.262C447.867 402.44 447.474 402.702 447.144 403.033C446.813 403.363 446.552 403.756 446.374 404.189C446.196 404.621 446.105 405.085 446.107 405.552C446.008 407.528 447.687 409.109 449.662 409.109ZM410.621 438.404C411.089 438.406 411.552 438.315 411.984 438.137C412.416 437.959 412.809 437.697 413.139 437.367C413.47 437.036 413.731 436.643 413.909 436.211C414.087 435.779 414.178 435.315 414.176 434.848C414.176 432.872 412.596 431.29 410.621 431.29C410.154 431.288 409.691 431.379 409.258 431.557C408.826 431.735 408.433 431.997 408.103 432.328C407.772 432.659 407.511 433.052 407.333 433.484C407.155 433.917 407.064 434.38 407.066 434.848C406.967 436.824 408.646 438.404 410.621 438.404ZM280.484 439.218C280.951 439.22 281.414 439.129 281.847 438.951C282.279 438.773 282.672 438.511 283.002 438.181C283.333 437.85 283.594 437.457 283.772 437.024C283.95 436.592 284.041 436.129 284.039 435.661C284.041 435.193 283.95 434.73 283.772 434.298C283.594 433.865 283.332 433.472 283.002 433.142C282.671 432.811 282.279 432.549 281.847 432.371C281.414 432.193 280.951 432.102 280.484 432.104C280.017 432.102 279.553 432.193 279.121 432.371C278.689 432.549 278.296 432.811 277.966 433.142C277.635 433.472 277.374 433.865 277.196 434.298C277.018 434.73 276.927 435.193 276.929 435.661C276.83 437.637 278.509 439.218 280.484 439.218ZM504.845 388.962C505.312 388.964 505.776 388.873 506.208 388.695C506.64 388.517 507.033 388.255 507.363 387.924C507.694 387.594 507.956 387.201 508.134 386.768C508.312 386.336 508.402 385.873 508.401 385.405C508.402 384.937 508.312 384.474 508.134 384.042C507.956 383.609 507.694 383.216 507.363 382.886C507.033 382.555 506.64 382.293 506.208 382.115C505.776 381.937 505.312 381.846 504.845 381.848C504.378 381.846 503.915 381.937 503.482 382.115C503.05 382.293 502.658 382.555 502.327 382.886C501.997 383.216 501.735 383.609 501.557 384.042C501.379 384.474 501.288 384.937 501.29 385.405C501.29 387.381 502.87 388.962 504.845 388.962ZM489.243 85.2525C489.71 85.2545 490.173 85.1638 490.605 84.9858C491.037 84.8077 491.43 84.5458 491.761 84.2152C492.091 83.8845 492.353 83.4917 492.531 83.0593C492.709 82.6269 492.799 82.1636 492.797 81.696C492.799 81.2284 492.709 80.765 492.531 80.3326C492.353 79.9002 492.091 79.5074 491.761 79.1768C491.43 78.8461 491.037 78.5842 490.605 78.4062C490.173 78.2281 489.71 78.1374 489.243 78.1394C488.775 78.1373 488.312 78.2279 487.88 78.406C487.448 78.584 487.055 78.8458 486.724 79.1765C486.394 79.5072 486.132 79.9 485.954 80.3325C485.776 80.7649 485.685 81.2283 485.687 81.696C485.685 82.1636 485.776 82.627 485.954 83.0594C486.132 83.4919 486.394 83.8848 486.724 84.2154C487.055 84.5461 487.448 84.8079 487.88 84.986C488.312 85.164 488.775 85.2546 489.243 85.2525Z" fill="white"/>
<path d="M249.18 201.638C249.647 201.64 250.111 201.549 250.543 201.371C250.975 201.193 251.367 200.931 251.698 200.601C252.028 200.27 252.29 199.877 252.468 199.445C252.646 199.013 252.737 198.549 252.735 198.082C252.737 197.614 252.646 197.151 252.468 196.718C252.29 196.286 252.028 195.893 251.698 195.562C251.367 195.232 250.975 194.97 250.543 194.792C250.111 194.614 249.647 194.523 249.18 194.525C248.713 194.523 248.25 194.614 247.817 194.792C247.385 194.97 246.993 195.232 246.662 195.562C246.332 195.893 246.07 196.286 245.892 196.718C245.714 197.151 245.623 197.614 245.625 198.082C245.623 198.549 245.714 199.013 245.892 199.445C246.07 199.877 246.332 200.27 246.662 200.601C246.993 200.931 247.385 201.193 247.817 201.371C248.25 201.549 248.713 201.64 249.18 201.638ZM438.879 202.923C439.347 202.925 439.81 202.834 440.242 202.656C440.674 202.478 441.067 202.216 441.397 201.885C441.728 201.555 441.99 201.162 442.168 200.729C442.346 200.297 442.436 199.833 442.435 199.366C442.437 198.898 442.346 198.435 442.168 198.002C441.99 197.57 441.728 197.177 441.398 196.846C441.067 196.516 440.674 196.254 440.242 196.076C439.81 195.898 439.347 195.807 438.879 195.809C438.412 195.807 437.949 195.898 437.516 196.076C437.084 196.254 436.692 196.516 436.361 196.847C436.031 197.177 435.769 197.57 435.591 198.002C435.413 198.435 435.322 198.898 435.324 199.366C435.226 201.243 436.904 202.923 438.879 202.923ZM250.365 478.969C250.832 478.971 251.295 478.88 251.727 478.702C252.16 478.524 252.552 478.262 252.883 477.931C253.213 477.601 253.475 477.208 253.653 476.775C253.831 476.343 253.921 475.879 253.919 475.412C253.921 474.944 253.831 474.481 253.653 474.048C253.475 473.616 253.213 473.223 252.882 472.893C252.552 472.562 252.159 472.3 251.727 472.122C251.295 471.944 250.832 471.853 250.365 471.855C249.897 471.853 249.434 471.944 249.002 472.122C248.57 472.3 248.177 472.562 247.847 472.893C247.516 473.223 247.254 473.616 247.076 474.048C246.898 474.481 246.808 474.944 246.81 475.412C246.81 477.388 248.389 478.969 250.365 478.969ZM210.767 501.791C212.742 501.791 214.322 500.21 214.322 498.235C214.324 497.767 214.233 497.304 214.055 496.871C213.877 496.439 213.615 496.046 213.285 495.715C212.954 495.385 212.562 495.123 212.129 494.945C211.697 494.766 211.234 494.676 210.767 494.677C210.299 494.676 209.836 494.766 209.404 494.944C208.972 495.122 208.579 495.384 208.248 495.715C207.918 496.046 207.656 496.439 207.478 496.871C207.3 497.304 207.21 497.767 207.212 498.235C207.21 498.702 207.3 499.166 207.478 499.598C207.656 500.03 207.918 500.423 208.249 500.754C208.579 501.085 208.972 501.347 209.404 501.525C209.836 501.703 210.299 501.793 210.767 501.791ZM446.087 156.092C446.554 156.094 447.018 156.003 447.45 155.825C447.882 155.647 448.275 155.385 448.605 155.054C448.935 154.724 449.197 154.331 449.375 153.899C449.553 153.466 449.644 153.003 449.642 152.535C449.642 150.559 448.062 148.978 446.087 148.978C445.62 148.976 445.156 149.067 444.724 149.245C444.292 149.423 443.899 149.685 443.569 150.016C443.238 150.346 442.976 150.739 442.798 151.172C442.62 151.604 442.53 152.068 442.532 152.535C442.433 154.412 444.013 156.092 446.087 156.092ZM466.431 168.046C466.898 168.048 467.361 167.958 467.794 167.78C468.226 167.602 468.618 167.34 468.949 167.009C469.279 166.678 469.541 166.285 469.719 165.853C469.897 165.421 469.988 164.957 469.986 164.49C469.988 164.022 469.897 163.559 469.719 163.126C469.541 162.694 469.279 162.301 468.949 161.971C468.618 161.64 468.226 161.378 467.794 161.2C467.361 161.022 466.898 160.931 466.431 160.933C465.964 160.931 465.5 161.022 465.068 161.2C464.636 161.378 464.243 161.64 463.913 161.971C463.582 162.301 463.321 162.694 463.143 163.126C462.965 163.559 462.874 164.022 462.876 164.49C462.874 164.957 462.965 165.421 463.143 165.853C463.321 166.285 463.582 166.678 463.913 167.009C464.243 167.34 464.636 167.602 465.068 167.78C465.5 167.958 465.964 168.048 466.431 168.046ZM245.625 152.436C247.6 152.436 249.18 150.856 249.18 148.88C249.182 148.412 249.091 147.949 248.913 147.516C248.735 147.084 248.473 146.691 248.143 146.36C247.812 146.029 247.42 145.767 246.987 145.589C246.555 145.411 246.092 145.321 245.625 145.322C245.157 145.32 244.694 145.411 244.262 145.589C243.829 145.767 243.437 146.029 243.106 146.36C242.776 146.691 242.514 147.084 242.336 147.516C242.158 147.949 242.068 148.412 242.07 148.88C241.971 150.856 243.649 152.436 245.625 152.436ZM279.2 230.488C281.175 230.488 282.755 228.907 282.755 226.931C282.757 226.463 282.667 226 282.489 225.568C282.311 225.135 282.049 224.742 281.718 224.412C281.388 224.081 280.995 223.819 280.563 223.641C280.13 223.463 279.667 223.373 279.2 223.375C278.732 223.373 278.269 223.463 277.837 223.641C277.405 223.819 277.012 224.081 276.682 224.412C276.351 224.743 276.089 225.135 275.912 225.568C275.734 226 275.643 226.464 275.645 226.931C275.643 227.399 275.734 227.862 275.912 228.294C276.089 228.727 276.351 229.12 276.682 229.45C277.012 229.781 277.405 230.043 277.837 230.221C278.269 230.399 278.732 230.49 279.2 230.488ZM176.006 338.574C176.473 338.576 176.936 338.486 177.368 338.308C177.8 338.13 178.193 337.868 178.523 337.537C178.854 337.206 179.116 336.814 179.294 336.381C179.472 335.949 179.562 335.486 179.56 335.018C179.56 333.042 177.981 331.461 176.006 331.461C175.538 331.459 175.075 331.549 174.643 331.727C174.21 331.906 173.818 332.168 173.487 332.498C173.157 332.829 172.895 333.222 172.717 333.654C172.539 334.087 172.449 334.55 172.451 335.018C172.449 335.486 172.539 335.949 172.717 336.381C172.895 336.814 173.157 337.206 173.488 337.537C173.818 337.868 174.211 338.13 174.643 338.308C175.075 338.486 175.538 338.576 176.006 338.574ZM139.962 290.558C140.429 290.559 140.892 290.469 141.324 290.291C141.756 290.113 142.149 289.851 142.48 289.52C142.81 289.19 143.072 288.797 143.25 288.364C143.428 287.932 143.518 287.469 143.516 287.001C143.518 286.533 143.428 286.07 143.25 285.638C143.072 285.205 142.81 284.812 142.48 284.482C142.149 284.151 141.756 283.889 141.324 283.711C140.892 283.533 140.429 283.442 139.962 283.444C139.494 283.442 139.031 283.533 138.599 283.711C138.167 283.889 137.774 284.151 137.443 284.482C137.113 284.812 136.851 285.205 136.673 285.637C136.495 286.07 136.404 286.533 136.406 287.001C136.406 288.878 137.987 290.558 139.962 290.558ZM150.725 258.152C151.193 258.154 151.656 258.063 152.088 257.885C152.52 257.707 152.913 257.445 153.243 257.115C153.574 256.784 153.836 256.391 154.013 255.958C154.191 255.526 154.282 255.063 154.28 254.595C154.282 254.127 154.191 253.664 154.013 253.232C153.835 252.799 153.574 252.406 153.243 252.076C152.913 251.745 152.52 251.483 152.088 251.305C151.656 251.127 151.192 251.036 150.725 251.038C150.258 251.036 149.795 251.127 149.362 251.305C148.93 251.483 148.538 251.745 148.207 252.076C147.877 252.406 147.615 252.799 147.437 253.232C147.259 253.664 147.168 254.127 147.17 254.595C147.17 256.473 148.75 258.152 150.725 258.152ZM144.801 186.127C145.268 186.129 145.731 186.038 146.163 185.86C146.596 185.682 146.988 185.42 147.319 185.089C147.649 184.759 147.911 184.366 148.089 183.933C148.267 183.501 148.357 183.037 148.355 182.57C148.357 182.102 148.267 181.639 148.089 181.206C147.911 180.774 147.649 180.381 147.319 180.051C146.988 179.72 146.595 179.458 146.163 179.28C145.731 179.102 145.268 179.011 144.801 179.013C144.333 179.011 143.87 179.102 143.438 179.28C143.006 179.458 142.613 179.72 142.283 180.051C141.952 180.381 141.69 180.774 141.512 181.206C141.335 181.639 141.244 182.102 141.246 182.57C141.246 184.546 142.727 186.127 144.801 186.127ZM368.076 260.523C368.543 260.525 369.006 260.434 369.438 260.256C369.87 260.078 370.263 259.816 370.594 259.486C370.924 259.155 371.186 258.762 371.364 258.33C371.542 257.897 371.632 257.434 371.63 256.966C371.63 254.99 370.051 253.409 368.076 253.409C367.608 253.407 367.145 253.498 366.713 253.676C366.281 253.854 365.888 254.116 365.557 254.447C365.227 254.777 364.965 255.17 364.787 255.603C364.609 256.035 364.519 256.499 364.521 256.966C364.521 258.942 366.002 260.523 368.076 260.523ZM413.599 294.115C414.067 294.117 414.53 294.026 414.962 293.848C415.394 293.67 415.787 293.408 416.118 293.077C416.448 292.746 416.71 292.354 416.888 291.921C417.066 291.489 417.156 291.025 417.154 290.558C417.156 290.09 417.066 289.627 416.888 289.194C416.71 288.762 416.448 288.369 416.117 288.038C415.787 287.708 415.394 287.446 414.962 287.268C414.53 287.09 414.067 286.999 413.599 287.001C413.132 286.999 412.669 287.09 412.237 287.268C411.804 287.446 411.412 287.707 411.081 288.038C410.75 288.369 410.489 288.762 410.311 289.194C410.133 289.626 410.042 290.09 410.044 290.558C410.042 291.025 410.133 291.489 410.311 291.921C410.489 292.353 410.751 292.746 411.081 293.077C411.412 293.408 411.804 293.67 412.237 293.848C412.669 294.026 413.132 294.117 413.599 294.115ZM470.085 339.76C472.06 339.76 473.641 338.18 473.641 336.204C473.643 335.736 473.552 335.273 473.374 334.84C473.196 334.408 472.934 334.015 472.604 333.684C472.273 333.353 471.88 333.092 471.448 332.913C471.016 332.735 470.553 332.645 470.085 332.646C469.618 332.644 469.155 332.735 468.723 332.913C468.29 333.091 467.898 333.353 467.567 333.684C467.237 334.015 466.975 334.408 466.797 334.84C466.619 335.273 466.529 335.736 466.531 336.204C466.432 338.081 468.11 339.76 470.085 339.76ZM530.026 511.374C530.494 511.376 530.957 511.286 531.389 511.108C531.821 510.93 532.214 510.668 532.544 510.337C532.875 510.006 533.137 509.613 533.315 509.181C533.493 508.749 533.583 508.285 533.581 507.818C533.583 507.35 533.493 506.887 533.315 506.454C533.137 506.022 532.875 505.629 532.544 505.299C532.214 504.968 531.821 504.706 531.389 504.528C530.957 504.35 530.494 504.259 530.026 504.261C529.559 504.259 529.096 504.35 528.664 504.528C528.231 504.706 527.839 504.968 527.508 505.298C527.177 505.629 526.916 506.022 526.738 506.454C526.56 506.887 526.469 507.35 526.471 507.818C526.469 508.285 526.56 508.749 526.738 509.181C526.916 509.614 527.177 510.007 527.508 510.337C527.839 510.668 528.231 510.93 528.664 511.108C529.096 511.286 529.559 511.376 530.026 511.374ZM550.469 487.366C550.936 487.368 551.399 487.277 551.831 487.099C552.263 486.921 552.656 486.66 552.986 486.329C553.317 485.998 553.579 485.605 553.757 485.173C553.935 484.741 554.025 484.277 554.023 483.81C554.025 483.342 553.935 482.879 553.757 482.446C553.579 482.014 553.317 481.621 552.986 481.29C552.656 480.96 552.263 480.698 551.831 480.52C551.399 480.342 550.936 480.251 550.469 480.253C550.001 480.251 549.538 480.342 549.106 480.52C548.674 480.698 548.281 480.96 547.951 481.29C547.62 481.621 547.358 482.014 547.18 482.446C547.002 482.879 546.912 483.342 546.914 483.81C546.912 484.277 547.002 484.741 547.18 485.173C547.358 485.605 547.62 485.998 547.951 486.329C548.281 486.66 548.674 486.921 549.106 487.099C549.538 487.277 550.001 487.368 550.469 487.366ZM185.584 393.804C186.052 393.806 186.515 393.715 186.947 393.537C187.38 393.359 187.772 393.097 188.103 392.766C188.433 392.435 188.695 392.042 188.873 391.61C189.051 391.177 189.141 390.714 189.139 390.246C189.141 389.779 189.051 389.315 188.873 388.883C188.695 388.451 188.433 388.058 188.102 387.727C187.772 387.397 187.379 387.135 186.947 386.957C186.515 386.779 186.052 386.688 185.584 386.69C185.117 386.688 184.654 386.779 184.222 386.957C183.79 387.135 183.397 387.397 183.067 387.727C182.736 388.058 182.474 388.451 182.296 388.883C182.118 389.315 182.028 389.779 182.03 390.246C182.03 392.222 183.609 393.804 185.584 393.804ZM449.662 409.109C451.637 409.109 453.218 407.528 453.218 405.552C453.219 405.085 453.129 404.621 452.951 404.189C452.773 403.757 452.511 403.364 452.18 403.033C451.85 402.702 451.457 402.44 451.025 402.262C450.593 402.084 450.13 401.993 449.662 401.995C449.195 401.993 448.732 402.084 448.299 402.262C447.867 402.44 447.474 402.702 447.144 403.033C446.813 403.363 446.552 403.756 446.374 404.189C446.196 404.621 446.105 405.085 446.107 405.552C446.008 407.528 447.687 409.109 449.662 409.109ZM410.621 438.404C411.089 438.406 411.552 438.315 411.984 438.137C412.416 437.959 412.809 437.697 413.139 437.367C413.47 437.036 413.731 436.643 413.909 436.211C414.087 435.779 414.178 435.315 414.176 434.848C414.176 432.872 412.596 431.29 410.621 431.29C410.154 431.288 409.691 431.379 409.258 431.557C408.826 431.735 408.433 431.997 408.103 432.328C407.772 432.659 407.511 433.052 407.333 433.484C407.155 433.917 407.064 434.38 407.066 434.848C406.967 436.824 408.646 438.404 410.621 438.404ZM280.484 439.218C280.951 439.22 281.414 439.129 281.847 438.951C282.279 438.773 282.672 438.511 283.002 438.181C283.333 437.85 283.594 437.457 283.772 437.024C283.95 436.592 284.041 436.129 284.039 435.661C284.041 435.193 283.95 434.73 283.772 434.298C283.594 433.865 283.332 433.472 283.002 433.142C282.671 432.811 282.279 432.549 281.847 432.371C281.414 432.193 280.951 432.102 280.484 432.104C280.017 432.102 279.553 432.193 279.121 432.371C278.689 432.549 278.296 432.811 277.966 433.142C277.635 433.472 277.374 433.865 277.196 434.298C277.018 434.73 276.927 435.193 276.929 435.661C276.83 437.637 278.509 439.218 280.484 439.218ZM504.845 388.962C505.312 388.964 505.776 388.873 506.208 388.695C506.64 388.517 507.033 388.255 507.363 387.924C507.694 387.594 507.956 387.201 508.134 386.768C508.312 386.336 508.402 385.873 508.401 385.405C508.402 384.937 508.312 384.474 508.134 384.042C507.956 383.609 507.694 383.216 507.363 382.886C507.033 382.555 506.64 382.293 506.208 382.115C505.776 381.937 505.312 381.846 504.845 381.848C504.378 381.846 503.915 381.937 503.482 382.115C503.05 382.293 502.658 382.555 502.327 382.886C501.997 383.216 501.735 383.609 501.557 384.042C501.379 384.474 501.288 384.937 501.29 385.405C501.29 387.381 502.87 388.962 504.845 388.962ZM489.243 85.2525C489.71 85.2545 490.173 85.1638 490.605 84.9858C491.037 84.8077 491.43 84.5458 491.761 84.2152C492.091 83.8845 492.353 83.4917 492.531 83.0593C492.709 82.6269 492.799 82.1636 492.797 81.696C492.799 81.2284 492.709 80.765 492.531 80.3326C492.353 79.9002 492.091 79.5074 491.761 79.1768C491.43 78.8461 491.037 78.5842 490.605 78.4062C490.173 78.2281 489.71 78.1374 489.243 78.1394C488.775 78.1373 488.312 78.2279 487.88 78.406C487.448 78.584 487.055 78.8458 486.724 79.1765C486.394 79.5072 486.132 79.9 485.954 80.3325C485.776 80.7649 485.685 81.2283 485.687 81.696C485.685 82.1636 485.776 82.627 485.954 83.0594C486.132 83.4919 486.394 83.8848 486.724 84.2154C487.055 84.5461 487.448 84.8079 487.88 84.986C488.312 85.164 488.775 85.2546 489.243 85.2525Z" stroke="#EDF1F5" stroke-width="6" mask="url(#path-14-outside-1)"/>
</g>
<circle cx="344.263" cy="336.425" r="44.0311" fill="#01D586" stroke="#01D586" stroke-opacity="0.15" stroke-width="30" stroke-linejoin="bevel"/>
<path d="M342.958 315.28C332.373 315.28 323.762 323.934 323.762 334.571C323.762 345.209 332.373 353.862 342.958 353.862C353.543 353.862 362.154 345.209 362.154 334.571C362.154 323.933 353.543 315.28 342.958 315.28ZM354.864 341.635L365.59 351.993L359.479 358.322L348.124 347.356C346.564 347.973 344.867 348.313 343.091 348.313C335.523 348.313 329.361 342.146 329.361 334.571C329.361 326.997 335.523 320.83 343.091 320.83C350.659 320.83 356.822 326.997 356.822 334.571C356.822 337.152 356.106 339.569 354.864 341.635Z" fill="white"/>
<defs>
<clipPath id="clip0">
<rect width="679.73" height="673.79" fill="white" transform="translate(0.269775)"/>
</clipPath>
</defs>
</svg>
