<svg width="130" height="43" viewBox="0 0 130 43" fill="none" xmlns="http://www.w3.org/2000/svg">
<path d="M25.4141 9.86963V20.3241C25.4141 22.8002 24.7607 24.726 23.4883 26.1704C22.1815 27.6148 20.462 28.3026 18.2954 28.3026C17.1605 28.3026 16.1288 28.0619 15.1659 27.5804C14.203 27.0989 13.412 26.4111 12.7242 25.517C12.0021 26.4455 11.1767 27.1333 10.2482 27.6148C9.31965 28.0963 8.28796 28.3026 7.18748 28.3026C5.02092 28.3026 3.26704 27.5804 1.96022 26.136C0.653407 24.726 0 22.7658 0 20.3241V9.86963H3.23265V20.9088C3.23265 22.1812 3.57655 23.2129 4.29873 24.0039C5.02092 24.7948 5.98384 25.1731 7.15309 25.1731C8.32235 25.1731 9.28526 24.7948 10.0074 24.0039C10.7296 23.2129 11.1079 22.1812 11.1079 20.9088V9.86963H14.3062V20.9088C14.3062 22.1812 14.6501 23.2129 15.3723 24.0039C16.0945 24.7948 17.0574 25.1731 18.2266 25.1731C19.3959 25.1731 20.3244 24.7948 21.0466 24.0039C21.7688 23.2129 22.1471 22.1812 22.1471 20.9088V9.86963H25.4141Z" fill="#231F20"/>
<path d="M41.199 27.9591V18.9489C41.199 17.0575 40.6488 15.51 39.5827 14.3407C38.5166 13.1714 37.1066 12.5868 35.4215 12.5868C33.7364 12.5868 32.3264 13.1714 31.2259 14.3407C30.1255 15.51 29.5752 16.9887 29.5752 18.8458C29.5752 20.7028 30.1255 22.2504 31.2603 23.454C32.3952 24.6577 33.8052 25.2423 35.5591 25.2423C36.35 25.2423 37.1066 25.1047 37.8632 24.8296C38.6198 24.5545 39.3419 24.1418 40.0985 23.5572V27.0306C39.3763 27.4432 38.5854 27.7527 37.76 27.9591C36.9347 28.1654 36.0749 28.2686 35.1808 28.2686C34.321 28.2686 33.4613 28.131 32.6015 27.8559C31.7418 27.5808 30.9852 27.2025 30.2974 26.7554C28.9906 25.8613 27.9933 24.7264 27.3055 23.3852C26.6177 22.044 26.2738 20.5309 26.2738 18.8802C26.2738 16.1634 27.1336 13.928 28.853 12.1741C30.5725 10.4203 32.7391 9.52612 35.3527 9.52612C37.0722 9.52612 38.6885 9.97319 40.1329 10.8329C41.5773 11.6927 42.6778 12.8963 43.4687 14.4439C43.8126 15.1317 44.0878 15.8882 44.2253 16.7136C44.3629 17.539 44.466 18.7426 44.466 20.3933V27.9935H41.199V27.9591Z" fill="#231F20"/>
<path d="M49.5902 1.54761H46.3576V27.9934H49.5902V1.54761Z" fill="black"/>
<path d="M51.8255 27.959V1.54761H55.0582V16.4384H56.5025C57.431 16.4384 58.1876 16.2321 58.7723 15.8538C59.3569 15.4755 59.9759 14.7189 60.6637 13.5841L62.9678 9.83556H66.7507L64.1027 14.1343C63.6212 14.9253 63.1742 15.5443 62.7271 16.0601C62.28 16.576 61.833 16.9199 61.4203 17.1262C62.899 17.4013 63.9995 18.0203 64.7217 18.9489C65.4439 19.8774 65.7878 21.2186 65.7878 22.9381V27.9246H62.5207V23.3852C62.5207 22.0784 62.2456 21.1154 61.661 20.5308C61.0764 19.9118 60.1822 19.6023 58.9442 19.6023H55.0925V27.959H51.8255Z" fill="#231F20"/>
<path fill-rule="evenodd" clip-rule="evenodd" d="M116.788 0H80.1284C73.3192 0 67.7824 5.53677 67.7824 12.346V24.2448C67.7824 31.054 73.3192 36.5908 80.1284 36.5908H89.62L98.3206 42.781L107.021 36.5908H116.788C123.597 36.5908 129.134 31.054 129.134 24.2448V12.346C129.134 5.53677 123.632 0 116.788 0Z" fill="#3394D1"/>
<path d="M76.1736 27.5809V17.092C76.1736 14.6159 76.827 12.6901 78.0994 11.2457C79.4062 9.80132 81.1257 9.11353 83.3267 9.11353C84.4615 9.11353 85.4932 9.35425 86.4218 9.83571C87.3847 10.3172 88.1756 11.005 88.8634 11.8991C89.5856 10.9706 90.411 10.2828 91.3395 9.80132C92.268 9.31986 93.2997 9.11353 94.4346 9.11353C96.6012 9.11353 98.3207 9.83571 99.6275 11.2801C100.934 12.7245 101.588 14.6503 101.588 17.092V27.5465H98.3894V16.5073C98.3894 15.2349 98.0111 14.2032 97.289 13.4466C96.5668 12.6557 95.6039 12.2774 94.4346 12.2774C93.2653 12.2774 92.3024 12.6557 91.5802 13.4466C90.858 14.2376 90.4798 15.2349 90.4798 16.5073V27.5809H87.2815V16.5073C87.2815 15.2349 86.9032 14.2032 86.181 13.4466C85.4588 12.6557 84.4959 12.2774 83.3267 12.2774C82.1574 12.2774 81.1945 12.6557 80.4723 13.4466C79.7501 14.2376 79.4062 15.2349 79.4062 16.5073V27.5809H76.1736Z" fill="white"/>
<path d="M120.743 19.568C120.296 22.1473 119.23 24.2107 117.613 25.6894C115.963 27.2026 113.968 27.9592 111.629 27.9592C110.838 27.9592 110.047 27.856 109.256 27.6497C108.466 27.4433 107.743 27.1338 107.056 26.6867C105.611 25.7926 104.476 24.6577 103.685 23.2134C102.894 21.769 102.482 20.2214 102.482 18.502C102.482 17.2295 102.722 16.0603 103.169 14.9254C103.617 13.7905 104.304 12.7589 105.164 11.8647C106.024 10.9706 107.021 10.2828 108.156 9.80132C109.256 9.31986 110.426 9.11353 111.664 9.11353C113.486 9.11353 115.137 9.59498 116.582 10.5579C118.026 11.5208 119.195 12.9308 120.089 14.7879L108.225 21.3219L106.849 18.8802L115.653 13.9625C115.103 13.3435 114.518 12.8964 113.83 12.5869C113.143 12.2774 112.42 12.1398 111.629 12.1398C110.013 12.1398 108.637 12.7588 107.537 13.9625C106.437 15.1661 105.852 16.6793 105.852 18.4676C105.852 20.2558 106.402 21.7346 107.537 22.9382C108.672 24.1419 110.013 24.7609 111.629 24.7609C113.177 24.7609 114.449 24.2451 115.481 23.2478C116.513 22.2161 117.166 20.8405 117.441 19.0522L120.743 19.568Z" fill="white"/>
</svg>
