<svg width="707" height="589" viewBox="0 0 707 589" fill="none" xmlns="http://www.w3.org/2000/svg">
<mask id="mask0" mask-type="alpha" maskUnits="userSpaceOnUse" x="54" y="26" width="541" height="563">
<rect x="54.5" y="26.1548" width="540" height="562" fill="#C4C4C4"/>
</mask>
<g mask="url(#mask0)">
<path d="M409.298 583.188V583.191L409.295 583.188H409.298Z" fill="#40D2FF"/>
<path d="M589.776 388.365L557.744 441.495C557.685 441.589 557.597 441.585 557.54 441.513C557.514 441.479 557.497 441.43 557.492 441.373L557.527 338.482L557.498 338.353C557.118 336.828 552.097 312.03 546.578 292.148C546.035 290.192 545.485 294.127 544.936 292.148H566.028H566.11H566.221L589.804 388.144C589.824 388.225 589.811 388.308 589.776 388.365Z" fill="#05303E"/>
<path d="M391.012 292.153L387.123 506.991L387.13 507L387.123 506.991L386.458 581.758L308.752 727.248L344.999 776.203L392.685 670.766L427.513 599.559L427.511 599.554L427.513 599.557L452.931 373.43L391.012 292.153Z" fill="#063B4C"/>
<path d="M452.931 373.43L391.086 292.153H391.012H391.443H391.376H445.05H445.105H445.116H445.135L452.931 373.43Z" fill="#05303D"/>
<path d="M320.494 292.153H320.45H320.448L285.85 360.605L285.364 361.55V292.153H285.767H285.801H285.834H320.561H320.383H320.494Z" fill="#05303D"/>
<path d="M287.115 535.797L274.167 705.399L274.149 705.332L212.014 540.062L235.162 292.153H235.167H236.388H236.468H285.758H285.801H285.804H285.871H285.364L285.85 360.605L287.115 535.797Z" fill="#063B4C"/>
<path d="M499.69 292.153H499.67H499.642H499.524H479.233H445.049H445.105H445.116H445.135L452.931 373.43L427.513 599.557V599.559L430.174 651.49L432.936 705.403L432.939 705.399V705.396L505.397 453.585L511.992 341.912L499.69 292.153Z" fill="#063F50"/>
<path d="M511.992 341.912L479.343 292.153H479.332H479.311H479.233H499.524H499.642H499.67H499.69L511.992 341.912Z" fill="#05303D"/>
<path d="M155.638 499.87V499.872L155.636 499.87L66.524 375.743L58.5 328.93L104.059 292.153H103.817H104.057H176.289H176.232H176.225L155.638 499.87Z" fill="#053442"/>
<path d="M58.5 328.93L104.059 292.155H103.817H104.057H148.448C148.642 292.155 148.789 291.964 148.759 292.155L58.5 328.93Z" fill="#05303D"/>
<path d="M274.167 705.403L212.014 540.062L155.636 499.87L211.632 617.936L273.967 797.441L274.167 705.403Z" fill="#05303D"/>
<path d="M387.123 506.991L391.019 292.153H391.459H391.443H391.379H320.563H320.386H320.383H320.342H320.45L285.85 360.605L285.364 361.55L287.115 535.795V535.797L274.167 705.403L273.967 797.441L308.752 727.248L386.458 581.758L387.123 506.991Z" fill="#07475A"/>
<path d="M563.703 441.854L568.859 353.887L548.938 292.153H548.645H548.643H548.182H548.01H499.524H499.642H499.67H499.693L511.992 341.912L505.397 453.585L432.939 705.396L551.371 517.466L563.705 441.857L563.703 441.854Z" fill="#053442"/>
<path d="M235.222 292.153H235.176H235.167H235.16L212.014 540.062L155.638 499.873V499.87H155.636L136.669 372.066L176.218 292.153H176.232H176.289H235.222Z" fill="#07475A"/>
<path d="M551.152 292.153H522.2C513.333 270.726 504.236 248.418 503.826 247.43L503.809 247.396C503.789 247.356 503.784 247.308 503.796 247.262L517.478 193.296C517.526 193.105 517.793 193.093 517.858 193.282L550.97 292.153H551.122H551.152Z" fill="#347C93"/>
<path d="M381.3 292.153H316.087H316.126H316.128L363.904 194.427L381.284 292.153H381.3Z" fill="#33798F"/>
<path d="M430.517 292.153H408.007H380.959H380.89H381.283L363.904 194.428L401.612 167.114H401.614L415.676 192.898L430.49 292.153H430.501H430.517Z" fill="#307387"/>
<path d="M316.227 292.153H316.188H284.016H284.385H284.417L302.895 190.036L363.904 194.427L316.126 292.153H316.227Z" fill="#37839A"/>
<path d="M363.904 194.427L338.134 172.843L330.582 114.307L355.753 101.415L400.746 157.807L401.61 167.114L363.904 194.427Z" fill="#37839A"/>
<path d="M284.481 292.153H237.982H237.987H239.106L260.359 195.459L284.417 292.153H284.419H284.481Z" fill="#37839A"/>
<path d="M302.895 123.096V190.036L284.419 292.153H284.417L260.359 195.459L271.433 187.168L302.895 123.096Z" fill="#33798F"/>
<path d="M302.895 123.096L271.433 187.168L260.359 195.459L239.106 292.153H239.09H237.987H237.996L250.565 189.73H250.568L302.895 123.096Z" fill="#449EBB"/>
<path d="M461.885 292.153H430.501H430.49L415.676 192.898L401.614 167.114H401.612L439.29 160.891L443.964 210.091L461.856 292.153H461.874H461.885Z" fill="#347C93"/>
<path d="M480.541 292.153H461.874H461.856L443.964 210.091L467.815 252.215L480.498 292.153H480.523H480.541Z" fill="#32768B"/>
<path d="M525.458 292.153H480.523H480.498L467.815 252.215L443.964 210.091L439.29 160.891L517.644 192.647L517.478 193.296L503.796 247.262L503.78 247.331L503.809 247.396L503.826 247.43L525.006 292.153H525.43H525.458Z" fill="#37839A"/>
<path d="M302.895 123.096L250.565 189.73L204.23 161.781L248.169 148.824L320.482 25.9666L302.895 123.096Z" fill="#3C90A9"/>
<path d="M302.895 190.034V123.096L320.482 25.9666L330.582 114.307L338.134 172.843L363.904 194.427L302.895 190.034Z" fill="#3C90A9"/>
<path d="M330.582 114.307L355.753 101.415L320.482 25.9666L330.582 114.307Z" fill="#37839A"/>
<path d="M355.753 101.415L400.746 157.807L405.443 91.1978L355.753 101.415Z" fill="#3B8CA6"/>
<path d="M401.61 167.114L400.746 157.807L405.443 91.1978L439.29 160.889L401.61 167.114Z" fill="#2D6C80"/>
<path d="M183.947 292.153H183.94H183.945H116.161L127.18 270.857L189.866 253.779L183.947 292.153Z" fill="#3B8BA5"/>
<path d="M494.809 247.396L494.776 247.331L494.795 247.262C494.786 247.306 494.79 247.354 494.809 247.396Z" fill="#85DBF5"/>
<path d="M250.565 189.73L237.996 292.153H237.987H186.438H183.933H168.558L189.866 253.779L204.227 161.781L250.565 189.73Z" fill="#358097"/>
</g>
<g filter="url(#filter0_d)">
<rect x="358.5" y="11" width="204.846" height="58.3812" rx="8" fill="white"/>
</g>
<path d="M408.566 47.4074L410.407 33.5265C410.435 33.3372 410.411 33.1438 410.336 32.9674C410.262 32.7911 410.141 32.6385 409.986 32.5263C409.831 32.4141 409.648 32.3466 409.457 32.3311C409.266 32.3157 409.075 32.3528 408.904 32.4386L402.933 36.9842C402.82 37.0756 402.69 37.1428 402.55 37.1813C402.411 37.2199 402.265 37.229 402.121 37.2082C401.978 37.1873 401.84 37.1369 401.717 37.0602C401.594 36.9835 401.489 36.8821 401.407 36.7624L395.514 28.1427C395.416 28.0302 395.295 27.9401 395.159 27.8784C395.024 27.8166 394.876 27.7847 394.727 27.7847C394.578 27.7847 394.431 27.8166 394.295 27.8784C394.159 27.9401 394.039 28.0302 393.941 28.1427L388.048 36.7624C387.966 36.8819 387.86 36.983 387.737 37.0595C387.614 37.136 387.476 37.1861 387.333 37.2066C387.189 37.2272 387.043 37.2178 386.904 37.1791C386.764 37.1403 386.634 37.073 386.522 36.9814L380.551 32.4386C380.38 32.3528 380.188 32.3157 379.997 32.3311C379.807 32.3466 379.624 32.4141 379.469 32.5263C379.314 32.6385 379.192 32.7911 379.118 32.9674C379.044 33.1438 379.019 33.3372 379.047 33.5265L380.888 47.4074H408.566Z" fill="#FFD265" stroke="#FFD265" stroke-width="1.70544" stroke-linecap="round" stroke-linejoin="round"/>
<path d="M381.128 52.5959H408.326Z" fill="white"/>
<path d="M381.128 52.5959H408.326" stroke="#FFD265" stroke-width="2.27392" stroke-linecap="round" stroke-linejoin="round"/>
<path d="M431.211 49.3537C436.189 49.3537 438.74 46.052 439.415 43.3255L436.189 42.35C435.713 44.0009 434.238 45.9769 431.211 45.9769C428.359 45.9769 425.708 43.9008 425.708 40.1239C425.708 36.0967 428.51 34.1957 431.161 34.1957C434.238 34.1957 435.613 36.0717 436.038 37.7726L439.29 36.7471C438.59 33.8706 436.063 30.869 431.161 30.869C426.408 30.869 422.131 34.4709 422.131 40.1239C422.131 45.7768 426.258 49.3537 431.211 49.3537ZM445.116 41.7497C445.191 40.399 446.016 39.3485 447.417 39.3485C449.018 39.3485 449.693 40.424 449.693 41.7997V48.9785H453.02V41.2244C453.02 38.523 451.569 36.3469 448.443 36.3469C447.267 36.3469 445.916 36.7471 445.116 37.6976V30.869H441.789V48.9785H445.116V41.7497ZM455.646 45.6268C455.646 47.5528 457.247 49.3287 459.873 49.3287C461.699 49.3287 462.875 48.4783 463.5 47.5027C463.5 47.978 463.55 48.6533 463.625 48.9785H466.677C466.602 48.5533 466.527 47.6778 466.527 47.0275V40.9743C466.527 38.498 465.076 36.2969 461.174 36.2969C457.872 36.2969 456.096 38.423 455.896 40.349L458.848 40.9743C458.948 39.8987 459.748 38.9733 461.199 38.9733C462.6 38.9733 463.275 39.6986 463.275 40.5741C463.275 40.9993 463.05 41.3495 462.35 41.4496L459.323 41.8998C457.272 42.2 455.646 43.4256 455.646 45.6268ZM460.574 46.8524C459.498 46.8524 458.973 46.152 458.973 45.4266C458.973 44.4761 459.648 44.0009 460.499 43.8758L463.275 43.4506V44.0009C463.275 46.177 461.974 46.8524 460.574 46.8524ZM473.207 48.9785V41.7747C473.207 40.424 474.057 39.3485 475.508 39.3485C477.009 39.3485 477.684 40.349 477.684 41.6747V48.9785H480.986V41.7747C480.986 40.449 481.836 39.3485 483.262 39.3485C484.788 39.3485 485.438 40.349 485.438 41.6747V48.9785H488.665V40.9993C488.665 37.6976 486.489 36.3219 484.213 36.3219C482.587 36.3219 481.286 36.8722 480.311 38.3729C479.685 37.0472 478.335 36.3219 476.659 36.3219C475.308 36.3219 473.732 36.9722 473.057 38.1728V36.672H469.88V48.9785H473.207ZM495.362 53.731V47.7779C495.962 48.6033 497.213 49.2787 498.914 49.2787C502.391 49.2787 504.717 46.5272 504.717 42.8003C504.717 39.1484 502.641 36.3969 499.039 36.3969C497.188 36.3969 495.812 37.2223 495.262 38.1728V36.672H492.035V53.731H495.362ZM501.44 42.8253C501.44 45.0264 500.089 46.3021 498.389 46.3021C496.688 46.3021 495.312 45.0014 495.312 42.8253C495.312 40.6491 496.688 39.3735 498.389 39.3735C500.089 39.3735 501.44 40.6491 501.44 42.8253ZM510.678 48.9785V36.672H507.351V48.9785H510.678ZM506.951 32.6449C506.951 33.7455 507.876 34.671 509.002 34.671C510.152 34.671 511.053 33.7455 511.053 32.6449C511.053 31.4943 510.152 30.5688 509.002 30.5688C507.876 30.5688 506.951 31.4943 506.951 32.6449ZM519.767 46.3271C518.141 46.3271 516.641 45.1265 516.641 42.8253C516.641 40.4991 518.141 39.3234 519.767 39.3234C521.393 39.3234 522.894 40.4991 522.894 42.8253C522.894 45.1515 521.393 46.3271 519.767 46.3271ZM519.767 36.2969C516.09 36.2969 513.314 39.0233 513.314 42.8253C513.314 46.6023 516.09 49.3537 519.767 49.3537C523.444 49.3537 526.221 46.6023 526.221 42.8253C526.221 39.0233 523.444 36.2969 519.767 36.2969ZM532.173 41.8998C532.173 40.474 533.024 39.3485 534.475 39.3485C536.075 39.3485 536.751 40.424 536.751 41.7997V48.9785H540.078V41.2244C540.078 38.523 538.677 36.3469 535.625 36.3469C534.299 36.3469 532.824 36.9222 532.073 38.1979V36.672H528.847V48.9785H532.173V41.8998Z" fill="#063C4D"/>
<g filter="url(#filter1_d)">
<rect x="23" y="365.605" width="106" height="48" rx="6.68261" fill="#285D6F"/>
<path d="M42.9281 396.605V390.379H49.2381V388.456H42.9281V383.692H49.8859V381.791H40.8805V396.605H42.9281ZM54.0208 396.605V386.555H52.0776V396.605H54.0208ZM51.6388 382.752C51.6388 383.525 52.2657 384.152 53.0387 384.152C53.8327 384.152 54.4595 383.525 54.4595 382.752C54.4595 381.958 53.8327 381.331 53.0387 381.331C52.2657 381.331 51.6388 381.958 51.6388 382.752ZM59.3264 390.796C59.3264 389.271 60.1204 388.038 61.6666 388.038C63.4217 388.038 64.0067 389.167 64.0067 390.567V396.605H65.9708V390.232C65.9708 387.997 64.7798 386.262 62.377 386.262C61.2069 386.262 60.0159 386.743 59.2846 387.997V386.555H57.3624V396.605H59.3264V390.796ZM68.4681 393.91C68.4681 395.498 69.7844 396.918 71.8321 396.918C73.6289 396.918 74.6319 395.957 75.0706 395.247C75.0706 395.978 75.1333 396.354 75.1751 396.605H77.0974C77.0556 396.354 76.972 395.832 76.972 394.954V389.919C76.972 387.955 75.8019 386.241 72.7932 386.241C70.6202 386.241 68.886 387.579 68.677 389.501L70.5575 389.94C70.6829 388.77 71.456 387.913 72.835 387.913C74.3602 387.913 75.008 388.728 75.008 389.71C75.008 390.065 74.8408 390.379 74.2349 390.462L71.5186 390.859C69.7844 391.11 68.4681 392.113 68.4681 393.91ZM72.1037 395.268C71.1008 395.268 70.4739 394.557 70.4739 393.805C70.4739 392.907 71.1008 392.426 71.9365 392.301L75.008 391.841V392.301C75.008 394.495 73.7125 395.268 72.1037 395.268ZM81.9958 390.796C81.9958 389.271 82.7897 388.038 84.3359 388.038C86.091 388.038 86.676 389.167 86.676 390.567V396.605H88.6401V390.232C88.6401 387.997 87.4491 386.262 85.0463 386.262C83.8762 386.262 82.6853 386.743 81.954 387.997V386.555H80.0317V396.605H81.9958V390.796ZM95.9849 388.059C97.6982 388.059 98.4295 389.208 98.6802 390.19L100.456 389.438C100.038 387.913 98.6593 386.241 95.9849 386.241C93.1224 386.241 90.9285 388.435 90.9285 391.569C90.9285 394.62 93.0806 396.918 96.0058 396.918C98.6175 396.918 100.059 395.226 100.54 393.784L98.8056 393.032C98.5757 393.826 97.8862 395.101 96.0058 395.101C94.376 395.101 92.9343 393.868 92.9343 391.569C92.9343 389.229 94.3969 388.059 95.9849 388.059ZM104.016 390.546C104.1 389.25 105.103 387.976 106.754 387.976C108.53 387.976 109.47 389.104 109.512 390.546H104.016ZM109.804 393.157C109.428 394.286 108.613 395.184 106.983 395.184C105.291 395.184 103.995 393.931 103.954 392.134H111.517C111.538 392.008 111.559 391.758 111.559 391.507C111.559 388.373 109.825 386.241 106.733 386.241C104.204 386.241 101.927 388.394 101.927 391.549C101.927 394.954 104.288 396.918 106.983 396.918C109.324 396.918 110.932 395.518 111.496 393.742L109.804 393.157Z" fill="white"/>
</g>
<g filter="url(#filter2_d)">
<rect x="207" y="416.605" width="137" height="48" rx="6.68261" fill="#285D6F"/>
<path d="M226.03 440.188C226.03 436.322 228.621 434.358 231.379 434.358C234.137 434.358 236.727 436.322 236.727 440.188C236.727 444.053 234.137 446.038 231.379 446.038C228.621 446.038 226.03 444.053 226.03 440.188ZM223.94 440.188C223.94 445.139 227.659 447.918 231.379 447.918C235.098 447.918 238.817 445.139 238.817 440.188C238.817 435.236 235.098 432.478 231.379 432.478C227.659 432.478 223.94 435.236 223.94 440.188ZM243.367 451.575V446.247C243.91 447.145 245.08 447.877 246.626 447.877C249.572 447.877 251.307 445.557 251.307 442.569C251.307 439.644 249.698 437.325 246.689 437.325C245.059 437.325 243.868 438.119 243.325 439.122V437.555H241.424V451.575H243.367ZM249.301 442.569C249.301 444.638 248.151 446.121 246.334 446.121C244.537 446.121 243.346 444.638 243.346 442.569C243.346 440.564 244.537 439.059 246.334 439.059C248.172 439.059 249.301 440.564 249.301 442.569ZM255.084 441.546C255.167 440.25 256.17 438.976 257.821 438.976C259.597 438.976 260.537 440.104 260.579 441.546H255.084ZM260.871 444.157C260.495 445.286 259.68 446.184 258.051 446.184C256.358 446.184 255.063 444.931 255.021 443.134H262.585C262.606 443.008 262.626 442.758 262.626 442.507C262.626 439.373 260.892 437.241 257.8 437.241C255.272 437.241 252.994 439.394 252.994 442.549C252.994 445.954 255.355 447.918 258.051 447.918C260.391 447.918 262 446.518 262.564 444.742L260.871 444.157ZM270.712 437.45C270.608 437.43 270.336 437.388 270.065 437.388C269.041 437.388 267.787 437.764 267.056 439.31V437.555H265.134V447.605H267.098V442.569C267.098 440.355 268.205 439.477 269.856 439.477C270.127 439.477 270.42 439.498 270.712 439.54V437.45ZM272.179 444.91C272.179 446.498 273.495 447.918 275.543 447.918C277.34 447.918 278.343 446.957 278.781 446.247C278.781 446.978 278.844 447.354 278.886 447.605H280.808C280.766 447.354 280.683 446.832 280.683 445.954V440.919C280.683 438.955 279.513 437.241 276.504 437.241C274.331 437.241 272.597 438.579 272.388 440.501L274.268 440.94C274.394 439.77 275.167 438.913 276.546 438.913C278.071 438.913 278.719 439.728 278.719 440.71C278.719 441.065 278.552 441.379 277.946 441.462L275.229 441.859C273.495 442.11 272.179 443.113 272.179 444.91ZM275.814 446.268C274.811 446.268 274.185 445.557 274.185 444.805C274.185 443.907 274.811 443.426 275.647 443.301L278.719 442.841V443.301C278.719 445.495 277.423 446.268 275.814 446.268ZM286.375 434.379H284.578V436.009C284.578 436.886 284.118 437.555 283.032 437.555H282.489V439.331H284.411V444.847C284.411 446.665 285.497 447.709 287.211 447.709C287.879 447.709 288.381 447.584 288.548 447.521V445.85C288.381 445.892 288.026 445.933 287.775 445.933C286.751 445.933 286.375 445.474 286.375 444.554V439.331H288.548V437.555H286.375V434.379ZM293.113 447.605V437.555H291.17V447.605H293.113ZM290.731 433.752C290.731 434.525 291.358 435.152 292.131 435.152C292.925 435.152 293.552 434.525 293.552 433.752C293.552 432.958 292.925 432.331 292.131 432.331C291.358 432.331 290.731 432.958 290.731 433.752ZM300.759 446.163C299.087 446.163 297.624 444.91 297.624 442.569C297.624 440.25 299.087 438.997 300.759 438.997C302.43 438.997 303.893 440.25 303.893 442.569C303.893 444.91 302.43 446.163 300.759 446.163ZM300.759 437.241C297.75 437.241 295.619 439.519 295.619 442.569C295.619 445.641 297.75 447.918 300.759 447.918C303.767 447.918 305.899 445.641 305.899 442.569C305.899 439.519 303.767 437.241 300.759 437.241ZM310.375 441.796C310.375 440.271 311.169 439.038 312.716 439.038C314.471 439.038 315.056 440.167 315.056 441.567V447.605H317.02V441.232C317.02 438.997 315.829 437.262 313.426 437.262C312.256 437.262 311.065 437.743 310.334 438.997V437.555H308.411V447.605H310.375V441.796ZM319.204 444.993C319.371 446.142 320.541 447.918 323.299 447.918C325.785 447.918 326.976 446.226 326.976 444.805C326.976 443.322 326.015 442.214 324.197 441.817L322.568 441.462C321.795 441.295 321.418 440.856 321.418 440.25C321.418 439.561 322.087 438.913 323.09 438.913C324.678 438.913 325.096 440.062 325.179 440.585L326.914 439.937C326.705 439.038 325.848 437.241 323.09 437.241C321.126 437.241 319.517 438.704 319.517 440.417C319.517 441.838 320.457 442.904 322.024 443.238L323.738 443.614C324.573 443.802 325.033 444.283 325.033 444.91C325.033 445.62 324.427 446.247 323.32 446.247C321.899 446.247 321.105 445.411 320.98 444.366L319.204 444.993Z" fill="white"/>
</g>
<g filter="url(#filter3_d)">
<rect x="419" y="481.605" width="83" height="48" rx="6.68261" fill="#285D6F"/>
<path d="M445.928 512.605V510.683H438.928V497.791H436.88V512.605H445.928ZM449.291 506.546C449.375 505.25 450.377 503.976 452.028 503.976C453.804 503.976 454.744 505.104 454.786 506.546H449.291ZM455.079 509.157C454.703 510.286 453.888 511.184 452.258 511.184C450.565 511.184 449.27 509.931 449.228 508.134H456.792C456.813 508.008 456.834 507.758 456.834 507.507C456.834 504.373 455.1 502.241 452.007 502.241C449.479 502.241 447.202 504.394 447.202 507.549C447.202 510.954 449.563 512.918 452.258 512.918C454.598 512.918 456.207 511.518 456.771 509.742L455.079 509.157ZM458.61 513.148C458.86 515.3 460.741 516.888 463.248 516.888C467.03 516.888 468.284 514.402 468.284 511.853V502.555H466.34V503.955C465.839 502.952 464.794 502.367 463.248 502.367C460.49 502.367 458.63 504.54 458.63 507.256C458.63 510.098 460.574 512.124 463.248 512.124C464.752 512.124 465.839 511.393 466.32 510.474V511.915C466.32 514.088 465.358 515.175 463.248 515.175C461.723 515.175 460.657 514.109 460.511 512.709L458.61 513.148ZM463.541 510.474C461.765 510.474 460.636 509.22 460.636 507.256C460.636 505.313 461.806 504.038 463.541 504.038C465.233 504.038 466.403 505.313 466.403 507.256C466.403 509.199 465.233 510.474 463.541 510.474ZM470.691 509.91C470.691 511.498 472.008 512.918 474.055 512.918C475.852 512.918 476.855 511.957 477.294 511.247C477.294 511.978 477.357 512.354 477.398 512.605H479.321C479.279 512.354 479.195 511.832 479.195 510.954V505.919C479.195 503.955 478.025 502.241 475.017 502.241C472.844 502.241 471.109 503.579 470.9 505.501L472.781 505.94C472.906 504.77 473.679 503.913 475.058 503.913C476.584 503.913 477.231 504.728 477.231 505.71C477.231 506.065 477.064 506.379 476.458 506.462L473.742 506.859C472.008 507.11 470.691 508.113 470.691 509.91ZM474.327 511.268C473.324 511.268 472.697 510.557 472.697 509.805C472.697 508.907 473.324 508.426 474.16 508.301L477.231 507.841V508.301C477.231 510.495 475.936 511.268 474.327 511.268ZM484.219 512.605V497.478H482.255V512.605H484.219Z" fill="white"/>
</g>
<g filter="url(#filter4_d)">
<rect x="435" y="365.605" width="249" height="48" rx="6.68261" fill="#285D6F"/>
<path d="M454.97 396.605V381.791H452.88V396.605H454.97ZM460.492 390.796C460.492 389.271 461.286 388.038 462.832 388.038C464.587 388.038 465.172 389.167 465.172 390.567V396.605H467.136V390.232C467.136 387.997 465.945 386.262 463.542 386.262C462.372 386.262 461.181 386.743 460.45 387.997V386.555H458.528V396.605H460.492V390.796ZM471.43 391.549C471.43 389.48 472.6 388.017 474.397 388.017C476.194 388.017 477.281 389.438 477.281 391.507C477.281 393.575 476.173 395.142 474.376 395.142C472.496 395.142 471.43 393.617 471.43 391.549ZM477.301 395.247C477.301 395.853 477.364 396.375 477.406 396.605H479.307C479.286 396.438 479.203 395.707 479.203 394.745V381.478H477.26V387.976C476.925 387.161 475.964 386.283 474.188 386.283C471.347 386.283 469.424 388.707 469.424 391.549C469.424 394.536 471.242 396.877 474.188 396.877C475.755 396.877 476.821 396.041 477.301 395.08V395.247ZM484.487 396.605V386.555H482.544V396.605H484.487ZM482.105 382.752C482.105 383.525 482.732 384.152 483.505 384.152C484.299 384.152 484.926 383.525 484.926 382.752C484.926 381.958 484.299 381.331 483.505 381.331C482.732 381.331 482.105 381.958 482.105 382.752ZM496.437 386.555H494.326L491.443 394.307L488.581 386.555H486.366L490.44 396.605H492.425L496.437 386.555ZM500.259 396.605V386.555H498.316V396.605H500.259ZM497.877 382.752C497.877 383.525 498.504 384.152 499.277 384.152C500.071 384.152 500.698 383.525 500.698 382.752C500.698 381.958 500.071 381.331 499.277 381.331C498.504 381.331 497.877 381.958 497.877 382.752ZM504.771 391.549C504.771 389.48 505.941 388.017 507.738 388.017C509.535 388.017 510.621 389.438 510.621 391.507C510.621 393.575 509.514 395.142 507.717 395.142C505.837 395.142 504.771 393.617 504.771 391.549ZM510.642 395.247C510.642 395.853 510.705 396.375 510.747 396.605H512.648C512.627 396.438 512.544 395.707 512.544 394.745V381.478H510.601V387.976C510.266 387.161 509.305 386.283 507.529 386.283C504.688 386.283 502.765 388.707 502.765 391.549C502.765 394.536 504.583 396.877 507.529 396.877C509.096 396.877 510.162 396.041 510.642 395.08V395.247ZM522.406 395.393C522.406 395.811 522.448 396.375 522.489 396.605H524.37C524.328 396.25 524.265 395.539 524.265 394.745V386.555H522.301V392.614C522.301 394.139 521.507 395.184 519.92 395.184C518.269 395.184 517.642 393.972 517.642 392.593V386.555H515.678V392.886C515.678 395.163 517.099 396.918 519.439 396.918C520.609 396.918 521.863 396.438 522.406 395.393ZM526.99 393.91C526.99 395.498 528.307 396.918 530.354 396.918C532.151 396.918 533.154 395.957 533.593 395.247C533.593 395.978 533.655 396.354 533.697 396.605H535.62C535.578 396.354 535.494 395.832 535.494 394.954V389.919C535.494 387.955 534.324 386.241 531.315 386.241C529.142 386.241 527.408 387.579 527.199 389.501L529.08 389.94C529.205 388.77 529.978 387.913 531.357 387.913C532.882 387.913 533.53 388.728 533.53 389.71C533.53 390.065 533.363 390.379 532.757 390.462L530.041 390.859C528.307 391.11 526.99 392.113 526.99 393.91ZM530.626 395.268C529.623 395.268 528.996 394.557 528.996 393.805C528.996 392.907 529.623 392.426 530.459 392.301L533.53 391.841V392.301C533.53 394.495 532.235 395.268 530.626 395.268ZM540.518 396.605V381.478H538.554V396.605H540.518ZM555.706 396.918C559.112 396.918 561.452 394.933 562.246 392.155L560.428 391.486C559.822 393.513 558.234 395.038 555.706 395.038C553.011 395.038 550.441 393.053 550.441 389.188C550.441 385.322 553.011 383.358 555.706 383.358C558.13 383.358 559.759 384.612 560.324 386.847L562.225 386.179C561.473 383.316 559.091 381.478 555.706 381.478C552.029 381.478 548.351 384.236 548.351 389.188C548.351 394.139 551.882 396.918 555.706 396.918ZM568.649 395.163C566.978 395.163 565.515 393.91 565.515 391.569C565.515 389.25 566.978 387.997 568.649 387.997C570.321 387.997 571.783 389.25 571.783 391.569C571.783 393.91 570.321 395.163 568.649 395.163ZM568.649 386.241C565.64 386.241 563.509 388.519 563.509 391.569C563.509 394.641 565.64 396.918 568.649 396.918C571.658 396.918 573.789 394.641 573.789 391.569C573.789 388.519 571.658 386.241 568.649 386.241ZM578.266 390.796C578.266 389.271 579.06 388.038 580.606 388.038C582.361 388.038 582.946 389.167 582.946 390.567V396.605H584.91V390.232C584.91 387.997 583.719 386.262 581.317 386.262C580.147 386.262 578.956 386.743 578.224 387.997V386.555H576.302V396.605H578.266V390.796ZM590.667 383.379H588.87V385.009C588.87 385.886 588.411 386.555 587.324 386.555H586.781V388.331H588.703V393.847C588.703 395.665 589.79 396.709 591.503 396.709C592.172 396.709 592.673 396.584 592.84 396.521V394.85C592.673 394.892 592.318 394.933 592.067 394.933C591.043 394.933 590.667 394.474 590.667 393.554V388.331H592.84V386.555H590.667V383.379ZM600.837 386.45C600.732 386.43 600.46 386.388 600.189 386.388C599.165 386.388 597.911 386.764 597.18 388.31V386.555H595.258V396.605H597.222V391.569C597.222 389.355 598.329 388.477 599.98 388.477C600.251 388.477 600.544 388.498 600.837 388.54V386.45ZM604.873 396.605V386.555H602.93V396.605H604.873ZM602.491 382.752C602.491 383.525 603.118 384.152 603.891 384.152C604.685 384.152 605.312 383.525 605.312 382.752C605.312 381.958 604.685 381.331 603.891 381.331C603.118 381.331 602.491 381.958 602.491 382.752ZM610.158 396.605V395.142C610.785 396.229 611.934 396.877 613.417 396.877C616.405 396.877 618.098 394.516 618.098 391.528C618.098 388.603 616.53 386.262 613.48 386.262C611.808 386.262 610.638 387.077 610.158 387.976V381.478H608.215V396.605H610.158ZM616.092 391.528C616.092 393.701 614.922 395.121 613.125 395.121C611.391 395.121 610.137 393.701 610.137 391.528C610.137 389.355 611.391 387.997 613.125 387.997C614.943 387.997 616.092 389.355 616.092 391.528ZM627.122 395.393C627.122 395.811 627.163 396.375 627.205 396.605H629.086C629.044 396.25 628.981 395.539 628.981 394.745V386.555H627.017V392.614C627.017 394.139 626.223 395.184 624.635 395.184C622.984 395.184 622.358 393.972 622.358 392.593V386.555H620.394V392.886C620.394 395.163 621.814 396.918 624.155 396.918C625.325 396.918 626.578 396.438 627.122 395.393ZM634.965 383.379H633.168V385.009C633.168 385.886 632.709 386.555 631.622 386.555H631.079V388.331H633.001V393.847C633.001 395.665 634.088 396.709 635.801 396.709C636.47 396.709 636.971 396.584 637.138 396.521V394.85C636.971 394.892 636.616 394.933 636.365 394.933C635.341 394.933 634.965 394.474 634.965 393.554V388.331H637.138V386.555H634.965V383.379ZM643.962 395.163C642.29 395.163 640.828 393.91 640.828 391.569C640.828 389.25 642.29 387.997 643.962 387.997C645.634 387.997 647.096 389.25 647.096 391.569C647.096 393.91 645.634 395.163 643.962 395.163ZM643.962 386.241C640.953 386.241 638.822 388.519 638.822 391.569C638.822 394.641 640.953 396.918 643.962 396.918C646.971 396.918 649.102 394.641 649.102 391.569C649.102 388.519 646.971 386.241 643.962 386.241ZM657.194 386.45C657.089 386.43 656.817 386.388 656.546 386.388C655.522 386.388 654.268 386.764 653.537 388.31V386.555H651.615V396.605H653.579V391.569C653.579 389.355 654.686 388.477 656.337 388.477C656.609 388.477 656.901 388.498 657.194 388.54V386.45ZM658.347 393.993C658.514 395.142 659.684 396.918 662.442 396.918C664.928 396.918 666.119 395.226 666.119 393.805C666.119 392.322 665.158 391.214 663.34 390.817L661.711 390.462C660.938 390.295 660.561 389.856 660.561 389.25C660.561 388.561 661.23 387.913 662.233 387.913C663.821 387.913 664.239 389.062 664.322 389.585L666.057 388.937C665.848 388.038 664.991 386.241 662.233 386.241C660.269 386.241 658.66 387.704 658.66 389.417C658.66 390.838 659.6 391.904 661.167 392.238L662.881 392.614C663.716 392.802 664.176 393.283 664.176 393.91C664.176 394.62 663.57 395.247 662.463 395.247C661.042 395.247 660.248 394.411 660.123 393.366L658.347 393.993Z" fill="white"/>
</g>
<line x1="44" y1="292" x2="662" y2="292" stroke="#07465A" stroke-width="2"/>
<defs>
<filter id="filter0_d" x="334.5" y="0" width="252.846" height="106.381" filterUnits="userSpaceOnUse" color-interpolation-filters="sRGB">
<feFlood flood-opacity="0" result="BackgroundImageFix"/>
<feColorMatrix in="SourceAlpha" type="matrix" values="0 0 0 0 0 0 0 0 0 0 0 0 0 0 0 0 0 0 127 0"/>
<feOffset dy="13"/>
<feGaussianBlur stdDeviation="12"/>
<feColorMatrix type="matrix" values="0 0 0 0 0 0 0 0 0 0 0 0 0 0 0 0 0 0 0.37 0"/>
<feBlend mode="normal" in2="BackgroundImageFix" result="effect1_dropShadow"/>
<feBlend mode="normal" in="SourceGraphic" in2="effect1_dropShadow" result="shape"/>
</filter>
<filter id="filter1_d" x="0.950001" y="356.415" width="150.1" height="92.1" filterUnits="userSpaceOnUse" color-interpolation-filters="sRGB">
<feFlood flood-opacity="0" result="BackgroundImageFix"/>
<feColorMatrix in="SourceAlpha" type="matrix" values="0 0 0 0 0 0 0 0 0 0 0 0 0 0 0 0 0 0 127 0"/>
<feOffset dy="12.86"/>
<feGaussianBlur stdDeviation="11.025"/>
<feColorMatrix type="matrix" values="0 0 0 0 0 0 0 0 0 0 0 0 0 0 0 0 0 0 0.15 0"/>
<feBlend mode="normal" in2="BackgroundImageFix" result="effect1_dropShadow"/>
<feBlend mode="normal" in="SourceGraphic" in2="effect1_dropShadow" result="shape"/>
</filter>
<filter id="filter2_d" x="184.95" y="407.415" width="181.1" height="92.1" filterUnits="userSpaceOnUse" color-interpolation-filters="sRGB">
<feFlood flood-opacity="0" result="BackgroundImageFix"/>
<feColorMatrix in="SourceAlpha" type="matrix" values="0 0 0 0 0 0 0 0 0 0 0 0 0 0 0 0 0 0 127 0"/>
<feOffset dy="12.86"/>
<feGaussianBlur stdDeviation="11.025"/>
<feColorMatrix type="matrix" values="0 0 0 0 0 0 0 0 0 0 0 0 0 0 0 0 0 0 0.15 0"/>
<feBlend mode="normal" in2="BackgroundImageFix" result="effect1_dropShadow"/>
<feBlend mode="normal" in="SourceGraphic" in2="effect1_dropShadow" result="shape"/>
</filter>
<filter id="filter3_d" x="396.95" y="472.415" width="127.1" height="92.1" filterUnits="userSpaceOnUse" color-interpolation-filters="sRGB">
<feFlood flood-opacity="0" result="BackgroundImageFix"/>
<feColorMatrix in="SourceAlpha" type="matrix" values="0 0 0 0 0 0 0 0 0 0 0 0 0 0 0 0 0 0 127 0"/>
<feOffset dy="12.86"/>
<feGaussianBlur stdDeviation="11.025"/>
<feColorMatrix type="matrix" values="0 0 0 0 0 0 0 0 0 0 0 0 0 0 0 0 0 0 0.15 0"/>
<feBlend mode="normal" in2="BackgroundImageFix" result="effect1_dropShadow"/>
<feBlend mode="normal" in="SourceGraphic" in2="effect1_dropShadow" result="shape"/>
</filter>
<filter id="filter4_d" x="412.95" y="356.415" width="293.1" height="92.1" filterUnits="userSpaceOnUse" color-interpolation-filters="sRGB">
<feFlood flood-opacity="0" result="BackgroundImageFix"/>
<feColorMatrix in="SourceAlpha" type="matrix" values="0 0 0 0 0 0 0 0 0 0 0 0 0 0 0 0 0 0 127 0"/>
<feOffset dy="12.86"/>
<feGaussianBlur stdDeviation="11.025"/>
<feColorMatrix type="matrix" values="0 0 0 0 0 0 0 0 0 0 0 0 0 0 0 0 0 0 0.15 0"/>
<feBlend mode="normal" in2="BackgroundImageFix" result="effect1_dropShadow"/>
<feBlend mode="normal" in="SourceGraphic" in2="effect1_dropShadow" result="shape"/>
</filter>
</defs>
</svg>
