<svg width="773" height="737" viewBox="0 0 773 737" fill="none" xmlns="http://www.w3.org/2000/svg">
<rect x="172.332" y="88.8179" width="96.6642" height="96.6642" fill="#063C4D"/>
<rect x="268.996" width="88.8179" height="88.8179" fill="#FFD265"/>
<rect x="357.814" y="88.8179" width="88.8179" height="88.8179" fill="#00D586"/>
<rect x="611.751" y="88.818" width="88.8179" height="88.8179" fill="#063C4D"/>
<rect x="522.933" y="88.818" width="88.8179" height="88.8179" fill="#00D586"/>
<circle cx="567.342" cy="133.227" r="30.007" fill="#FFD265"/>
<circle cx="567.342" cy="44.409" r="44.409" fill="#063C4D"/>
<rect x="611.751" width="88.8179" height="88.8179" fill="#FFD265"/>
<rect x="525.341" y="560.962" width="87.6134" height="87.6134" fill="#FFD265"/>
<rect x="525.341" y="648.576" width="87.6134" height="87.6134" fill="#063C4D"/>
<path d="M481.5 693.33L525.341 648.575V736.006H437.91L481.5 693.33Z" fill="#FFD265"/>
<rect x="612.955" y="560.962" width="87.6134" height="87.6134" fill="#00D586"/>
<rect x="612.955" y="648.576" width="87.6134" height="87.6134" fill="#00D586"/>
<circle cx="656.761" cy="692.382" r="30.007" fill="#FFD265"/>
<rect x="612.955" y="612.317" width="87.6135" height="36.2585" fill="#063C4D"/>
<rect x="87.4307" y="474.516" width="87.4306" height="87.4306" fill="#00D586"/>
<rect x="87.4308" y="561.947" width="87.4306" height="87.4306" fill="#063C4D"/>
<rect x="174.925" y="649.377" width="87.4306" height="87.4306" fill="#00D586"/>
<rect x="107.886" y="582.401" width="46.5208" height="46.5208" fill="#FFD265"/>
<rect y="561.947" width="87.4306" height="87.4306" fill="#FFD265"/>
<circle cx="706.959" cy="414.618" r="65.1905" fill="#FFD265"/>
<rect x="284.15" y="15.1536" width="58.5107" height="58.5107" fill="#063C4D"/>
<rect x="357.814" y="88.8179" width="88.8134" height="45.425" fill="#063C4D"/>
</svg>
