<svg width="1218" height="214" viewBox="0 0 1218 214" fill="none" xmlns="http://www.w3.org/2000/svg">
<g opacity="0.9">
<path d="M610.204 188.848C597.667 188.848 585.546 185.615 575.605 179.552C564.548 172.81 555.751 162.419 550.828 150.292C545.998 138.399 545.045 125.291 548.138 113.379C548.387 112.414 548.665 111.456 548.965 110.502C543.911 112.509 538.908 114.584 533.974 116.634C523.881 120.824 513.445 125.157 502.829 128.781C484.592 135.004 467.757 138.119 452.491 138.119C442.575 138.119 433.323 136.806 424.772 134.17C415.567 131.335 406.846 126.379 399.738 120.068C391.227 121.068 382.672 121.831 374.102 122.352C346.282 124.04 253.267 123.176 225.825 119.788C223.851 119.543 222.468 117.901 222.739 116.119C223.01 114.337 224.829 113.089 226.804 113.333C260.421 117.487 359.945 117.722 393.88 114.128C393.32 113.476 392.779 112.815 392.252 112.147C383.744 101.287 380.394 88.9184 382.823 77.3123C385.429 64.8525 394.057 54.1262 407.77 46.2932C419.736 39.4572 435.128 35.3615 449.993 35.0585C464.143 34.7685 476.045 37.1764 485.358 42.217C497.1 48.5707 504.58 59.7011 504.417 70.5676C504.269 80.5153 498.728 89.2606 487.953 96.5624C477.799 103.444 465.103 107.53 456.242 109.746C440.803 113.607 425.046 116.653 409.12 118.862C414.614 122.909 420.808 126.063 427.097 128.002C447.178 134.186 471.796 132.397 500.27 122.681C510.648 119.139 520.968 114.855 530.949 110.71C537.941 107.807 545.059 104.852 552.315 102.098C561.379 83.4771 579.962 68.1695 602.429 61.5486C627.516 54.1588 657.03 57.3975 681.377 70.2092C692.77 76.2045 702.808 84.0179 712.468 91.7304C713.688 88.5568 715.128 85.4679 716.774 82.5061C722.521 72.1577 730.719 63.5101 740.479 57.5018C750.659 51.2361 763.239 47.8116 775.873 47.8735C788.987 47.9321 801.271 51.7965 810.461 58.7465C820.37 66.2439 826.615 78.1758 827.16 90.6617C827.669 102.219 823.413 112.61 815.176 119.915C805.866 128.175 792.893 132.072 777.66 131.179C764.535 130.41 750.702 126.141 738.707 119.159C730.758 114.532 723.423 109.074 716.37 103.532C715.54 107.217 715.013 110.994 714.811 114.819C713.775 134.47 723.644 157.363 744.504 163.087C763.874 168.405 783.522 157.773 802.524 147.493C803.877 146.76 805.224 146.03 806.559 145.317C834.296 130.436 862.445 121.049 892.612 116.617C919.649 112.646 1019.01 112.443 1055.03 115.979C1057.01 116.174 1058.44 117.781 1058.23 119.569C1058.01 121.358 1056.23 122.652 1054.25 122.456C902.836 115.533 861.218 123.574 810.245 150.918C808.916 151.631 807.577 152.355 806.231 153.084C790.514 161.589 773.093 171.012 755.121 171.012C750.904 171.012 746.659 170.494 742.396 169.324C730.943 166.18 721.554 158.656 715.24 147.571C709.699 137.839 706.981 126.099 707.591 114.513C707.873 109.143 708.75 103.802 710.187 98.6217C710.06 98.5207 709.937 98.423 709.815 98.322C699.758 90.2772 689.355 81.9554 677.735 75.8396C655.138 63.9467 627.82 60.923 604.663 67.7427C586.712 73.0309 571.49 84.3568 562.44 98.4425C565.508 97.3998 568.602 96.4126 571.721 95.5035C586.484 91.1862 601.241 89.3746 614.399 90.2674C630.346 91.3492 643.352 96.2562 653.055 104.858C662.636 113.349 668.025 125.851 667.848 139.165C667.671 152.309 662.127 164.853 652.637 173.579C643.193 182.263 629.964 187.619 615.388 188.655C613.662 188.786 611.93 188.848 610.204 188.848ZM557.841 107.093C556.747 109.632 555.852 112.225 555.166 114.868C549.405 137.057 559.7 161.989 579.648 174.153C600.292 186.74 630.729 184.439 647.496 169.024C664.874 153.042 665.119 124.682 648.012 109.518C632.364 95.6469 604.681 92.7307 573.959 101.714C568.537 103.297 563.162 105.125 557.841 107.093ZM718.384 96.4582C726.084 102.581 734.061 108.7 742.631 113.688C763.416 125.79 793.275 130.221 810.126 115.272C816.89 109.27 820.381 100.622 819.955 90.9256C819.486 80.2448 814.208 70.0854 805.83 63.748C789.806 51.6238 763.463 51.2556 744.555 62.891C732.423 70.3591 723.178 82.4572 718.384 96.4582ZM452.278 41.5491C451.581 41.5491 450.878 41.5556 450.166 41.5719C424.599 42.0965 394.797 55.2275 389.924 78.5212C387.245 91.3296 392.967 103.711 402.439 113.141C419.993 110.941 437.352 107.716 454.325 103.47C467.118 100.27 496.909 90.6486 497.208 70.4829C497.338 61.8907 491.231 52.9923 481.654 47.8083C473.98 43.6507 464.104 41.5491 452.278 41.5491Z" fill="#85959A"/>
<path d="M1072.05 117.709C1075.11 120.069 1074.43 124.876 1070.82 126.312L1055.02 132.602C1051.45 134.023 1047.69 131.072 1048.23 127.275L1050.6 110.649C1051.15 106.852 1055.59 105.036 1058.62 107.372L1072.05 117.709Z" fill="#85959A"/>
</g>
<circle cx="1168.37" cy="122.3" r="49.2998" fill="#85959A"/>
<path d="M1151.07 104L1186.6 139.529" stroke="white" stroke-width="6" stroke-linecap="round" stroke-linejoin="round"/>
<path d="M1186.6 104L1151.07 139.529" stroke="white" stroke-width="6" stroke-linecap="round" stroke-linejoin="round"/>
<g filter="url(#filter0_dd)">
<circle cx="324.351" cy="117.492" r="31.7962" fill="white"/>
</g>
<g filter="url(#filter1_dd)">
<circle cx="440.759" cy="40.7962" r="31.7962" fill="white"/>
</g>
<g filter="url(#filter2_dd)">
<circle cx="504.351" cy="131.796" r="31.7962" fill="white"/>
</g>
<g filter="url(#filter3_dd)">
<circle cx="622.64" cy="175.084" r="31.7962" fill="white"/>
</g>
<g filter="url(#filter4_dd)">
<circle cx="659.777" cy="61.3489" r="31.7962" fill="white"/>
</g>
<path d="M673.664 53.2974H645.89" stroke="#85959A" stroke-width="4" stroke-linecap="round" stroke-linejoin="round"/>
<path d="M654.436 46.8877L645.89 53.2971L654.436 59.7065" stroke="#85959A" stroke-width="4" stroke-linecap="round" stroke-linejoin="round"/>
<path d="M645.89 69.4001H673.664" stroke="#85959A" stroke-width="4" stroke-linecap="round" stroke-linejoin="round"/>
<path d="M665.118 62.991L673.664 69.4004L665.118 75.8098" stroke="#85959A" stroke-width="4" stroke-linecap="round" stroke-linejoin="round"/>
<path d="M610.751 163.196L634.528 186.974" stroke="#85959A" stroke-width="4" stroke-linecap="round" stroke-linejoin="round"/>
<path d="M634.528 163.196L610.751 186.974" stroke="#85959A" stroke-width="4" stroke-linecap="round" stroke-linejoin="round"/>
<g filter="url(#filter5_dd)">
<circle cx="808.916" cy="71.4925" r="31.7962" fill="white"/>
</g>
<path d="M797.028 59.6038L820.805 83.381" stroke="#85959A" stroke-width="4" stroke-linecap="round" stroke-linejoin="round"/>
<path d="M820.805 59.6038L797.028 83.381" stroke="#85959A" stroke-width="4" stroke-linecap="round" stroke-linejoin="round"/>
<path d="M454.251 29.5527H427.266C426.024 29.5527 425.018 30.5595 425.018 31.8014V49.791C425.018 51.033 426.024 52.0397 427.266 52.0397H454.251C455.493 52.0397 456.499 51.033 456.499 49.791V31.8014C456.499 30.5595 455.493 29.5527 454.251 29.5527Z" stroke="#85959A" stroke-width="4" stroke-linecap="round" stroke-linejoin="round"/>
<path d="M455.991 30.3774L443.782 39.768C442.915 40.4349 441.852 40.7965 440.758 40.7965C439.665 40.7965 438.602 40.4349 437.735 39.768L425.526 30.3774" stroke="#85959A" stroke-width="4" stroke-linecap="round" stroke-linejoin="round"/>
<path d="M322.64 128.122C329.498 128.122 335.057 122.562 335.057 115.705C335.057 108.847 329.498 103.288 322.64 103.288C315.783 103.288 310.223 108.847 310.223 115.705C310.223 122.562 315.783 128.122 322.64 128.122Z" stroke="#85959A" stroke-width="4" stroke-linecap="round" stroke-linejoin="round"/>
<path d="M338.479 131.543L331.436 124.5" stroke="#85959A" stroke-width="4" stroke-linecap="round" stroke-linejoin="round"/>
<path d="M504.351 115V135.302" stroke="#85959A" stroke-width="4" stroke-linecap="round" stroke-linejoin="round"/>
<path d="M504.351 145.462C504.1 145.462 503.855 145.537 503.646 145.676C503.437 145.815 503.275 146.014 503.179 146.245C503.083 146.477 503.058 146.732 503.107 146.979C503.155 147.225 503.276 147.451 503.454 147.628C503.631 147.806 503.857 147.927 504.103 147.975C504.35 148.024 504.605 147.999 504.837 147.903C505.068 147.807 505.267 147.645 505.406 147.436C505.545 147.227 505.62 146.982 505.62 146.731C505.62 146.394 505.486 146.072 505.248 145.834C505.01 145.596 504.688 145.462 504.351 145.462" stroke="#85959A" stroke-width="4" stroke-linecap="round" stroke-linejoin="round"/>
<g filter="url(#filter6_dd)">
<circle cx="924.759" cy="120.326" r="31.7962" fill="white"/>
</g>
<path d="M919.188 134.956H909.751C909.392 134.956 909.048 134.813 908.794 134.559C908.54 134.305 908.397 133.961 908.397 133.601V105.155C908.397 104.796 908.54 104.452 908.794 104.198C909.048 103.943 909.392 103.801 909.751 103.801H927.758C927.936 103.801 928.112 103.836 928.276 103.905C928.44 103.973 928.59 104.073 928.715 104.199L933.737 109.219C933.991 109.473 934.134 109.818 934.134 110.177V113.142" stroke="#85959A" stroke-width="4" stroke-linecap="round" stroke-linejoin="round"/>
<path d="M930.227 133.583C934.438 133.583 937.851 130.17 937.851 125.96C937.851 121.749 934.438 118.336 930.227 118.336C926.017 118.336 922.604 121.749 922.604 125.96C922.604 130.17 926.017 133.583 930.227 133.583Z" stroke="#85959A" stroke-width="4" stroke-linecap="round" stroke-linejoin="round"/>
<path d="M941.12 136.852L935.653 131.385" stroke="#85959A" stroke-width="4" stroke-linecap="round" stroke-linejoin="round"/>
<path d="M27.1472 98.545L20.9557 79.421H16.3763L10.2947 98.3984L5.09239 79.421H0.476257L7.84008 105.396H12.3463L18.6477 85.759L24.9491 105.396H29.4919L36.7825 79.421H32.2396L27.1472 98.545Z" fill="#576F76"/>
<path d="M44.205 105.396V87.5542H39.9918V105.396H44.205ZM39.3324 81.2895C39.3324 82.8282 40.578 84.0372 42.0801 84.0372C43.6188 84.0372 44.8644 82.8282 44.8644 81.2895C44.8644 79.7507 43.6188 78.5051 42.0801 78.5051C40.578 78.5051 39.3324 79.7507 39.3324 81.2895Z" fill="#576F76"/>
<path d="M55.073 82.0954H51.2262V84.7699C51.2262 86.3452 50.3836 87.5542 48.4785 87.5542H47.5626V91.3277H50.8598V100.304C50.8598 103.637 52.9114 105.616 56.2087 105.616C57.7474 105.616 58.5534 105.323 58.8098 105.213V101.696C58.6267 101.732 57.9306 101.842 57.3444 101.842C55.769 101.842 55.073 101.183 55.073 99.6074V91.3277H58.7732V87.5542H55.073V82.0954Z" fill="#576F76"/>
<path d="M66.8886 94.918C66.9619 92.6466 68.2442 90.8881 70.5889 90.8881C73.2633 90.8881 74.2524 92.6466 74.2524 94.8448V105.396H78.5022V94.112C78.5022 90.192 76.3773 87.0413 71.981 87.0413C70.1126 87.0413 68.0976 87.7007 66.8886 89.2761V78.8715H62.6389V105.396H66.8886V94.918Z" fill="#576F76"/>
<path d="M91.516 102.135C88.9148 102.135 86.5335 100.157 86.5335 96.4567C86.5335 92.7565 88.9148 90.8514 91.516 90.8514C94.1538 90.8514 96.4985 92.7565 96.4985 96.4567C96.4985 100.194 94.1538 102.135 91.516 102.135ZM91.516 87.0047C86.2038 87.0047 82.2837 90.998 82.2837 96.4567C82.2837 101.952 86.2038 105.945 91.516 105.945C96.8648 105.945 100.785 101.952 100.785 96.4567C100.785 90.998 96.8648 87.0047 91.516 87.0047Z" fill="#576F76"/>
<path d="M116.398 103.418C116.398 104.15 116.471 104.993 116.545 105.396H120.611C120.538 104.736 120.428 103.601 120.428 102.135V87.5542H116.178V98.1054C116.178 100.45 114.896 102.099 112.441 102.099C109.877 102.099 108.851 100.23 108.851 98.0321V87.5542H104.601V98.8014C104.601 102.758 107.093 105.909 111.342 105.909C113.431 105.909 115.519 105.03 116.398 103.418Z" fill="#576F76"/>
<path d="M131.314 82.0954H127.468V84.7699C127.468 86.3452 126.625 87.5542 124.72 87.5542H123.804V91.3277H127.101V100.304C127.101 103.637 129.153 105.616 132.45 105.616C133.989 105.616 134.795 105.323 135.051 105.213V101.696C134.868 101.732 134.172 101.842 133.586 101.842C132.01 101.842 131.314 101.183 131.314 99.6074V91.3277H135.015V87.5542H131.314V82.0954Z" fill="#576F76"/>
<path d="M19.417 149.396V145.219H7.51036V123.421H3.11404V149.396H19.417Z" fill="#576F76"/>
<path d="M25.9651 138.515C26.1117 136.61 27.6504 134.558 30.3248 134.558C33.2557 134.558 34.6479 136.427 34.7211 138.515H25.9651ZM35.1974 143.168C34.6112 144.926 33.2923 146.282 30.7278 146.282C28.09 146.282 25.9651 144.34 25.8552 141.629H38.8976C38.9343 141.556 39.0075 140.97 39.0075 140.274C39.0075 134.632 35.7836 131.005 30.2882 131.005C25.782 131.005 21.6055 134.742 21.6055 140.383C21.6055 146.428 25.8919 149.945 30.7278 149.945C35.0142 149.945 37.8352 147.418 38.7877 144.304L35.1974 143.168Z" fill="#576F76"/>
<path d="M41.9696 144.56C41.9696 147.381 44.2777 149.945 48.0145 149.945C50.9088 149.945 52.6673 148.48 53.5099 147.124C53.5099 148.553 53.6565 149.286 53.6931 149.396H57.6498C57.6131 149.213 57.43 148.15 57.43 146.538V137.672C57.43 134.119 55.3417 131.005 49.8463 131.005C45.45 131.005 42.6657 133.752 42.336 136.83L46.2194 137.709C46.4026 135.914 47.6482 134.485 49.883 134.485C52.2277 134.485 53.2535 135.694 53.2535 137.196C53.2535 137.819 52.9604 138.332 51.9346 138.478L47.3551 139.174C44.3143 139.614 41.9696 141.373 41.9696 144.56ZM48.8205 146.612C47.1353 146.612 46.2194 145.512 46.2194 144.304C46.2194 142.838 47.2818 142.105 48.6007 141.886L53.2535 141.189V141.995C53.2535 145.476 51.2019 146.612 48.8205 146.612Z" fill="#576F76"/>
<path d="M65.3891 140.42C65.3891 137.013 67.4407 134.851 70.2251 134.851C73.0094 134.851 74.9145 136.976 74.9145 140.383C74.9145 143.791 72.9728 146.099 70.1884 146.099C67.2942 146.099 65.3891 143.827 65.3891 140.42ZM79.0177 122.871H74.8778V133.642C74.3283 132.507 72.7529 131.078 69.6389 131.078C64.6198 131.078 61.1394 135.291 61.1394 140.42C61.1394 145.806 64.5831 149.836 69.7122 149.836C72.24 149.836 74.1085 148.59 74.9511 147.088C74.9511 147.821 75.061 148.993 75.1343 149.396H79.2009C79.1642 149.103 79.0177 147.747 79.0177 146.135V122.871Z" fill="#576F76"/>
<path d="M89.4063 149.396V123.421H84.9367V149.396H89.4063Z" fill="#576F76"/>
<path d="M94.0588 136.39C94.0588 144.926 100.433 149.945 107.248 149.945C109.629 149.945 112.01 149.323 114.025 148.15L117.213 151.631L120.18 149.103L117.103 145.659C119.154 143.388 120.473 140.237 120.473 136.39C120.473 127.891 114.062 122.871 107.248 122.871C100.433 122.871 94.0588 127.891 94.0588 136.39ZM98.565 136.39C98.565 130.125 102.888 127.011 107.248 127.011C111.644 127.011 115.967 130.125 115.967 136.39C115.967 138.918 115.271 140.896 114.172 142.398L109.849 137.599L106.845 140.164L111.131 144.926C109.922 145.512 108.567 145.769 107.248 145.769C102.888 145.769 98.565 142.655 98.565 136.39Z" fill="#576F76"/>
<defs>
<filter id="filter0_dd" x="283.555" y="76.6963" width="79.5924" height="79.5924" filterUnits="userSpaceOnUse" color-interpolation-filters="sRGB">
<feFlood flood-opacity="0" result="BackgroundImageFix"/>
<feColorMatrix in="SourceAlpha" type="matrix" values="0 0 0 0 0 0 0 0 0 0 0 0 0 0 0 0 0 0 127 0"/>
<feOffset dx="-1" dy="-1"/>
<feGaussianBlur stdDeviation="4"/>
<feColorMatrix type="matrix" values="0 0 0 0 0.0235294 0 0 0 0 0.235294 0 0 0 0 0.301961 0 0 0 0.1 0"/>
<feBlend mode="normal" in2="BackgroundImageFix" result="effect1_dropShadow"/>
<feColorMatrix in="SourceAlpha" type="matrix" values="0 0 0 0 0 0 0 0 0 0 0 0 0 0 0 0 0 0 127 0"/>
<feOffset/>
<feGaussianBlur stdDeviation="1.5"/>
<feColorMatrix type="matrix" values="0 0 0 0 0 0 0 0 0 0 0 0 0 0 0 0 0 0 0.09 0"/>
<feBlend mode="normal" in2="effect1_dropShadow" result="effect2_dropShadow"/>
<feBlend mode="normal" in="SourceGraphic" in2="effect2_dropShadow" result="shape"/>
</filter>
<filter id="filter1_dd" x="399.962" y="0" width="79.5924" height="79.5924" filterUnits="userSpaceOnUse" color-interpolation-filters="sRGB">
<feFlood flood-opacity="0" result="BackgroundImageFix"/>
<feColorMatrix in="SourceAlpha" type="matrix" values="0 0 0 0 0 0 0 0 0 0 0 0 0 0 0 0 0 0 127 0"/>
<feOffset dx="-1" dy="-1"/>
<feGaussianBlur stdDeviation="4"/>
<feColorMatrix type="matrix" values="0 0 0 0 0.0235294 0 0 0 0 0.235294 0 0 0 0 0.301961 0 0 0 0.1 0"/>
<feBlend mode="normal" in2="BackgroundImageFix" result="effect1_dropShadow"/>
<feColorMatrix in="SourceAlpha" type="matrix" values="0 0 0 0 0 0 0 0 0 0 0 0 0 0 0 0 0 0 127 0"/>
<feOffset/>
<feGaussianBlur stdDeviation="1.5"/>
<feColorMatrix type="matrix" values="0 0 0 0 0 0 0 0 0 0 0 0 0 0 0 0 0 0 0.09 0"/>
<feBlend mode="normal" in2="effect1_dropShadow" result="effect2_dropShadow"/>
<feBlend mode="normal" in="SourceGraphic" in2="effect2_dropShadow" result="shape"/>
</filter>
<filter id="filter2_dd" x="463.555" y="91" width="79.5924" height="79.5924" filterUnits="userSpaceOnUse" color-interpolation-filters="sRGB">
<feFlood flood-opacity="0" result="BackgroundImageFix"/>
<feColorMatrix in="SourceAlpha" type="matrix" values="0 0 0 0 0 0 0 0 0 0 0 0 0 0 0 0 0 0 127 0"/>
<feOffset dx="-1" dy="-1"/>
<feGaussianBlur stdDeviation="4"/>
<feColorMatrix type="matrix" values="0 0 0 0 0.0235294 0 0 0 0 0.235294 0 0 0 0 0.301961 0 0 0 0.1 0"/>
<feBlend mode="normal" in2="BackgroundImageFix" result="effect1_dropShadow"/>
<feColorMatrix in="SourceAlpha" type="matrix" values="0 0 0 0 0 0 0 0 0 0 0 0 0 0 0 0 0 0 127 0"/>
<feOffset/>
<feGaussianBlur stdDeviation="1.5"/>
<feColorMatrix type="matrix" values="0 0 0 0 0 0 0 0 0 0 0 0 0 0 0 0 0 0 0.09 0"/>
<feBlend mode="normal" in2="effect1_dropShadow" result="effect2_dropShadow"/>
<feBlend mode="normal" in="SourceGraphic" in2="effect2_dropShadow" result="shape"/>
</filter>
<filter id="filter3_dd" x="581.843" y="134.288" width="79.5924" height="79.5924" filterUnits="userSpaceOnUse" color-interpolation-filters="sRGB">
<feFlood flood-opacity="0" result="BackgroundImageFix"/>
<feColorMatrix in="SourceAlpha" type="matrix" values="0 0 0 0 0 0 0 0 0 0 0 0 0 0 0 0 0 0 127 0"/>
<feOffset dx="-1" dy="-1"/>
<feGaussianBlur stdDeviation="4"/>
<feColorMatrix type="matrix" values="0 0 0 0 0.0235294 0 0 0 0 0.235294 0 0 0 0 0.301961 0 0 0 0.1 0"/>
<feBlend mode="normal" in2="BackgroundImageFix" result="effect1_dropShadow"/>
<feColorMatrix in="SourceAlpha" type="matrix" values="0 0 0 0 0 0 0 0 0 0 0 0 0 0 0 0 0 0 127 0"/>
<feOffset/>
<feGaussianBlur stdDeviation="1.5"/>
<feColorMatrix type="matrix" values="0 0 0 0 0 0 0 0 0 0 0 0 0 0 0 0 0 0 0.09 0"/>
<feBlend mode="normal" in2="effect1_dropShadow" result="effect2_dropShadow"/>
<feBlend mode="normal" in="SourceGraphic" in2="effect2_dropShadow" result="shape"/>
</filter>
<filter id="filter4_dd" x="618.981" y="20.5527" width="79.5924" height="79.5924" filterUnits="userSpaceOnUse" color-interpolation-filters="sRGB">
<feFlood flood-opacity="0" result="BackgroundImageFix"/>
<feColorMatrix in="SourceAlpha" type="matrix" values="0 0 0 0 0 0 0 0 0 0 0 0 0 0 0 0 0 0 127 0"/>
<feOffset dx="-1" dy="-1"/>
<feGaussianBlur stdDeviation="4"/>
<feColorMatrix type="matrix" values="0 0 0 0 0.0235294 0 0 0 0 0.235294 0 0 0 0 0.301961 0 0 0 0.1 0"/>
<feBlend mode="normal" in2="BackgroundImageFix" result="effect1_dropShadow"/>
<feColorMatrix in="SourceAlpha" type="matrix" values="0 0 0 0 0 0 0 0 0 0 0 0 0 0 0 0 0 0 127 0"/>
<feOffset/>
<feGaussianBlur stdDeviation="1.5"/>
<feColorMatrix type="matrix" values="0 0 0 0 0 0 0 0 0 0 0 0 0 0 0 0 0 0 0.09 0"/>
<feBlend mode="normal" in2="effect1_dropShadow" result="effect2_dropShadow"/>
<feBlend mode="normal" in="SourceGraphic" in2="effect2_dropShadow" result="shape"/>
</filter>
<filter id="filter5_dd" x="768.12" y="30.6963" width="79.5924" height="79.5924" filterUnits="userSpaceOnUse" color-interpolation-filters="sRGB">
<feFlood flood-opacity="0" result="BackgroundImageFix"/>
<feColorMatrix in="SourceAlpha" type="matrix" values="0 0 0 0 0 0 0 0 0 0 0 0 0 0 0 0 0 0 127 0"/>
<feOffset dx="-1" dy="-1"/>
<feGaussianBlur stdDeviation="4"/>
<feColorMatrix type="matrix" values="0 0 0 0 0.0235294 0 0 0 0 0.235294 0 0 0 0 0.301961 0 0 0 0.1 0"/>
<feBlend mode="normal" in2="BackgroundImageFix" result="effect1_dropShadow"/>
<feColorMatrix in="SourceAlpha" type="matrix" values="0 0 0 0 0 0 0 0 0 0 0 0 0 0 0 0 0 0 127 0"/>
<feOffset/>
<feGaussianBlur stdDeviation="1.5"/>
<feColorMatrix type="matrix" values="0 0 0 0 0 0 0 0 0 0 0 0 0 0 0 0 0 0 0.09 0"/>
<feBlend mode="normal" in2="effect1_dropShadow" result="effect2_dropShadow"/>
<feBlend mode="normal" in="SourceGraphic" in2="effect2_dropShadow" result="shape"/>
</filter>
<filter id="filter6_dd" x="883.962" y="79.5303" width="79.5924" height="79.5924" filterUnits="userSpaceOnUse" color-interpolation-filters="sRGB">
<feFlood flood-opacity="0" result="BackgroundImageFix"/>
<feColorMatrix in="SourceAlpha" type="matrix" values="0 0 0 0 0 0 0 0 0 0 0 0 0 0 0 0 0 0 127 0"/>
<feOffset dx="-1" dy="-1"/>
<feGaussianBlur stdDeviation="4"/>
<feColorMatrix type="matrix" values="0 0 0 0 0.0235294 0 0 0 0 0.235294 0 0 0 0 0.301961 0 0 0 0.1 0"/>
<feBlend mode="normal" in2="BackgroundImageFix" result="effect1_dropShadow"/>
<feColorMatrix in="SourceAlpha" type="matrix" values="0 0 0 0 0 0 0 0 0 0 0 0 0 0 0 0 0 0 127 0"/>
<feOffset/>
<feGaussianBlur stdDeviation="1.5"/>
<feColorMatrix type="matrix" values="0 0 0 0 0 0 0 0 0 0 0 0 0 0 0 0 0 0 0.09 0"/>
<feBlend mode="normal" in2="effect1_dropShadow" result="effect2_dropShadow"/>
<feBlend mode="normal" in="SourceGraphic" in2="effect2_dropShadow" result="shape"/>
</filter>
</defs>
</svg>
