<svg id="Layer_1" data-name="Layer 1" xmlns="http://www.w3.org/2000/svg" xmlns:xlink="http://www.w3.org/1999/xlink" viewBox="0 0 181 43"><defs><style>.cls-1{fill:#fff;}.cls-1,.cls-2{fill-rule:evenodd;}.cls-2{fill:#85959a;}.cls-3{mask:url(#mask);}.cls-4{mask:url(#mask-2);}</style><mask id="mask" x="1.05" y="24.77" width="39.21" height="16.14" maskUnits="userSpaceOnUse"><g id="b"><path id="a" class="cls-1" d="M40.26,40.92H1.05V24.77H40.26Z"/></g></mask><mask id="mask-2" x="1.05" y="24.77" width="39.21" height="16.17" maskUnits="userSpaceOnUse"><g id="b-2" data-name="b"><path id="a-2" data-name="a" class="cls-1" d="M40.26,40.92H1.05V24.77H40.26Z"/></g></mask></defs><path class="cls-2" d="M67.69,20.84l-3.26-.71A2.81,2.81,0,0,1,61.9,17.3c0-1.87,1.67-3.28,3.87-3.28A4.06,4.06,0,0,1,69.92,17a.89.89,0,0,0,.44.53.82.82,0,0,0,.67,0l1.72-.6a.86.86,0,0,0,.53-1.05c-.44-1.56-2.07-5.18-7.58-5.18-4.09,0-7.54,3.13-7.54,6.83,0,3.17,2.09,5.52,5.59,6.28l3.1.68c1.87.39,3,1.53,3,3.05,0,1.93-1.59,3.13-4.15,3.13a4.61,4.61,0,0,1-4.81-3.82.84.84,0,0,0-1-.68l-.11,0-1.88.6a.84.84,0,0,0-.58,1c.58,3.06,3.1,6.33,8.41,6.33,4.48,0,7.86-2.92,7.86-6.79,0-3.27-2.15-5.62-5.92-6.45m19.28,3a.17.17,0,0,1,0,.14.16.16,0,0,1-.13.06H79.86a.15.15,0,0,1-.14-.07.15.15,0,0,1,0-.13,3.64,3.64,0,0,1,3.61-2.9A3.37,3.37,0,0,1,87,23.81Zm-3.69-6.13c-3.64,0-7.41,3.05-7.41,8.15a8.29,8.29,0,0,0,2.33,6.06,7.68,7.68,0,0,0,5.45,2.17,7,7,0,0,0,6.76-4.35.94.94,0,0,0,0-.7.85.85,0,0,0-.5-.45L88.35,28a.86.86,0,0,0-1.06.47,3.66,3.66,0,0,1-3.67,2.33,4,4,0,0,1-4.07-3.61.18.18,0,0,1,0-.13.18.18,0,0,1,.13-.06H89.82a.86.86,0,0,0,.86-.81c0-.14,0-.3,0-.46,0-5-2.85-8.08-7.44-8.08Zm17.18,12.1c-2.42,0-3.93-1.68-3.93-4.38S98.06,21,100.44,21s3.87,1.76,3.87,4.38-1.55,4.39-3.87,4.39Zm6.46-11.64h-1.82a.86.86,0,0,0-.86.88.2.2,0,0,1-.11.17.16.16,0,0,1-.17,0A5.62,5.62,0,0,0,100,17.87c-4.13,0-7.13,3.17-7.13,7.53s3,7.5,7.13,7.5a5.66,5.66,0,0,0,3.9-1.42.16.16,0,0,1,.17,0,.17.17,0,0,1,.11.16v.63c0,3-1.33,4.45-4.18,4.45a3.57,3.57,0,0,1-3.61-2.85.84.84,0,0,0-.37-.54.9.9,0,0,0-.66-.11l-1.79.42a.86.86,0,0,0-.64,1c.64,3.15,3.48,5.26,7.07,5.26a7.47,7.47,0,0,0,6-2.42,8.15,8.15,0,0,0,1.69-5.32V19a.85.85,0,0,0-.85-.85Zm21.71-.43a5.67,5.67,0,0,0-4.75,2.21.17.17,0,0,1-.17.08.14.14,0,0,1-.12-.06,5,5,0,0,0-4.33-2.23,5.8,5.8,0,0,0-3.85,1.41.17.17,0,0,1-.19,0,.18.18,0,0,1-.1-.16.86.86,0,0,0-.86-.85h-1.73a.85.85,0,0,0-.86.85V32.75a.87.87,0,0,0,.86.86h1.82a.86.86,0,0,0,.86-.86V24.37a3.09,3.09,0,0,1,3.1-3.41c2.43,0,2.79,1.91,2.79,3v8.76a.86.86,0,0,0,.86.86h1.85a.86.86,0,0,0,.86-.86V24.34A3.09,3.09,0,0,1,127.72,21c2.43,0,2.79,1.91,2.79,3v8.76a.85.85,0,0,0,.86.86h1.82a.86.86,0,0,0,.86-.86V23.69c0-4.12-2.73-6-5.44-6M141,24a.26.26,0,0,1-.15-.07.17.17,0,0,1,0-.14,3.62,3.62,0,0,1,3.6-2.89,3.38,3.38,0,0,1,3.67,2.89.16.16,0,0,1,0,.13.2.2,0,0,1-.14.06H141Zm3.39-6.33c-3.64,0-7.41,3-7.41,8.14a8.29,8.29,0,0,0,2.34,6.07,7.63,7.63,0,0,0,5.44,2.16,7,7,0,0,0,6.76-4.36.87.87,0,0,0,0-.69.86.86,0,0,0-.51-.46L149.44,28a.86.86,0,0,0-1.06.47,3.66,3.66,0,0,1-3.67,2.33,4,4,0,0,1-4.07-3.61.16.16,0,0,1,0-.13.17.17,0,0,1,.13-.07h10.1a.86.86,0,0,0,.86-.8c0-.14,0-.3,0-.46,0-5-2.85-8.09-7.44-8.09Zm18.3,0a5.45,5.45,0,0,0-3.92,1.52.15.15,0,0,1-.18,0,.17.17,0,0,1-.1-.16V19a.86.86,0,0,0-.86-.85H155.8a.85.85,0,0,0-.86.85V32.76a.86.86,0,0,0,.86.86h1.85a.87.87,0,0,0,.86-.86v-8c0-1.79.81-3.71,3.1-3.71,2,0,3.1,1.14,3.1,3.38v8.36a.85.85,0,0,0,.85.85h1.86a.87.87,0,0,0,.86-.86V23.9c0-3.81-2.16-6.18-5.63-6.18m14.27,3.73h2.17a.86.86,0,0,0,.85-.86V19a.85.85,0,0,0-.85-.85h-2.17a.18.18,0,0,1-.17-.18h0V14.34a.86.86,0,0,0-.86-.85h-1.61a.86.86,0,0,0-.86.85v1.88a1.73,1.73,0,0,1-1.93,1.94h-.28a.85.85,0,0,0-.85.85v1.58a.86.86,0,0,0,.85.86H173a.16.16,0,0,1,.17.17v7.6a4.18,4.18,0,0,0,4.46,4.55,7.23,7.23,0,0,0,1.65-.18.85.85,0,0,0,.66-.83V31.29a.85.85,0,0,0-.86-.85H179l-.53,0c-1.25,0-1.71-.46-1.71-1.68V21.62a.17.17,0,0,1,.17-.17"/><g class="cls-3"><path class="cls-2" d="M26.88,28.75H3a2,2,0,0,1,0-4H26.88a2,2,0,0,1,0,4"/></g><g class="cls-4"><path class="cls-2" d="M21.77,41a19.25,19.25,0,0,1-5.7-.86,2,2,0,0,1,1.18-3.81,15,15,0,0,0,4.52.68A15.17,15.17,0,0,0,36.36,26.18a2,2,0,0,1,2.49-1.32h0a2,2,0,0,1,1.32,2.48A19.13,19.13,0,0,1,21.77,41"/></g><path class="cls-2" d="M40.5,18.64H16.66a2,2,0,1,1,0-4H40.5a2,2,0,1,1,0,4"/><path class="cls-2" d="M5.28,18.64a2,2,0,0,1-2-2,2.32,2.32,0,0,1,.08-.58A19.26,19.26,0,0,1,27.47,3.33a2,2,0,0,1,1.32,2.49h0A2,2,0,0,1,26.3,7.13h0a15.34,15.34,0,0,0-4.53-.67A15.18,15.18,0,0,0,7.18,17.24a2,2,0,0,1-1.9,1.41"/><path class="cls-2" d="M35.57,9.07a2,2,0,1,1-2-2,2,2,0,0,1,2,2M12,34.35a2,2,0,1,1-2-2,2,2,0,0,1,2,2"/></svg>