<svg width="161" height="30" viewBox="0 0 161 30" fill="none" xmlns="http://www.w3.org/2000/svg">
<path d="M63.1131 19.482C63.6285 20.1164 64.2532 20.6536 64.9576 21.0683C65.6828 21.4987 66.5122 21.722 67.3554 21.7139C67.7471 21.714 68.1362 21.6517 68.5083 21.5294C68.8465 21.4105 69.1594 21.229 69.4305 20.9945C69.6958 20.7655 69.9176 20.4906 70.0853 20.1829C70.2543 19.852 70.3398 19.4847 70.3343 19.1131C70.3468 18.8197 70.2992 18.5269 70.1945 18.2526C70.0899 17.9782 69.9303 17.7281 69.7256 17.5176C69.2838 17.0851 68.7725 16.7297 68.2131 16.4662C67.582 16.1543 66.9356 15.8742 66.2764 15.627C65.6101 15.386 64.9703 15.0769 64.3673 14.7047C63.7437 14.3023 63.2074 13.7785 62.7903 13.1646C62.3464 12.4899 62.124 11.6936 62.1539 10.8866C62.1567 10.2717 62.292 9.66456 62.5505 9.10663C62.8184 8.54654 63.1945 8.04503 63.6572 7.63102C64.1457 7.20359 64.7084 6.86914 65.3173 6.64421C65.9867 6.39524 66.6966 6.27326 67.4108 6.28453C67.9225 6.28451 68.4328 6.34017 68.9325 6.45053C69.3723 6.54694 69.8016 6.68593 70.2144 6.86555C70.8819 7.15847 71.5032 7.5468 72.0589 8.01837L70.6018 9.86288C69.7742 9.08513 68.6932 8.63307 67.5583 8.59017C67.2026 8.5884 66.8485 8.6381 66.507 8.73772C66.1767 8.83649 65.8651 8.98919 65.5847 9.18963C65.3179 9.38404 65.0948 9.63224 64.9299 9.91821C64.7617 10.2229 64.6759 10.5662 64.6809 10.9142C64.6755 11.1726 64.7272 11.4289 64.8324 11.6649C64.9377 11.9008 65.0938 12.1106 65.2896 12.2792C65.7406 12.6762 66.247 13.0055 66.7929 13.2568C67.4016 13.5519 68.0471 13.8286 68.7296 14.1145C69.3732 14.3607 69.991 14.6696 70.5741 15.0367C70.8768 15.2315 71.1608 15.4538 71.4226 15.7008C71.6937 15.9555 71.935 16.2401 72.142 16.5492C72.3607 16.8867 72.5314 17.253 72.6492 17.6375C72.775 18.0783 72.8371 18.5348 72.8336 18.9932C72.8491 19.6833 72.7181 20.3688 72.4495 21.0047C72.1808 21.6405 71.7806 22.2122 71.275 22.6822C70.7781 23.1239 70.2024 23.4681 69.5781 23.6967C68.8961 23.9344 68.1791 24.056 67.4569 24.0564C66.3023 24.0593 65.1616 23.804 64.1183 23.3094C63.0457 22.8069 62.1 22.0693 61.3516 21.1513L63.1131 19.482Z" fill="#85959A"/>
<path d="M77.3803 13.2016C77.7934 12.8657 78.2455 12.5808 78.7268 12.3531C79.375 12.0597 80.0815 11.9178 80.7927 11.9381C81.6215 11.9303 82.4403 12.12 83.1813 12.4914C83.8979 12.8487 84.5276 13.3587 85.0258 13.9855C85.4156 14.4855 85.7066 15.0552 85.8835 15.664C86.0917 16.4677 86.1879 17.2964 86.1694 18.1264V23.8167H83.8177V17.9973C83.838 17.4221 83.7727 16.8471 83.624 16.2911C83.5207 15.9323 83.3484 15.5971 83.1167 15.3043C82.8316 14.9537 82.4726 14.6702 82.0654 14.4743C81.6477 14.2646 81.1862 14.1572 80.7189 14.1607C80.0202 14.1377 79.3294 14.3136 78.7268 14.668C78.2152 14.9722 77.7598 15.3622 77.3803 15.8208V23.8167H75.0286V6.23856H77.3803V13.2016Z" fill="#85959A"/>
<path d="M87.9677 17.9972C87.9591 17.1751 88.1159 16.3597 88.4288 15.5994C88.7175 14.8792 89.1471 14.2239 89.6923 13.6719C90.2318 13.1197 90.8782 12.6835 91.5922 12.3899C93.1287 11.7766 94.8421 11.7766 96.3787 12.3899C97.0926 12.6835 97.7391 13.1197 98.2785 13.6719C98.8238 14.2239 99.2533 14.8792 99.542 15.5994C100.151 17.1464 100.151 18.8665 99.542 20.4135C99.2476 21.128 98.8187 21.7793 98.2785 22.3318C97.7329 22.8786 97.084 23.3112 96.3694 23.6046C94.8356 24.2154 93.126 24.2154 91.5922 23.6046C90.8789 23.3088 90.2304 22.8765 89.6831 22.3318C89.1457 21.7789 88.7199 21.1276 88.4288 20.4135C88.115 19.6471 87.9582 18.8254 87.9677 17.9972V17.9972ZM90.3194 17.9972C90.3184 18.5111 90.4122 19.0207 90.5961 19.5005C90.7653 19.953 91.0188 20.3692 91.3432 20.7271C91.6717 21.0692 92.0631 21.3448 92.496 21.5387C92.9664 21.735 93.4711 21.8361 93.9808 21.8361C94.4905 21.8361 94.9952 21.735 95.4656 21.5387C95.9025 21.3519 96.2952 21.0754 96.6185 20.7271C96.9487 20.3719 97.2057 19.9551 97.3747 19.5005C97.7437 18.5355 97.7437 17.4682 97.3747 16.5032C97.2057 16.0486 96.9487 15.6318 96.6185 15.2766C96.2956 14.9256 95.9029 14.6461 95.4656 14.4558C94.5041 14.0552 93.423 14.0519 92.4591 14.4466C92.0245 14.6415 91.6327 14.9205 91.3063 15.2674C90.9819 15.6253 90.7284 16.0415 90.5592 16.494C90.3875 16.976 90.3062 17.4857 90.3194 17.9972V17.9972Z" fill="#85959A"/>
<path d="M110.637 12.1778L113.828 20.1277L117.019 12.1778H119.444L114.722 23.8167H113.081L109.816 15.6455L106.551 23.8167H104.919L100.188 12.1778H102.604L105.795 20.1277L108.995 12.1778H110.637Z" fill="#85959A"/>
<path d="M123.548 29.7559H121.197V12.1777H123.475V13.2476C123.975 12.8032 124.558 12.4616 125.19 12.2423C125.808 12.0359 126.456 11.9331 127.108 11.938C127.628 11.929 128.147 11.9942 128.648 12.1316C129.106 12.2569 129.546 12.4398 129.958 12.6758C130.848 13.2091 131.59 13.9575 132.116 14.8523C132.658 15.8103 132.942 16.8921 132.942 17.9926C132.942 19.093 132.658 20.1748 132.116 21.1328C131.59 22.0228 130.848 22.7652 129.958 23.2909C129.533 23.5369 129.077 23.7261 128.602 23.8535C128.091 23.993 127.564 24.0644 127.034 24.0656C125.747 24.0921 124.496 23.6421 123.521 22.8021L123.548 29.7559ZM123.548 20.1829C123.929 20.6984 124.425 21.1182 124.996 21.4095C125.503 21.6697 126.06 21.8153 126.629 21.836C127.198 21.8567 127.765 21.752 128.289 21.5294C128.745 21.3303 129.161 21.049 129.515 20.6994C129.86 20.3537 130.133 19.9431 130.318 19.4912C130.509 19.0165 130.606 18.509 130.604 17.9972C130.602 17.0058 130.234 16.0501 129.571 15.3134C129.255 14.9468 128.865 14.6514 128.427 14.4465C127.941 14.2368 127.416 14.13 126.887 14.1329C126.218 14.1266 125.559 14.2883 124.969 14.6033C124.427 14.8986 123.952 15.3039 123.576 15.793L123.548 20.1829Z" fill="#85959A"/>
<path d="M144.106 22.7469C143.625 23.1731 143.068 23.5047 142.464 23.7245C141.836 23.9457 141.175 24.058 140.509 24.0565C139.488 24.0516 138.486 23.7883 137.594 23.291C136.673 22.7495 135.912 21.9734 135.389 21.0418C134.866 20.1102 134.599 19.0565 134.616 17.9881C134.598 16.8834 134.885 15.7951 135.446 14.8432C135.983 13.9441 136.742 13.1979 137.65 12.6759C138.06 12.4361 138.5 12.253 138.959 12.1317C139.461 11.9952 139.979 11.927 140.5 11.9288C141.151 11.9317 141.799 12.0375 142.418 12.2424C143.043 12.4579 143.618 12.8001 144.106 13.2477V12.1779H146.384V23.8167H144.106V22.7469ZM144.032 15.8115C143.652 15.322 143.175 14.9168 142.63 14.6218C142.04 14.3069 141.38 14.1452 140.712 14.1515C140.182 14.1441 139.656 14.2511 139.171 14.465C138.727 14.6606 138.328 14.9464 138 15.3043C137.498 15.8598 137.162 16.5448 137.03 17.2817C136.898 18.0186 136.975 18.7777 137.253 19.4729C137.438 19.9298 137.714 20.344 138.065 20.6903C138.645 21.2731 139.396 21.656 140.208 21.7837C141.021 21.9114 141.853 21.7771 142.584 21.4004C143.153 21.1066 143.648 20.6872 144.032 20.1738V15.8115Z" fill="#85959A"/>
<path d="M157.838 23.5676C157.359 23.9918 156.805 24.3233 156.205 24.5452C155.408 24.8211 154.56 24.9251 153.72 24.8504C152.879 24.7757 152.063 24.524 151.327 24.1118C150.405 23.5703 149.644 22.7942 149.121 21.8625C148.598 20.9309 148.331 19.8772 148.348 18.8088C148.33 17.7041 148.617 16.6159 149.178 15.6639C149.711 14.7815 150.456 14.0461 151.345 13.5243C151.755 13.2845 152.196 13.1014 152.655 12.9801C153.772 12.6843 154.952 12.7228 156.049 13.0908C156.667 13.2954 157.245 13.6076 157.755 14.0131V7.06848H160.106V24.5913H157.838V23.5676ZM157.764 16.6323C157.384 16.1427 156.907 15.7376 156.362 15.4426C155.772 15.1276 155.113 14.9659 154.444 14.9722C153.914 14.9701 153.39 15.0768 152.904 15.2858C152.459 15.4814 152.06 15.7672 151.732 16.125C151.236 16.6857 150.904 17.3721 150.772 18.1091C150.641 18.846 150.714 19.605 150.985 20.3028C151.17 20.7569 151.447 21.1681 151.797 21.511C152.377 22.0938 153.128 22.4767 153.94 22.6044C154.753 22.7321 155.585 22.5978 156.316 22.2211C156.885 21.9274 157.381 21.5079 157.764 20.9945V16.6323Z" fill="#85959A"/>
<path d="M50.7454 14.9722C50.7454 14.7786 50.7454 14.5849 50.7454 14.3912C50.7499 14.3637 50.7499 14.3357 50.7454 14.3082C50.7454 14.1422 50.7454 13.9762 50.7454 13.8102C50.4774 11.2111 49.3224 8.78359 47.4748 6.936C45.6273 5.0884 43.1998 3.93345 40.6007 3.66539V3.66539C40.4378 3.65659 40.2747 3.65659 40.1119 3.66539H39.8905H39.3187C37.8228 3.66303 36.3412 3.95683 34.9593 4.52983C33.5775 5.10282 32.3227 5.94369 31.2674 7.00395L27.4401 10.7575L30.2068 13.5243L32.9736 10.7575L34.025 9.70616C34.7124 9.01459 35.5302 8.46615 36.4309 8.09257C37.3316 7.71898 38.2975 7.52765 39.2726 7.52964H39.7153H40.0288C41.722 7.70951 43.3024 8.46375 44.5072 9.66686C45.712 10.87 46.4684 12.4494 46.6506 14.1422V14.1422C46.6506 14.2529 46.6506 14.3543 46.6506 14.465V14.5203C46.6506 14.6494 46.6506 14.7693 46.6506 14.8985C46.6506 15.0276 46.6506 15.1475 46.6506 15.2766V15.3688C46.6598 15.4793 46.6598 15.5903 46.6506 15.7008V15.7008C46.5248 16.9548 46.0799 18.1557 45.3582 19.189C44.6366 20.2223 43.6622 21.0534 42.5282 21.6033H42.4636L42.2515 21.6955L42.1039 21.76L41.9748 21.8154L41.7442 21.8984H41.6889C40.3706 22.3489 38.9526 22.4219 37.5951 22.109C36.2376 21.7961 34.9946 21.1098 34.0065 20.1276L32.9736 19.0855L26.0567 12.1686L14.8421 0.981628L12.0753 3.74839L0.833008 14.9907L3.59977 17.7574L14.8052 28.9721L17.5719 26.2053L24.5719 19.1962L21.8051 16.4294L14.796 23.4385L6.39421 15.0276L14.796 6.61661L19.0475 10.7575L30.2529 21.9629L31.2951 23.0051C32.3509 24.0641 33.6059 24.9035 34.9878 25.475C36.3697 26.0464 37.851 26.3385 39.3464 26.3344V26.3344C40.6024 26.3326 41.8493 26.1206 43.0354 25.7073H43.1276L43.4781 25.5782L43.6902 25.4952L43.9023 25.3937L44.2343 25.2462H44.3266C46.0657 24.4 47.5602 23.1242 48.6689 21.5395C49.7775 19.9547 50.4637 18.1134 50.6624 16.1896V16.1896C50.6624 16.0236 50.6624 15.8484 50.6624 15.6824C50.658 15.6549 50.658 15.6269 50.6624 15.5994C50.6624 15.4149 50.6624 15.2212 50.6624 15.0184L50.7454 14.9722Z" fill="#85959A"/>
</svg>
