<svg width="167" height="37" viewBox="0 0 167 37" fill="none" xmlns="http://www.w3.org/2000/svg">
<path fill-rule="evenodd" clip-rule="evenodd" d="M57.9404 11.5615C57.28 10.9611 56.5054 10.4997 55.6628 10.205C54.8581 9.90843 54.0083 9.75264 53.1507 9.74448C52.4586 9.74306 51.7692 9.8303 51.0992 10.0041C50.4369 10.1652 49.8097 10.4461 49.2486 10.833C48.7091 11.2072 48.2622 11.6999 47.9424 12.2733C47.5924 12.9203 47.4191 13.6481 47.44 14.3834C47.4282 14.9586 47.5396 15.5296 47.7665 16.0582C47.9646 16.5058 48.2492 16.9098 48.6039 17.2472C48.9591 17.5882 49.3661 17.8708 49.8097 18.0846C50.2581 18.2954 50.7196 18.4772 51.1913 18.6288C51.6686 18.7796 52.104 18.9219 52.4808 19.0559C52.8162 19.1637 53.1369 19.3127 53.4354 19.4997C53.666 19.6353 53.8679 19.8145 54.03 20.0272C54.1703 20.2378 54.2433 20.486 54.2393 20.739C54.2452 21 54.1877 21.2586 54.0718 21.4926C53.9683 21.6946 53.8157 21.8673 53.628 21.995C53.4291 22.1247 53.2075 22.2156 52.9749 22.263C52.7221 22.3202 52.4637 22.3483 52.2045 22.3467C51.5945 22.3376 50.9951 22.1856 50.4544 21.9029C49.9057 21.6342 49.4204 21.2517 49.0309 20.7809L46.7366 23.1673C47.4213 23.8712 48.2575 24.4096 49.1817 24.7416C50.1557 25.1093 51.1885 25.2966 52.2296 25.2942C52.9379 25.2985 53.6431 25.1997 54.323 25.0011C54.9778 24.8211 55.5918 24.5169 56.1317 24.1052C56.654 23.6865 57.0772 23.1575 57.371 22.5561C57.6949 21.8652 57.8526 21.1081 57.8316 20.3454C57.8557 19.7006 57.7052 19.0613 57.3961 18.4949C57.1183 18.0117 56.7451 17.59 56.2992 17.2556C55.8532 16.9034 55.3563 16.6211 54.8254 16.4182C54.2895 16.2089 53.7704 16.0247 53.268 15.8572C52.9581 15.7567 52.6483 15.6562 52.3385 15.539C52.0885 15.4467 51.8474 15.3318 51.6184 15.1957C51.4345 15.0858 51.2795 14.9336 51.1662 14.7519C51.0636 14.5796 51.0087 14.383 51.0071 14.1825C50.9972 13.9273 51.0675 13.6755 51.2081 13.4623C51.3355 13.2761 51.501 13.1191 51.6937 13.0018C51.8927 12.8789 52.1152 12.799 52.3469 12.7673C52.5845 12.7243 52.8255 12.7019 53.067 12.7004C53.5582 12.7096 54.0413 12.8268 54.4821 13.0437C54.9505 13.2522 55.3613 13.5711 55.6795 13.9731L57.9404 11.5615ZM62.2528 24.9174H65.8199V10.1213H62.2528V24.9174ZM81.5623 13.1944V10.1213H69.722V13.1693H73.9088V24.8923H77.4592V13.1693L81.5623 13.1944ZM95.7052 24.9174V21.8694H88.8808V18.7963H94.9851V15.9326H88.8808V13.1274H95.3033V10.1213H85.4644V24.9174H95.7052ZM112.637 22.8742L110.166 20.5296C109.836 20.9865 109.403 21.3594 108.902 21.6182C108.329 21.9072 107.693 22.051 107.051 22.0369C106.476 22.0439 105.905 21.9298 105.377 21.7019C104.875 21.4888 104.424 21.172 104.054 20.7725C103.683 20.3551 103.398 19.8685 103.216 19.3406C103 18.7507 102.892 18.1266 102.898 17.4984C102.893 16.8812 103.001 16.2682 103.216 15.6897C103.399 15.1624 103.684 14.6759 104.054 14.2578C104.436 13.865 104.895 13.5544 105.402 13.3451C105.944 13.1117 106.528 12.992 107.118 12.9934C107.693 12.9947 108.262 13.1085 108.793 13.3284C109.316 13.5439 109.768 13.9005 110.099 14.3583L112.503 11.93C111.842 11.1918 111.003 10.6354 110.066 10.3139C109.089 9.94638 108.054 9.75638 107.01 9.75285C105.941 9.74454 104.881 9.92892 103.878 10.2971C102.947 10.6481 102.094 11.1772 101.366 11.8546C100.64 12.5477 100.069 13.3867 99.6911 14.3165C99.2705 15.3355 99.0625 16.4297 99.0798 17.5319C99.0669 18.6221 99.2719 19.7039 99.6827 20.7139C100.063 21.6437 100.631 22.4851 101.352 23.1853C102.072 23.8856 102.929 24.4296 103.869 24.7834C104.871 25.1688 105.936 25.362 107.01 25.3528C108.145 25.377 109.271 25.1512 110.309 24.6913C111.232 24.2787 112.055 23.6701 112.72 22.9077L112.637 22.8742ZM130.162 14.2495C129.782 13.3284 129.211 12.498 128.488 11.8128C127.761 11.1359 126.907 10.6094 125.976 10.2636C123.911 9.53785 121.66 9.53785 119.595 10.2636C118.664 10.6094 117.81 11.1359 117.083 11.8128C116.356 12.4953 115.785 13.3264 115.408 14.2495C114.605 16.312 114.605 18.6011 115.408 20.6636C115.781 21.6107 116.352 22.4672 117.083 23.1757C117.803 23.8742 118.658 24.4185 119.595 24.775C121.654 25.5353 123.917 25.5353 125.976 24.775C126.919 24.4212 127.778 23.8752 128.498 23.1717C129.219 22.4683 129.786 21.6228 130.162 20.6887C130.966 18.6262 130.966 16.3371 130.162 14.2746V14.2495ZM126.654 19.2736C126.471 19.8087 126.187 20.3034 125.817 20.7306C125.216 21.3479 124.442 21.7687 123.598 21.9376C122.753 22.1065 121.877 22.0156 121.086 21.6768C120.587 21.4551 120.139 21.133 119.771 20.7306C119.403 20.3018 119.119 19.8075 118.934 19.2736C118.722 18.6797 118.618 18.0533 118.624 17.4231C118.619 16.81 118.721 16.2009 118.925 15.6227C119.103 15.0953 119.388 14.6105 119.763 14.1992C120.135 13.798 120.585 13.4762 121.086 13.253C121.614 13.0246 122.184 12.9077 122.76 12.9097C123.35 12.9036 123.935 13.0206 124.477 13.253C124.979 13.4722 125.43 13.7946 125.8 14.1992C126.169 14.6146 126.454 15.0982 126.637 15.6227C126.848 16.1994 126.953 16.8092 126.947 17.4231C126.955 18.0535 126.85 18.6803 126.637 19.2736H126.654ZM146.675 24.8839L142.832 18.5535C143.713 18.309 144.497 17.797 145.076 17.0881C145.635 16.3716 145.931 15.4847 145.913 14.576C145.937 13.8354 145.773 13.1007 145.436 12.4408C145.134 11.8834 144.696 11.4112 144.163 11.0675C143.614 10.71 143.004 10.4573 142.363 10.3223C141.683 10.1783 140.99 10.1054 140.295 10.1045H134.659V24.9007H138.126V19.0392H139.332L142.522 24.9007L146.675 24.8839ZM142.137 15.539C141.986 15.7725 141.775 15.9606 141.525 16.0833C141.262 16.2148 140.979 16.3052 140.688 16.3512C140.391 16.3947 140.092 16.4171 139.792 16.4182H138.117V13.0018H140.01C140.29 13.0031 140.57 13.0255 140.847 13.0688C141.117 13.1025 141.378 13.1848 141.618 13.3116C141.869 13.4317 142.078 13.6244 142.218 13.8648C142.359 14.1051 142.424 14.3821 142.405 14.6598C142.415 14.9838 142.33 15.3038 142.162 15.5809L142.137 15.539ZM160.617 24.9174V21.8694H153.793V18.7963H159.889V15.9326H153.793V13.1274H160.24V10.1213H150.385V24.9174H160.617Z" fill="#85959A"/>
<path fill-rule="evenodd" clip-rule="evenodd" d="M17.9231 26.5837C19.3091 26.4147 20.6489 25.9766 21.867 25.2942C23.3306 24.4886 24.5543 23.3093 25.4134 21.8766C26.2725 20.4438 26.7362 18.8088 26.7572 17.1383V16.8285H30.944C30.6907 14.7633 29.9187 12.7958 28.6999 11.1093L24.4377 13.8559C25.0731 14.8205 25.4512 15.9316 25.5362 17.0835C25.6212 18.2355 25.4103 19.3901 24.9234 20.4375C23.4914 23.3226 20.9835 25.5298 17.9398 26.5837" fill="#85959A"/>
<path fill-rule="evenodd" clip-rule="evenodd" d="M30.9942 17.4733H27.3768C27.2914 19.1955 26.7693 20.8677 25.8596 22.3325C24.9499 23.7974 23.6826 25.0067 22.1768 25.8469C20.4055 26.824 18.4136 27.3314 16.3907 27.3207C14.7789 27.3279 13.179 27.0442 11.668 26.4833C13.4861 27.6401 15.5923 28.2638 17.7472 28.2836C19.6566 28.283 21.5307 27.7679 23.1722 26.7924C24.8137 25.8169 26.162 24.4172 27.0753 22.7403L27.2428 22.4472L29.6628 23.988C30.5556 22.2493 31.0234 20.3238 31.0277 18.3693C31.0277 18.0679 31.0277 17.7748 31.0277 17.4733" fill="#85959A"/>
<path fill-rule="evenodd" clip-rule="evenodd" d="M17.7807 28.9033C15.8064 28.8578 13.8689 28.3592 12.1179 27.446C10.367 26.5327 8.8493 25.2293 7.68213 23.6363C8.61959 25.689 10.1073 27.4419 11.9802 28.7007C13.8531 29.9595 16.038 30.6749 18.2927 30.7677C20.5474 30.8605 22.7838 30.327 24.7538 29.2264C26.7238 28.1257 28.3505 26.501 29.4534 24.5323L27.4773 23.3265C26.484 25.0232 25.0641 26.4306 23.3587 27.4089C21.6533 28.3872 19.7216 28.9024 17.7555 28.9033" fill="#85959A"/>
<path fill-rule="evenodd" clip-rule="evenodd" d="M18.7521 0.466631C15.2053 0.438428 11.7301 1.46438 8.7674 3.41433C5.80465 5.36428 3.48787 8.15034 2.11101 11.4191C0.734141 14.6878 0.359235 18.2918 1.03385 21.7739C1.70847 25.256 3.40221 28.4593 5.90019 30.9773C8.39817 33.4953 11.5878 35.2145 15.0644 35.9169C18.541 36.6193 22.1479 36.2732 25.4275 34.9225C28.7071 33.5717 31.5116 31.2773 33.4851 28.3302C35.4587 25.3831 36.5123 21.9162 36.5124 18.3693C36.5302 13.6404 34.6693 9.09804 31.3388 5.74087C28.0084 2.38369 23.481 0.486579 18.7521 0.466631ZM18.7521 31.3902C16.1723 31.4118 13.6442 30.6665 11.4886 29.2489C9.3331 27.8314 7.64724 25.8054 6.64501 23.4281C5.64278 21.0508 5.36934 18.4294 5.85939 15.8965C6.34944 13.3635 7.5809 11.0333 9.3975 9.20134C11.2141 7.36943 13.5339 6.11846 16.0627 5.60716C18.5914 5.09585 21.215 5.34728 23.6007 6.32952C25.9863 7.31176 28.0263 8.98054 29.4619 11.1241C30.8976 13.2677 31.6641 15.7894 31.6641 18.3693C31.6708 20.0727 31.3418 21.7606 30.6961 23.3368C30.0503 24.913 29.1004 26.3466 27.9007 27.5557C26.7009 28.7648 25.2747 29.7258 23.7036 30.3837C22.1324 31.0416 20.4471 31.3837 18.7437 31.3902" fill="#85959A"/>
<path fill-rule="evenodd" clip-rule="evenodd" d="M163.38 12.1896C163.512 12.498 163.746 12.7515 164.044 12.9073C164.341 13.0631 164.682 13.1117 165.011 13.0447C165.34 12.9778 165.635 12.7996 165.848 12.54C166.06 12.2805 166.177 11.9556 166.177 11.6202C166.178 11.333 166.094 11.052 165.934 10.8133C165.775 10.5745 165.547 10.389 165.281 10.2804C165.105 10.2 164.914 10.16 164.72 10.1632C164.434 10.1635 164.155 10.2478 163.917 10.4056C163.679 10.5634 163.492 10.7878 163.38 11.0508C163.3 11.2297 163.26 11.4241 163.263 11.6202C163.259 11.8164 163.299 12.011 163.38 12.1896V12.1896ZM163.59 11.1429C163.682 10.9189 163.839 10.7274 164.04 10.5926C164.241 10.4579 164.478 10.3859 164.72 10.3859C164.962 10.3859 165.199 10.4579 165.4 10.5926C165.602 10.7274 165.758 10.9189 165.851 11.1429C165.974 11.4492 165.974 11.7912 165.851 12.0975C165.755 12.3192 165.597 12.5089 165.397 12.6439C165.197 12.7789 164.962 12.8538 164.72 12.8595C164.404 12.8506 164.103 12.7184 163.883 12.4911C163.709 12.3188 163.591 12.0978 163.544 11.8572C163.498 11.6166 163.525 11.3676 163.623 11.1429H163.59ZM164.151 12.4408H164.444V11.7542H164.653L165.038 12.4408H165.39L164.955 11.7207C165.059 11.6958 165.154 11.6438 165.231 11.57C165.3 11.4883 165.336 11.3837 165.332 11.2769C165.333 11.1986 165.315 11.1212 165.281 11.0508C165.245 10.9909 165.197 10.9395 165.139 10.9001C165.079 10.8637 165.014 10.8355 164.946 10.8163C164.871 10.8081 164.795 10.8081 164.72 10.8163H164.151V12.4408ZM164.444 11.5114V11.0424H164.712C164.787 11.042 164.862 11.0592 164.93 11.0927C164.966 11.1042 164.997 11.1283 165.016 11.1605C165.036 11.1927 165.044 11.231 165.038 11.2685C165.043 11.3091 165.034 11.35 165.013 11.3848C164.992 11.4197 164.959 11.4465 164.921 11.4611C164.845 11.4945 164.762 11.5116 164.678 11.5114H164.444Z" fill="#85959A"/>
</svg>
